<svg width="24" height="24" viewBox="0 0 24 24" fill="none" xmlns="http://www.w3.org/2000/svg">
<path d="M22.6001 5.73V12.88C22.5701 15.73 21.7901 16.45 18.8201 16.45H9.38013C6.36013 16.45 5.6001 15.7 5.6001 12.72V5.73C5.6001 3.03 6.2301 2.16 8.6001 2.02C8.8401 2.01 9.10013 2 9.38013 2H18.8201C21.8401 2 22.6001 2.75 22.6001 5.73Z" fill="#9AA4B2"/>
<path d="M20.15 14.01H17.71C17.3 14.01 16.96 13.67 16.96 13.26C16.96 12.85 17.3 12.51 17.71 12.51H20.15C20.56 12.51 20.9 12.85 20.9 13.26C20.9 13.67 20.57 14.01 20.15 14.01Z" fill="white"/>
<path d="M6.04646 14.6737L12.3836 13.2795C12.787 13.1907 13.0051 12.5877 12.8646 11.9492C12.7242 11.3107 12.2731 10.8549 11.8696 10.9436L5.53254 12.3378C5.12909 12.4266 4.91101 13.0297 5.05148 13.6681C5.19195 14.3066 5.63317 14.7646 6.04646 14.6737Z" fill="white"/>
<path d="M6.29802 19.2425L12.6241 17.7992C13.0269 17.7073 13.1807 16.8416 12.9635 15.8895C12.7463 14.9374 12.2322 14.224 11.8294 14.3159L5.50331 15.7592C5.10057 15.8511 4.94671 16.7168 5.16393 17.6689C5.38115 18.621 5.88544 19.3366 6.29802 19.2425Z" fill="white"/>
<path d="M22.6001 7.30994H5.6001V8.80994H22.6001V7.30994Z" fill="white"/>
<path fill-rule="evenodd" clip-rule="evenodd" d="M13.3631 22.6888C13.6476 22.6265 13.9184 22.5469 14.1747 22.4503C16.4768 21.5832 17.6183 19.367 17.0477 16.6995L15.54 9.69276C14.9045 6.72764 12.5663 5.14361 9.72175 5.7514L4.86413 6.79096L4.86124 6.79111L4.85834 6.79126C2.01511 7.41519 0.539209 9.81511 1.17595 12.7801L2.68265 19.7872C3.31814 22.7523 5.65768 24.337 8.50187 23.7282L13.3631 22.6888ZM11.604 13.0904C11.6432 13.0815 11.6816 13.0706 11.7187 13.0566C12.098 12.9137 12.3235 12.5102 12.2341 12.1038C12.1366 11.6568 11.6952 11.3747 11.2476 11.4737L6.34972 12.5505C5.89693 12.6514 5.62141 13.0915 5.71963 13.537C5.8172 13.984 6.25854 14.2661 6.70553 14.1686L11.604 13.0904ZM10.513 17.4421C10.5522 17.4332 10.5905 17.4223 10.6277 17.4083C11.0069 17.2655 11.2329 16.863 11.1431 16.4555C11.0455 16.0085 10.6042 15.7264 10.1566 15.8254L7.21871 16.4707C6.77574 16.5727 6.48859 17.01 6.58758 17.4576C6.68619 17.9042 7.12753 18.1863 7.57413 18.0877L10.513 17.4421Z" fill="#202939"/>
</svg>
