<svg width="24" height="24" viewBox="0 0 24 24" fill="none" xmlns="http://www.w3.org/2000/svg">
<path opacity="0.4" d="M11.0092 19.7803L13.7082 20.186C13.9255 20.2187 13.951 20.5217 13.7424 20.5903L10.2657 21.7332C9.71946 21.9135 9.18474 22 8.6719 22C6.74043 22 5.12271 20.768 4.41183 18.6197L2.30108 12.1978C1.85287 10.8521 1.90603 9.51065 2.4543 8.42244C2.9786 7.37905 3.91463 6.61188 5.16023 6.20328L6.65736 5.71138C6.77211 5.67368 6.88584 5.77262 6.86795 5.89208L5.8673 12.5829C5.31277 16.2801 7.42665 19.2393 11.0092 19.7803Z" fill="#202939"/>
<path fill-rule="evenodd" clip-rule="evenodd" d="M15.8832 18.9334C16.1552 18.973 16.421 18.9928 16.6795 18.9928C19.0019 18.9928 20.7478 17.4147 21.1314 14.8682L22.131 8.17643C22.5563 5.34541 21.0178 3.16795 18.3025 2.75831L13.6651 2.06025L13.6625 2.05941L13.6599 2.05858C10.9404 1.66366 8.83786 3.29274 8.41374 6.12405L7.41309 12.8159C6.98781 15.6469 8.52736 17.8254 11.2427 18.234L15.8832 18.9334ZM17.5232 9.86828C17.5607 9.87349 17.5983 9.87662 17.6358 9.87662C18.0183 9.87662 18.3519 9.59519 18.4082 9.20639C18.4707 8.77903 18.1747 8.38294 17.7463 8.32144L13.0609 7.64287C12.6273 7.58137 12.2375 7.87844 12.176 8.30476C12.1134 8.73212 12.4095 9.12821 12.8368 9.19075L17.5232 9.86828ZM15.1112 13.3497C15.1487 13.355 15.1863 13.3581 15.2238 13.3581C15.6063 13.3581 15.9399 13.0777 15.9962 12.6879C16.0587 12.2605 15.7627 11.8644 15.3343 11.8029L12.5241 11.3953C12.0988 11.338 11.6996 11.6288 11.6381 12.0572C11.5766 12.4846 11.8726 12.8807 12.3 12.9422L15.1112 13.3497Z" fill="#202939"/>
</svg>
