<svg width="24" height="24" viewBox="0 0 24 24" fill="none" xmlns="http://www.w3.org/2000/svg">
<path d="M5.77553 4.78943C6.31946 4.78943 6.77274 4.85219 7.13536 4.97074C7.49798 5.09626 7.7839 5.2706 8.00705 5.50073C8.22323 5.73085 8.37665 6.00979 8.4673 6.33755C8.55796 6.6653 8.5998 7.0349 8.5998 7.43238V11.2539C8.3348 11.3097 7.97218 11.3794 7.50496 11.4561C7.03773 11.5328 6.46591 11.5746 5.80342 11.5746C5.38501 11.5746 5.00147 11.5398 4.65977 11.4631C4.31807 11.3864 4.02518 11.2678 3.78111 11.1004C3.53704 10.9331 3.34178 10.7099 3.21625 10.438C3.09073 10.166 3.021 9.83127 3.021 9.44075C3.021 9.06418 3.0977 8.7434 3.25112 8.47841C3.40454 8.21342 3.60677 8.00421 3.86479 7.8508C4.12281 7.69738 4.40872 7.57883 4.74345 7.50909C5.07121 7.43936 5.41291 7.40449 5.76856 7.40449C6.00566 7.40449 6.22183 7.41146 6.40314 7.43238C6.59143 7.45331 6.73787 7.4812 6.85642 7.50909V7.33476C6.85642 7.02095 6.75879 6.7699 6.57051 6.58162C6.38222 6.39333 6.05447 6.2957 5.58724 6.2957C5.27344 6.2957 4.9666 6.31662 4.65977 6.36544C4.35293 6.40728 4.09492 6.47702 3.87176 6.55372L3.63466 5.07534C3.73927 5.04047 3.87176 5.00561 4.03215 4.97074C4.19254 4.93587 4.36688 4.901 4.55517 4.87311C4.74345 4.84522 4.94568 4.81732 5.15489 4.7964C5.35015 4.80338 5.55935 4.78943 5.77553 4.78943ZM5.92197 10.166C6.10328 10.166 6.27762 10.159 6.43801 10.1521C6.60538 10.1451 6.7309 10.1311 6.8355 10.1172V8.72248C6.75879 8.70854 6.64722 8.68762 6.50077 8.67367C6.35433 8.65972 6.21486 8.64577 6.09631 8.64577C5.92197 8.64577 5.76158 8.65275 5.60817 8.67367C5.45475 8.69459 5.32225 8.73643 5.21068 8.79222C5.09213 8.84801 5.00844 8.92471 4.93871 9.02932C4.87595 9.12695 4.84108 9.25247 4.84108 9.39891C4.84108 9.68483 4.93871 9.88706 5.13397 9.99863C5.32225 10.1102 5.58724 10.166 5.92197 10.166Z" fill="#202939"/>
<path d="M9.6039 5.18698C9.91771 5.09632 10.3222 5.01264 10.8103 4.93593C11.2985 4.85922 11.8215 4.81738 12.3654 4.81738C12.9163 4.81738 13.3766 4.88712 13.7392 5.03356C14.1018 5.18001 14.3947 5.38224 14.6109 5.64723C14.827 5.91222 14.9735 6.22603 15.0641 6.58168C15.1548 6.9443 15.1966 7.34876 15.1966 7.78809V11.4492H13.3626V8.01125C13.3626 7.4185 13.2859 7.00009 13.1255 6.75602C12.9721 6.51194 12.6792 6.38642 12.2469 6.38642C12.1144 6.38642 11.9749 6.39339 11.8284 6.40734C11.682 6.42129 11.5495 6.43523 11.431 6.44918V11.4562H9.59692V5.18698H9.6039Z" fill="#202939"/>
<path d="M18.1882 3.08787C18.1882 3.42259 18.0767 3.68759 17.8605 3.88285C17.6443 4.0781 17.3863 4.17573 17.0864 4.17573C16.7935 4.17573 16.5355 4.0781 16.3124 3.88285C16.0962 3.68759 15.9846 3.42259 15.9846 3.08787C15.9846 2.75314 16.0962 2.48815 16.3124 2.29289C16.5286 2.09763 16.7866 2 17.0864 2C17.3793 2 17.6373 2.09763 17.8605 2.29289C18.0767 2.48815 18.1882 2.75314 18.1882 3.08787ZM18.0139 11.4491H16.1799V4.96374H18.0139V11.4491Z" fill="#202939"/>
<path d="M9.03208 16.3305C9.03208 16.8326 8.96932 17.2859 8.84379 17.6973C8.71827 18.1088 8.53696 18.4644 8.29986 18.7573C8.06276 19.0502 7.7629 19.2803 7.41423 19.4477C7.05858 19.615 6.65411 19.6918 6.19386 19.6918C5.93584 19.6918 5.69874 19.6639 5.47559 19.615C5.25244 19.5662 5.03626 19.4965 4.83403 19.4058V21.8466H3V13.311C3.16736 13.2622 3.35565 13.2134 3.56485 13.1715C3.78103 13.1297 4.00418 13.0879 4.23431 13.053C4.47141 13.0181 4.70851 12.9902 4.95258 12.9693C5.19665 12.9484 5.42678 12.9414 5.64993 12.9414C6.18689 12.9414 6.66109 13.0251 7.0795 13.1855C7.49791 13.3459 7.85356 13.569 8.13947 13.8619C8.42538 14.1548 8.64854 14.5104 8.80195 14.9289C8.95537 15.3473 9.03208 15.8145 9.03208 16.3305ZM7.15621 16.3793C7.15621 15.8145 7.03068 15.3612 6.77266 15.0195C6.51464 14.6778 6.13807 14.5104 5.63598 14.5104C5.46862 14.5104 5.32217 14.5174 5.1827 14.5314C5.04323 14.5453 4.92469 14.5593 4.841 14.5732V17.8926C4.95955 17.9693 5.106 18.0251 5.29428 18.0809C5.47559 18.1297 5.66388 18.1576 5.85216 18.1576C6.71688 18.1436 7.15621 17.5579 7.15621 16.3793Z" fill="#202939"/>
<path d="M12.1142 12.9204C12.6581 12.9204 13.1114 12.9832 13.474 13.1017C13.8366 13.2272 14.1225 13.4016 14.3457 13.6317C14.5619 13.8618 14.7153 14.1408 14.8059 14.4685C14.8966 14.7963 14.9384 15.1659 14.9384 15.5634V19.3918C14.6734 19.4476 14.3108 19.5173 13.8436 19.594C13.3764 19.6708 12.8045 19.7126 12.142 19.7126C11.7236 19.7126 11.3401 19.6777 10.9984 19.601C10.6567 19.5243 10.3638 19.4058 10.1197 19.2384C9.87566 19.071 9.6804 18.8479 9.55488 18.5759C9.42238 18.304 9.35962 17.9692 9.35962 17.5787C9.35962 17.2021 9.43633 16.8814 9.58974 16.6164C9.74316 16.3514 9.94539 16.1422 10.2034 15.9887C10.4614 15.8353 10.7473 15.7168 11.0821 15.647C11.4098 15.5773 11.7515 15.5424 12.1072 15.5424C12.3443 15.5424 12.5605 15.5494 12.7418 15.5703C12.9301 15.5913 13.0765 15.6192 13.195 15.647V15.4727C13.195 15.1589 13.0974 14.9079 12.9091 14.7196C12.7208 14.5313 12.3931 14.4337 11.9259 14.4337C11.6121 14.4337 11.3052 14.4546 10.9984 14.5034C10.6916 14.5452 10.4335 14.615 10.2104 14.6917L9.97329 13.2133C10.0779 13.1784 10.2104 13.1436 10.3708 13.1087C10.5312 13.0738 10.7055 13.039 10.8938 13.0111C11.0821 12.9832 11.2843 12.9553 11.4935 12.9344C11.6888 12.9274 11.9049 12.9204 12.1142 12.9204ZM12.2676 18.29C12.4489 18.29 12.6232 18.283 12.7836 18.2761C12.951 18.2691 13.0765 18.2551 13.1811 18.2412V16.8465C13.1044 16.8325 12.9928 16.8116 12.8464 16.7977C12.6999 16.7837 12.5605 16.7698 12.4419 16.7698C12.2676 16.7698 12.1072 16.7768 11.9538 16.7977C11.8003 16.8186 11.6678 16.8604 11.5563 16.9162C11.4377 16.972 11.354 17.0487 11.2843 17.1533C11.2215 17.251 11.1867 17.3765 11.1867 17.5229C11.1867 17.8088 11.2843 18.0111 11.4796 18.1226C11.6609 18.2342 11.9259 18.29 12.2676 18.29Z" fill="#202939"/>
<path d="M19.6388 13.0878C19.5551 13.4085 19.4644 13.7572 19.3598 14.1268C19.2552 14.5034 19.1506 14.88 19.0391 15.2635C18.9275 15.647 18.8159 16.0166 18.6974 16.3793C18.5788 16.7419 18.4672 17.0696 18.3626 17.3625C18.2441 17.0696 18.1255 16.7349 18 16.3793C17.8745 16.0166 17.749 15.647 17.6234 15.2635C17.4979 14.88 17.3794 14.5034 17.2678 14.1268C17.1562 13.7503 17.0586 13.4085 16.9749 13.0878H15.0293C15.3989 14.3639 15.7964 15.5145 16.2148 16.5327C16.6332 17.5578 17.0516 18.4783 17.47 19.3012C17.3445 19.615 17.1981 19.859 17.0167 20.0334C16.8633 20.1868 16.4449 20.2705 16.173 20.2914V21.8535C16.5077 21.8535 17.0098 21.8116 17.2608 21.7349C17.5188 21.6582 17.7559 21.5327 17.9582 21.3653C18.1674 21.1979 18.3557 20.9818 18.523 20.7238C18.6974 20.4657 18.8717 20.1519 19.0391 19.7823C19.5202 18.7572 19.9596 17.6973 20.364 16.6024C20.7685 15.5076 21.152 14.336 21.5286 13.0878H19.6388Z" fill="#202939"/>
<path fill-rule="evenodd" clip-rule="evenodd" d="M14.9384 22.0001L12.149 21.6026C12.1211 21.6026 9.35962 22.0001 9.35962 22.0001V20.5565C9.35962 20.5565 12.1211 20.1591 12.149 20.1591L14.9384 20.5565V22.0001Z" fill="#FBB040"/>
</svg>
