<svg width="24" height="24" viewBox="0 0 24 24" fill="none" xmlns="http://www.w3.org/2000/svg">
<path d="M7.22047 6.23157C7.65562 6.23157 8.01824 6.28178 8.30834 6.37662C8.59844 6.47703 8.82717 6.6165 9.00569 6.8006C9.17863 6.98471 9.30136 7.20786 9.37389 7.47006C9.44641 7.73226 9.47989 8.02794 9.47989 8.34593V11.4031C9.26789 11.4477 8.97779 11.5035 8.60401 11.5649C8.23023 11.6263 7.77277 11.6597 7.24279 11.6597C6.90806 11.6597 6.60123 11.6318 6.32786 11.5705C6.0545 11.5091 5.82019 11.4143 5.62494 11.2804C5.42968 11.1465 5.27347 10.968 5.17305 10.7504C5.07263 10.5328 5.01685 10.265 5.01685 9.95263C5.01685 9.65137 5.07821 9.39475 5.20095 9.18275C5.32368 8.97076 5.48547 8.80339 5.69188 8.68066C5.8983 8.55793 6.12703 8.46309 6.39481 8.4073C6.65701 8.35151 6.93037 8.32362 7.21489 8.32362C7.40457 8.32362 7.57752 8.3292 7.72256 8.34593C7.87319 8.36267 7.99035 8.38498 8.08519 8.4073V8.26783C8.08519 8.01678 8.00708 7.81595 7.85646 7.66532C7.70583 7.51469 7.44362 7.43659 7.06984 7.43659C6.8188 7.43659 6.57333 7.45332 6.32786 7.49238C6.0824 7.52585 5.87598 7.58164 5.69746 7.643L5.50778 6.4603C5.59146 6.4324 5.69746 6.40451 5.82577 6.37662C5.95408 6.34872 6.09355 6.32083 6.24418 6.29851C6.39481 6.2762 6.55659 6.25388 6.72396 6.23715C6.88017 6.24272 7.04753 6.23157 7.22047 6.23157ZM7.33763 10.5328C7.48268 10.5328 7.62215 10.5272 7.75046 10.5217C7.88435 10.5161 7.98477 10.5049 8.06845 10.4938V9.37801C8.00708 9.36685 7.91782 9.35012 7.80067 9.33896C7.68351 9.3278 7.57194 9.31664 7.4771 9.31664C7.33763 9.31664 7.20931 9.32222 7.08658 9.33896C6.96385 9.3557 6.85785 9.38917 6.76859 9.4338C6.67375 9.47843 6.6068 9.5398 6.55102 9.62348C6.50081 9.70158 6.47291 9.802 6.47291 9.91915C6.47291 10.1479 6.55102 10.3097 6.70722 10.3989C6.85785 10.4882 7.06984 10.5328 7.33763 10.5328Z" fill="white"/>
<path d="M10.2832 6.54958C10.5342 6.47706 10.8578 6.41011 11.2483 6.34875C11.6388 6.28738 12.0572 6.25391 12.4924 6.25391C12.9331 6.25391 13.3013 6.30969 13.5914 6.42685C13.8815 6.544 14.1158 6.70579 14.2887 6.91778C14.4617 7.12978 14.5788 7.38082 14.6514 7.66534C14.7239 7.95544 14.7574 8.27901 14.7574 8.63048V11.5593H13.2901V8.809C13.2901 8.3348 13.2288 8.00007 13.1005 7.80481C12.9777 7.60956 12.7434 7.50914 12.3975 7.50914C12.2915 7.50914 12.18 7.51472 12.0628 7.52587C11.9456 7.53703 11.8397 7.54819 11.7448 7.55935V11.5649H10.2776V6.54958H10.2832Z" fill="white"/>
<path d="M17.1506 4.87029C17.1506 5.13808 17.0613 5.35007 16.8884 5.50628C16.7155 5.66248 16.509 5.74059 16.2691 5.74059C16.0348 5.74059 15.8284 5.66248 15.6499 5.50628C15.477 5.35007 15.3877 5.13808 15.3877 4.87029C15.3877 4.60251 15.477 4.39052 15.6499 4.23431C15.8228 4.0781 16.0293 4 16.2691 4C16.5035 4 16.7099 4.0781 16.8884 4.23431C17.0613 4.39052 17.1506 4.60251 17.1506 4.87029ZM17.0111 11.5593H15.5439V6.37099H17.0111V11.5593Z" fill="white"/>
<path d="M9.82566 15.4645C9.82566 15.8661 9.77545 16.2288 9.67503 16.5579C9.57462 16.8871 9.42957 17.1716 9.23989 17.4059C9.05021 17.6402 8.81032 17.8243 8.53138 17.9582C8.24686 18.0921 7.92329 18.1535 7.55509 18.1535C7.34867 18.1535 7.159 18.1311 6.98047 18.0921C6.80195 18.053 6.62901 17.9972 6.46722 17.9247V19.8773H5V13.0488C5.13389 13.0098 5.28452 12.9707 5.45188 12.9373C5.62483 12.9038 5.80335 12.8703 5.98745 12.8424C6.17713 12.8145 6.36681 12.7922 6.56206 12.7755C6.75732 12.7588 6.94142 12.7532 7.11994 12.7532C7.54951 12.7532 7.92887 12.8201 8.2636 12.9484C8.59833 13.0767 8.88285 13.2553 9.11158 13.4896C9.34031 13.7239 9.51883 14.0084 9.64156 14.3431C9.7643 14.6779 9.82566 15.0516 9.82566 15.4645ZM8.32496 15.5035C8.32496 15.0516 8.22455 14.689 8.01813 14.4157C7.81172 14.1423 7.51046 14.0084 7.10879 14.0084C6.97489 14.0084 6.85774 14.014 6.74616 14.0251C6.63459 14.0363 6.53975 14.0475 6.4728 14.0586V16.7141C6.56764 16.7755 6.6848 16.8201 6.83543 16.8648C6.98047 16.9038 7.1311 16.9261 7.28173 16.9261C7.9735 16.915 8.32496 16.4463 8.32496 15.5035Z" fill="white"/>
<path d="M12.2913 12.7363C12.7264 12.7363 13.089 12.7865 13.3791 12.8814C13.6692 12.9818 13.898 13.1213 14.0765 13.3054C14.2494 13.4895 14.3722 13.7126 14.4447 13.9748C14.5172 14.237 14.5507 14.5327 14.5507 14.8507V17.9135C14.3387 17.9581 14.0486 18.0139 13.6748 18.0752C13.301 18.1366 12.8436 18.1701 12.3136 18.1701C11.9789 18.1701 11.672 18.1422 11.3987 18.0808C11.1253 18.0195 10.891 17.9246 10.6957 17.7907C10.5005 17.6568 10.3443 17.4783 10.2439 17.2607C10.1379 17.0432 10.0876 16.7754 10.0876 16.463C10.0876 16.1617 10.149 15.9051 10.2717 15.6931C10.3945 15.4811 10.5563 15.3137 10.7627 15.191C10.9691 15.0683 11.1978 14.9734 11.4656 14.9176C11.7278 14.8618 12.0012 14.834 12.2857 14.834C12.4754 14.834 12.6483 14.8395 12.7934 14.8563C12.944 14.873 13.0611 14.8953 13.156 14.9176V14.7782C13.156 14.5271 13.0779 14.3263 12.9273 14.1757C12.7766 14.025 12.5144 13.9469 12.1406 13.9469C11.8896 13.9469 11.6441 13.9637 11.3987 14.0027C11.1532 14.0362 10.9468 14.092 10.7683 14.1533L10.5786 12.9706C10.6623 12.9427 10.7683 12.9148 10.8966 12.887C11.0249 12.8591 11.1644 12.8312 11.315 12.8089C11.4656 12.7865 11.6274 12.7642 11.7948 12.7475C11.951 12.7419 12.1239 12.7363 12.2913 12.7363ZM12.414 17.032C12.5591 17.032 12.6985 17.0264 12.8268 17.0208C12.9607 17.0153 13.0611 17.0041 13.1448 16.993V15.8772C13.0835 15.866 12.9942 15.8493 12.877 15.8381C12.7599 15.827 12.6483 15.8158 12.5535 15.8158C12.414 15.8158 12.2857 15.8214 12.163 15.8381C12.0402 15.8549 11.9342 15.8883 11.845 15.933C11.7501 15.9776 11.6832 16.039 11.6274 16.1227C11.5772 16.2008 11.5493 16.3012 11.5493 16.4183C11.5493 16.6471 11.6274 16.8089 11.7836 16.8981C11.9287 16.9874 12.1406 17.032 12.414 17.032Z" fill="white"/>
<path d="M18.3111 12.8702C18.2442 13.1269 18.1717 13.4058 18.088 13.7015C18.0043 14.0027 17.9206 14.304 17.8313 14.6108C17.7421 14.9177 17.6528 15.2133 17.558 15.5034C17.4631 15.7935 17.3739 16.0557 17.2902 16.29C17.1954 16.0557 17.1005 15.788 17.0001 15.5034C16.8997 15.2133 16.7993 14.9177 16.6988 14.6108C16.5984 14.304 16.5036 14.0027 16.4143 13.7015C16.3251 13.4002 16.247 13.1269 16.18 12.8702H14.6235C14.9192 13.8912 15.2372 14.8117 15.5719 15.6262C15.9067 16.4462 16.2414 17.1827 16.5761 17.841C16.4757 18.092 16.3585 18.2873 16.2135 18.4267C16.0908 18.5495 15.756 18.6164 15.5385 18.6331V19.8828C15.8062 19.8828 16.2079 19.8493 16.4088 19.788C16.6152 19.7266 16.8048 19.6262 16.9666 19.4923C17.134 19.3584 17.2846 19.1854 17.4185 18.979C17.558 18.7726 17.6975 18.5216 17.8313 18.2259C18.2163 17.4058 18.5677 16.5578 18.8913 15.682C19.2149 14.8061 19.5217 13.8688 19.823 12.8702H18.3111Z" fill="white"/>
<path fill-rule="evenodd" clip-rule="evenodd" d="M14.5507 20L12.3192 19.682C12.2969 19.682 10.0876 20 10.0876 20V18.8452C10.0876 18.8452 12.2969 18.5272 12.3192 18.5272L14.5507 18.8452V20Z" fill="#FBB040"/>
</svg>
