<svg width="24" height="24" viewBox="0 0 24 24" fill="none" xmlns="http://www.w3.org/2000/svg">
<g clip-path="url(#clip0_2027_23660)">
<path d="M23.9995 12.0001C23.9995 10.5323 23.7355 9.12615 23.2531 7.82621L11.9995 7.30444L0.745902 7.82616C0.263559 9.12614 -0.000488281 10.5323 -0.000488281 12.0001C-0.000488281 13.4679 0.263559 14.874 0.745902 16.174L11.9995 16.6957L23.2531 16.174C23.7355 14.874 23.9995 13.4679 23.9995 12.0001Z" fill="#D80027"/>
<path d="M12.0004 23.9996C17.16 23.9996 21.5585 20.7431 23.254 16.1735H0.746826C2.44234 20.7431 6.84086 23.9996 12.0004 23.9996Z" fill="#6DA544"/>
<path d="M0.746826 7.82513H23.2541C21.5585 3.25552 17.16 -0.000976562 12.0004 -0.000976562C6.84086 -0.000976562 2.44234 3.25552 0.746826 7.82513Z" fill="#338AF3"/>
<path d="M12.376 14.8438C10.8054 14.8438 9.5322 13.5706 9.5322 12C9.5322 10.4295 10.8054 9.15627 12.376 9.15627C12.8657 9.15627 13.3265 9.28008 13.7287 9.49808C13.0976 8.88092 12.2346 8.5 11.2822 8.5C9.34919 8.5 7.78223 10.067 7.78223 12C7.78223 13.933 9.34923 15.5 11.2822 15.5C12.2346 15.5 13.0976 15.1191 13.7287 14.5019C13.3265 14.72 12.8657 14.8438 12.376 14.8438Z" fill="#F0F0F0"/>
<path d="M14.5637 10.0304L14.9404 11.0898L15.9559 10.607L15.4731 11.6224L16.5325 11.9992L15.4731 12.3759L15.9559 13.3913L14.9404 12.9086L14.5637 13.9679L14.1871 12.9086L13.1716 13.3913L13.6544 12.3759L12.595 11.9992L13.6544 11.6224L13.1716 10.607L14.1871 11.0898L14.5637 10.0304Z" fill="#F0F0F0"/>
</g>
<defs>
<clipPath id="clip0_2027_23660">
<rect width="24" height="24" fill="white"/>
</clipPath>
</defs>
</svg>
