<svg width="24" height="24" viewBox="0 0 24 24" fill="none" xmlns="http://www.w3.org/2000/svg">
<path opacity="0.4" fill-rule="evenodd" clip-rule="evenodd" d="M15.8179 2.64001H8.19165C5.06685 2.64001 2.88477 4.72513 2.88477 7.70881V15.8112C2.88477 18.8429 5.01693 20.88 8.19165 20.88H15.8179C18.9868 20.88 21.1152 18.8429 21.1152 15.8112V7.70881C21.1152 4.68769 18.9878 2.65057 15.8179 2.64001Z" fill="#202939"/>
<path fill-rule="evenodd" clip-rule="evenodd" d="M14.7135 6.2593L16.3043 7.8529C16.3715 7.9201 16.4252 7.99978 16.4627 8.09002C16.4953 8.1697 16.5097 8.25418 16.5126 8.33866C16.5135 8.3473 16.5174 8.35498 16.5174 8.36362V8.36458C16.5174 8.45866 16.4982 8.55178 16.4617 8.6401C16.4367 8.70154 16.3945 8.75146 16.3532 8.8033C16.3359 8.82538 16.3283 8.85226 16.3071 8.87338L14.7135 10.4689C14.4332 10.7511 13.9763 10.7511 13.695 10.4698C13.4137 10.1886 13.4137 9.73353 13.694 9.45226L14.0627 9.08362H10.4022C10.0181 9.08362 9.63989 9.2401 9.36341 9.51466C9.09845 9.78345 8.94293 10.1626 8.94293 10.5476V11.5374C8.94293 11.9348 8.62037 12.2574 8.22293 12.2574C7.82549 12.2574 7.50293 11.9348 7.50293 11.5374V10.5476C7.50293 9.78825 7.80917 9.04042 8.34293 8.49898C8.89301 7.95274 9.64085 7.64362 10.4022 7.64362H14.0607L13.694 7.2769C13.4137 6.99466 13.4137 6.53962 13.695 6.25834C13.9763 5.97802 14.4332 5.97802 14.7135 6.2593ZM16.5174 11.9914V12.9802C16.5174 13.7636 16.2169 14.4942 15.6716 15.0366C15.1273 15.5761 14.3795 15.8852 13.6182 15.8852H9.95957L10.3263 16.2519C10.4665 16.393 10.5366 16.5764 10.5366 16.7607C10.5366 16.945 10.4665 17.1294 10.3254 17.2705C10.044 17.5508 9.58805 17.5508 9.30677 17.2695L7.71701 15.6759C7.64885 15.6087 7.59509 15.5281 7.55861 15.4378C7.52981 15.3678 7.52021 15.2938 7.51349 15.219C7.51253 15.1998 7.50293 15.1844 7.50293 15.1652C7.50293 15.1623 7.50485 15.1604 7.50485 15.1585C7.50485 15.0663 7.52309 14.9751 7.55861 14.8887C7.58549 14.8263 7.62773 14.7745 7.66997 14.7217C7.68629 14.7006 7.69397 14.6746 7.71317 14.6554L9.30677 13.059C9.58805 12.7777 10.044 12.7777 10.3254 13.059C10.6067 13.3393 10.6067 13.7953 10.3263 14.0766L9.95861 14.4452H13.6182C14.0022 14.4452 14.3804 14.2878 14.6569 14.0142C14.9286 13.7444 15.0774 13.3777 15.0774 12.9802V11.9914C15.0774 11.594 15.3999 11.2714 15.7974 11.2714C16.1948 11.2714 16.5174 11.594 16.5174 11.9914Z" fill="#202939"/>
</svg>
