<svg width="24" height="24" viewBox="0 0 24 24" fill="none" xmlns="http://www.w3.org/2000/svg">
<path d="M19.1082 10.3924C19.1322 7.57269 16.7306 4.98772 13.7546 4.63027C13.6954 4.62325 13.631 4.61257 13.5627 4.60126C13.4154 4.57685 13.263 4.55176 13.1093 4.55176C12.4994 4.55176 12.3363 4.9802 12.2934 5.23573C12.2516 5.48418 12.2915 5.69281 12.4115 5.85611C12.6135 6.13076 12.9689 6.17952 13.2544 6.21859C13.338 6.23014 13.417 6.24089 13.4831 6.25573C16.1569 6.85319 17.0572 7.7925 17.4972 10.4436C17.5079 10.5083 17.5128 10.5882 17.5179 10.6728C17.5371 10.9897 17.5771 11.649 18.2859 11.649H18.286C18.345 11.649 18.4084 11.6439 18.4744 11.6339C19.1345 11.5336 19.1138 10.9309 19.1039 10.6413C19.1011 10.5598 19.0984 10.4826 19.1053 10.4313C19.1072 10.4184 19.1081 10.4054 19.1082 10.3924Z" fill="#202939"/>
<path d="M12.9361 3.59553C13.0153 3.60124 13.0903 3.60671 13.1527 3.61627C17.5433 4.29149 19.5625 6.37174 20.1221 10.7967C20.1316 10.8719 20.1331 10.9637 20.1346 11.0608C20.1402 11.4065 20.1517 12.1257 20.9241 12.1406L20.9481 12.1409C21.1903 12.1409 21.383 12.0678 21.5208 11.9236C21.7612 11.6721 21.7444 11.2985 21.7309 10.9983C21.7276 10.9246 21.7244 10.8552 21.7253 10.7945C21.7811 6.26888 17.8637 2.16509 13.3422 2.01248C13.3234 2.01186 13.3055 2.01286 13.2874 2.0154C13.2785 2.01671 13.2621 2.01832 13.2339 2.01832C13.1888 2.01832 13.1333 2.01441 13.0745 2.01043C13.0034 2.00559 12.9228 2 12.841 2C12.121 2 11.9841 2.5118 11.9666 2.81689C11.9262 3.52199 12.6083 3.57161 12.9361 3.59553Z" fill="#202939"/>
<path d="M19.9102 16.5155C19.8169 16.4442 19.7204 16.3704 19.63 16.2976C19.1506 15.9118 18.6406 15.5562 18.1474 15.2123C18.045 15.141 17.9427 15.0696 17.8407 14.9981C17.2089 14.5543 16.6409 14.3386 16.1042 14.3386C15.3814 14.3386 14.7512 14.738 14.2311 15.5255C14.0007 15.8747 13.7211 16.0444 13.3766 16.0444C13.1728 16.0444 12.9414 15.9863 12.6886 15.8716C10.6493 14.9468 9.19309 13.5289 8.36036 11.6573C7.95781 10.7527 8.08831 10.1614 8.79676 9.68013C9.19906 9.40708 9.94788 8.89876 9.89483 7.92534C9.83477 6.81994 7.39576 3.49391 6.36812 3.11615C5.93303 2.95615 5.47589 2.95466 5.00694 3.11242C3.82558 3.50957 2.97781 4.20702 2.55508 5.12926C2.14657 6.02037 2.16502 7.06671 2.60844 8.15516C3.8903 11.3021 5.69253 14.0458 7.96527 16.31C10.1899 18.5264 12.9241 20.3419 16.0919 21.706C16.3774 21.8288 16.6769 21.8958 16.8956 21.9447C16.9702 21.9615 17.0345 21.9758 17.0814 21.9886C17.1072 21.9957 17.1338 21.9994 17.1604 21.9997L17.1855 21.9998C17.1855 21.9998 17.1855 21.9998 17.1856 21.9998C18.6755 21.9998 20.4645 20.6383 21.014 19.0862C21.4953 17.727 20.6164 17.0552 19.9102 16.5155Z" fill="#202939"/>
<path d="M13.5951 7.19C13.34 7.19646 12.8091 7.20962 12.6228 7.75031C12.5357 8.00298 12.5461 8.22236 12.6539 8.40236C12.812 8.66646 13.115 8.74739 13.3906 8.7918C14.39 8.95217 14.9033 9.50484 15.006 10.5309C15.0537 11.0094 15.3759 11.3435 15.7896 11.3435C15.8201 11.3435 15.8514 11.3417 15.8825 11.3379C16.38 11.2787 16.6212 10.9132 16.5994 10.2515C16.6074 9.56105 16.246 8.77714 15.6314 8.15273C15.0147 7.52639 14.2713 7.17366 13.5951 7.19Z" fill="#202939"/>
</svg>
