<svg width="24" height="24" viewBox="0 0 24 24" fill="none" xmlns="http://www.w3.org/2000/svg">
<path opacity="0.4" fill-rule="evenodd" clip-rule="evenodd" d="M19.0067 14.6376C18.7734 14.4159 18.52 14.1739 18.2512 13.9042C17.0252 12.684 15.9664 13.0978 15.1148 13.4328C14.0944 13.8312 13.1324 14.2095 11.3776 12.4565C9.62173 10.7016 9.99805 9.73777 10.3974 8.71729C10.7305 7.86481 11.1452 6.80497 9.91933 5.58289C9.65245 5.31505 9.41243 5.06161 9.19067 4.82737C8.28923 3.87601 7.63835 3.18865 6.72155 3.17713C5.97179 3.15217 5.09819 3.66769 3.85787 4.90993C3.84539 4.92241 3.78299 4.98481 3.77243 4.99825C3.49787 5.26513 2.76923 5.97745 2.76059 7.36657C2.74619 9.53905 4.49819 12.3999 7.96667 15.8703C11.4188 19.3215 14.2681 21.0696 16.4368 21.0696H16.4608C17.8528 21.0619 18.566 20.3323 18.8348 20.0578L18.9251 19.9704C20.1606 18.7339 20.6617 17.9045 20.6512 17.1125C20.6406 16.1957 19.9552 15.5419 19.0067 14.6376Z" fill="#1C1C1C"/>
<path fill-rule="evenodd" clip-rule="evenodd" d="M16.6588 10.0719C16.726 10.4156 17.0274 10.6537 17.3644 10.6537C17.4105 10.6537 17.4575 10.6499 17.5036 10.6412C17.8933 10.5654 18.1487 10.1871 18.0729 9.79638C17.7071 7.92054 16.2594 6.47286 14.3845 6.1071C13.9938 6.04182 13.6165 6.28566 13.5397 6.67638C13.4639 7.0671 13.7183 7.44534 14.109 7.52118C15.405 7.7727 16.4063 8.77398 16.6588 10.0719Z" fill="#1C1C1C"/>
<path fill-rule="evenodd" clip-rule="evenodd" d="M14.3258 2.94024C13.935 2.87976 13.5741 3.1812 13.5309 3.57576C13.4867 3.97128 13.7718 4.32744 14.1674 4.37064C17.152 4.70184 19.4694 7.01832 19.8045 10.0039C19.8458 10.3726 20.1568 10.6443 20.5187 10.6443C20.5456 10.6443 20.5725 10.6424 20.6003 10.6404C20.9949 10.5963 21.28 10.2401 21.2349 9.84457C20.8259 6.18504 17.9843 3.34536 14.3258 2.94024Z" fill="#1C1C1C"/>
</svg>
