<svg width="24" height="24" viewBox="0 0 24 24" fill="none" xmlns="http://www.w3.org/2000/svg">
<path fill-rule="evenodd" clip-rule="evenodd" d="M14.1328 16.6142C13.8444 16.6112 13.5655 16.5896 13.297 16.5496C10.8854 16.1897 9.30527 14.3584 9.28271 11.7804L9.23216 5.00697C9.20829 2.14106 11.1273 0.225806 14.0074 0.241344L18.9261 0.269418L18.9289 0.268997L18.9317 0.268576C21.814 0.299316 23.7569 2.23632 23.7796 5.10234L23.8312 11.8759C23.855 14.7418 21.9349 16.658 19.0549 16.6414L14.1328 16.6142ZM13.7674 7.39421C13.7277 7.39355 13.6882 7.39083 13.6493 7.38502C13.252 7.32575 12.9472 6.99572 12.9461 6.60246C12.9442 6.17009 13.3101 5.82419 13.764 5.82974L18.7296 5.88453C19.189 5.89088 19.55 6.2451 19.5509 6.67628C19.5528 7.10865 19.1869 7.45454 18.7339 7.45019L13.7674 7.39421ZM15.7584 11.2113C15.7186 11.2106 15.6792 11.2079 15.6402 11.2021C15.243 11.1428 14.938 10.8138 14.9371 10.4195C14.9352 9.98714 15.301 9.64125 15.755 9.6468L18.7333 9.67909C19.1834 9.68828 19.5551 10.0378 19.5557 10.471C19.5565 10.9032 19.1906 11.2491 18.7378 11.2437L15.7584 11.2113Z" fill="#202939"/>
<path d="M18 12.28V19.43C17.97 22.28 17.19 23 14.22 23H4.78003C1.76003 23 1 22.25 1 19.27V12.28C1 9.58005 1.63 8.71005 4 8.57005C4.24 8.56005 4.50003 8.55005 4.78003 8.55005H14.22C17.24 8.55005 18 9.30005 18 12.28Z" fill="#9AA4B2"/>
<path d="M5.96002 20.5601H4.23999C3.82999 20.5601 3.48999 20.2201 3.48999 19.8101C3.48999 19.4001 3.82999 19.0601 4.23999 19.0601H5.96002C6.37002 19.0601 6.71002 19.4001 6.71002 19.8101C6.71002 20.2201 6.38002 20.5601 5.96002 20.5601Z" fill="#202939"/>
<path d="M11.5499 20.5601H8.10986C7.69986 20.5601 7.35986 20.2201 7.35986 19.8101C7.35986 19.4001 7.69986 19.0601 8.10986 19.0601H11.5499C11.9599 19.0601 12.2999 19.4001 12.2999 19.8101C12.2999 20.2201 11.9699 20.5601 11.5499 20.5601Z" fill="#202939"/>
<path d="M18 13.86H1V15.36H18V13.86Z" fill="#202939"/>
</svg>
