<svg width="24" height="24" viewBox="0 0 24 24" fill="none" xmlns="http://www.w3.org/2000/svg">
<path fill-rule="evenodd" clip-rule="evenodd" d="M18.2959 4.11382C16.2334 2.48781 13.5459 1.79987 10.7959 2.05003C6.17089 2.55034 2.4834 5.92745 2.0459 10.2427C1.5459 14.9956 5.17089 18.748 10.9834 19.3734V20.9368C10.9834 21.2495 11.1709 21.5622 11.4834 21.8124C11.6709 21.9375 11.9209 22 12.1709 22C12.2959 22 12.3584 22 12.4834 21.9375C17.4209 20.6867 22.2959 16.4966 21.9834 11.0557C21.8584 8.36648 20.4834 5.80238 18.2959 4.11382ZM12.1084 14.1826H8.73339C8.29589 14.1826 7.92089 13.8074 7.92089 13.3696C7.92089 12.9318 8.29589 12.5566 8.73339 12.5566H12.1084C12.5459 12.5566 12.9209 12.9318 12.9209 13.3696C12.8584 13.8074 12.5459 14.1826 12.1084 14.1826ZM15.2334 10.1801H8.73339C8.29589 10.1801 7.92089 9.80488 7.92089 9.3671C7.92089 8.92933 8.29589 8.61664 8.73339 8.61664H15.2334C15.6709 8.61664 16.0459 8.99187 16.0459 9.3671C16.0459 9.80488 15.6709 10.1801 15.2334 10.1801Z" fill="#202939"/>
</svg>
