<svg width="24" height="24" viewBox="0 0 24 24" fill="none" xmlns="http://www.w3.org/2000/svg">
<path opacity="0.4" fill-rule="evenodd" clip-rule="evenodd" d="M12 2.5C6.762 2.5 2.5 6.761 2.5 12C2.5 17.238 6.762 21.5 12 21.5C17.238 21.5 21.5 17.238 21.5 12C21.5 6.761 17.238 2.5 12 2.5Z" fill="#1C1C1C"/>
<path fill-rule="evenodd" clip-rule="evenodd" d="M15.9931 10.2222L11.3751 14.8402C11.2281 14.9872 11.0371 15.0602 10.8451 15.0602C10.6521 15.0602 10.4611 14.9872 10.3141 14.8402L8.00515 12.5312C7.71215 12.2382 7.71215 11.7632 8.00515 11.4702C8.29815 11.1772 8.77215 11.1772 9.06515 11.4702L10.8451 13.2492L14.9321 9.16116C15.2251 8.86816 15.7001 8.86816 15.9931 9.16116C16.2861 9.45416 16.2861 9.92916 15.9931 10.2222Z" fill="#1C1C1C"/>
</svg>
