<svg width="24" height="24" viewBox="0 0 24 24" fill="none" xmlns="http://www.w3.org/2000/svg">
<path opacity="0.4" fill-rule="evenodd" clip-rule="evenodd" d="M16.8929 4.38282C16.7729 4.34737 16.6553 4.43697 16.6374 4.56081C16.4646 5.75695 15.4286 6.68126 14.1901 6.68126H9.81007C8.57168 6.68126 7.52694 5.75709 7.35293 4.56109C7.3349 4.43717 7.21714 4.34755 7.09711 4.38323C5.34578 4.90375 4.07007 6.53566 4.07007 8.46126V17.3613C4.07007 19.7013 5.97007 21.6113 8.32007 21.6113H15.6801C18.0301 21.6113 19.9301 19.7013 19.9301 17.3613V8.46126C19.9301 6.53515 18.6537 4.90289 16.8929 4.38282Z" fill="#202939"/>
<path fill-rule="evenodd" clip-rule="evenodd" d="M9.81003 5.48062H14.1901C14.8701 5.48062 15.4301 4.94063 15.4501 4.26064C15.4601 4.24064 15.4601 4.22063 15.4601 4.20063V3.66062C15.4601 2.96062 14.8901 2.39062 14.1901 2.39062H9.81003C9.11003 2.39062 8.53003 2.96062 8.53003 3.66062V4.20063C8.53003 4.22063 8.53003 4.23063 8.54003 4.25063C8.56003 4.94062 9.13003 5.48062 9.81003 5.48062Z" fill="#202939"/>
<path fill-rule="evenodd" clip-rule="evenodd" d="M15.02 12.1699H8.97998C8.56998 12.1699 8.22998 11.8299 8.22998 11.4199C8.22998 10.9999 8.56998 10.6699 8.97998 10.6699H15.02C15.43 10.6699 15.77 10.9999 15.77 11.4199C15.77 11.8299 15.43 12.1699 15.02 12.1699ZM15.02 16.6499H8.97998C8.56998 16.6499 8.22998 16.3099 8.22998 15.8999C8.22998 15.4899 8.56998 15.1499 8.97998 15.1499H15.02C15.43 15.1499 15.77 15.4899 15.77 15.8999C15.77 16.3099 15.43 16.6499 15.02 16.6499Z" fill="#202939"/>
</svg>
