<svg width="24" height="24" viewBox="0 0 24 24" fill="none" xmlns="http://www.w3.org/2000/svg">
<g opacity="0.4">
<path fill-rule="evenodd" clip-rule="evenodd" d="M5.28495 7.8034C5.57967 7.8034 5.87055 7.66804 6.05871 7.41268C6.41679 6.92788 6.83343 6.48244 7.29903 6.08884C7.70415 5.74612 7.75407 5.14036 7.41231 4.7362C7.06959 4.33108 6.46383 4.2802 6.05967 4.62292C5.47983 5.11252 4.95951 5.66836 4.51311 6.27412C4.19823 6.70132 4.28943 7.30228 4.71663 7.61621C4.88751 7.74293 5.08719 7.8034 5.28495 7.8034Z" fill="#1C1C1C"/>
<path fill-rule="evenodd" clip-rule="evenodd" d="M16.9667 18.0493C15.7609 18.992 14.3219 19.5469 12.8013 19.6534C12.0457 19.712 11.2864 19.6573 10.5472 19.4912C10.0326 19.375 9.51614 19.7005 9.39998 20.2179C9.28382 20.7354 9.60925 21.249 10.1267 21.3651C10.8131 21.5187 11.5129 21.5965 12.2128 21.5965C12.4557 21.5965 12.6995 21.5869 12.9424 21.5686C14.8393 21.4342 16.6403 20.7411 18.1485 19.5622C18.567 19.2358 18.6409 18.632 18.3145 18.2144C17.9872 17.7968 17.3843 17.7238 16.9667 18.0493Z" fill="#1C1C1C"/>
<path fill-rule="evenodd" clip-rule="evenodd" d="M5.16188 15.0491C4.9478 14.5643 4.3814 14.3454 3.8966 14.5566C3.41084 14.7707 3.191 15.3371 3.40412 15.8228C4.11932 17.4462 5.26844 18.8401 6.73052 19.8539C6.89756 19.9691 7.08764 20.0248 7.27676 20.0248C7.58108 20.0248 7.87964 19.8808 8.06588 19.612C8.36828 19.1761 8.26076 18.578 7.82396 18.2756C6.65468 17.4644 5.73404 16.3489 5.16188 15.0491Z" fill="#1C1C1C"/>
<path fill-rule="evenodd" clip-rule="evenodd" d="M3.67815 13.5131C4.20711 13.4737 4.60359 13.0129 4.56423 12.4849C4.49991 11.6238 4.58631 10.754 4.81959 9.90058C4.95975 9.38986 4.65831 8.8609 4.14759 8.7217C3.63495 8.57866 3.10791 8.88202 2.96775 9.3937C2.67687 10.4593 2.56935 11.547 2.64999 12.627C2.68743 13.1319 3.10791 13.5159 3.60615 13.5159C3.63015 13.5159 3.65415 13.515 3.67815 13.5131Z" fill="#1C1C1C"/>
<path fill-rule="evenodd" clip-rule="evenodd" d="M11.8378 2.40951C11.3079 2.42967 10.8951 2.87607 10.9153 3.40599C10.9364 3.93591 11.3953 4.34967 11.9108 4.32855C16.1425 4.15191 19.7271 7.47831 19.8893 11.71C19.9479 13.2326 19.5514 14.7244 18.7421 16.0233C18.4628 16.4736 18.6001 17.0659 19.0503 17.3462C19.2087 17.4441 19.3834 17.4902 19.5572 17.4902C19.8778 17.4902 20.1908 17.3299 20.3732 17.038C21.385 15.4118 21.8804 13.5446 21.8074 11.6361C21.6049 6.34647 17.1437 2.22519 11.8378 2.40951Z" fill="#1C1C1C"/>
</g>
<path fill-rule="evenodd" clip-rule="evenodd" d="M12.1626 7.80347C11.6327 7.80347 11.2026 8.23355 11.2026 8.76347V12.2291C11.2026 12.567 11.3802 12.8809 11.6702 13.0537L14.3562 14.6569C14.5108 14.7491 14.6807 14.7923 14.8478 14.7923C15.1742 14.7923 15.4929 14.6253 15.6734 14.3248C15.9441 13.8688 15.7962 13.2803 15.3412 13.0077L13.1226 11.6838V8.76347C13.1226 8.23355 12.6926 7.80347 12.1626 7.80347Z" fill="#1C1C1C"/>
</svg>
