<svg width="24" height="24" viewBox="0 0 24 24" fill="none" xmlns="http://www.w3.org/2000/svg">
<path opacity="0.4" fill-rule="evenodd" clip-rule="evenodd" d="M22 12C22 17.5228 17.5228 22 12 22C6.47715 22 2 17.5228 2 12C2 6.47715 6.47715 2 12 2C17.5228 2 22 6.47715 22 12ZM15.3301 15.82C15.4501 15.9 15.5801 15.93 15.7101 15.93C15.9601 15.93 16.2101 15.8 16.3601 15.56C16.5701 15.2 16.4601 14.74 16.1001 14.53L13.0001 12.68C12.6901 12.5 12.3901 11.97 12.3901 11.61V7.51001C12.3901 7.10001 12.0501 6.76001 11.6401 6.76001C11.2301 6.76001 10.8901 7.10001 10.8901 7.51001V11.61C10.8901 12.5 11.4601 13.51 12.2301 13.97L15.3301 15.82Z" fill="#202939"/>
</svg>
