<svg width="24" height="24" viewBox="0 0 24 24" fill="none" xmlns="http://www.w3.org/2000/svg">
<g opacity="0.4">
<path fill-rule="evenodd" clip-rule="evenodd" d="M8.77079 4.64675C8.92823 4.74467 9.10295 4.79075 9.27479 4.79075C9.59639 4.79075 9.91032 4.62947 10.0918 4.33571L10.0985 4.32611C10.3778 3.87491 10.2348 3.28835 9.78456 3.00899C9.33239 2.73059 8.73911 2.87459 8.45975 3.32579C8.18039 3.77603 8.31959 4.36739 8.77079 4.64675Z" fill="#1C1C1C"/>
<path fill-rule="evenodd" clip-rule="evenodd" d="M6.48042 6.73921L6.48522 6.72961C6.71274 6.25057 6.5073 5.68321 6.02826 5.45473C5.55114 5.22625 4.97514 5.43553 4.74666 5.91457C4.51914 6.39265 4.7217 6.96577 5.20074 7.19329C5.33418 7.25665 5.47434 7.28641 5.61354 7.28641C5.97162 7.28641 6.31626 7.08481 6.48042 6.73921Z" fill="#1C1C1C"/>
<path fill-rule="evenodd" clip-rule="evenodd" d="M3.64781 11.2708C3.98093 11.2708 4.30541 11.0971 4.48205 10.787L4.48781 10.7774C4.75085 10.3166 4.58765 9.73584 4.12781 9.47184C3.66701 9.20976 3.07757 9.37392 2.81549 9.83472C2.55245 10.2945 2.71181 10.8811 3.17261 11.1441C3.32237 11.2305 3.48653 11.2708 3.64781 11.2708Z" fill="#1C1C1C"/>
<path fill-rule="evenodd" clip-rule="evenodd" d="M4.3791 13.8699C3.92406 13.5972 3.33174 13.7499 3.0591 14.2039C2.78646 14.658 2.93334 15.2484 3.38838 15.5211C3.54294 15.6132 3.71286 15.6574 3.88086 15.6574C4.20726 15.6574 4.52502 15.4913 4.7055 15.1918L4.71126 15.1822C4.9839 14.7281 4.83414 14.1425 4.3791 13.8699Z" fill="#1C1C1C"/>
<path fill-rule="evenodd" clip-rule="evenodd" d="M6.70411 17.4725C6.23083 17.2353 5.65099 17.4321 5.41387 17.9064C5.17675 18.3806 5.36875 18.9576 5.84299 19.1947C5.98123 19.2638 6.12715 19.2955 6.27115 19.2955C6.62443 19.2955 6.96331 19.1016 7.13131 18.7656L7.13611 18.756C7.37323 18.2817 7.17835 17.7096 6.70411 17.4725Z" fill="#1C1C1C"/>
<path fill-rule="evenodd" clip-rule="evenodd" d="M12.1641 2.40002H12.1621C11.6332 2.40002 11.2031 2.82818 11.2021 3.3581C11.2012 3.88802 11.6303 4.31906 12.1602 4.32002C16.3948 4.32866 19.8354 7.77794 19.8297 12.0087C19.8268 14.0602 19.0252 15.9888 17.5727 17.4384C16.1241 18.8842 14.2012 19.68 12.1545 19.68H12.1381C11.1849 19.68 10.2623 19.5082 9.39543 19.1693C8.90007 18.9773 8.34424 19.2211 8.15128 19.7146C7.95928 20.209 8.20311 20.7648 8.69655 20.9587C9.79382 21.3859 10.918 21.5808 12.1564 21.6C14.7129 21.6 17.1177 20.6045 18.9292 18.7978C20.7445 16.9853 21.7458 14.5757 21.7497 12.0115C21.7573 6.72194 17.4565 2.41058 12.1641 2.40002Z" fill="#1C1C1C"/>
</g>
<path fill-rule="evenodd" clip-rule="evenodd" d="M11.3936 13.4667L14.4569 15.3003C14.6115 15.3924 14.7814 15.4366 14.9494 15.4366C15.2748 15.4366 15.5936 15.2705 15.7731 14.97C16.0457 14.515 15.8979 13.9255 15.4428 13.6529L12.847 12.0987V8.68778C12.847 8.15786 12.4169 7.72778 11.887 7.72778C11.3561 7.72778 10.927 8.15786 10.927 8.68778V12.643C10.927 12.9809 11.1036 13.2929 11.3936 13.4667Z" fill="#1C1C1C"/>
</svg>
