<svg width="24" height="24" viewBox="0 0 24 24" fill="none" xmlns="http://www.w3.org/2000/svg">
<path opacity="0.4" fill-rule="evenodd" clip-rule="evenodd" d="M5.45627 8.98315H18.0227C18.4835 8.98315 18.7619 9.27115 18.7331 9.73195C18.6851 10.4423 18.6275 11.1527 18.5699 11.8535C18.5123 12.5351 18.0323 17.9015 17.9651 18.5351C17.8691 19.3799 17.5523 20.1095 16.8419 20.6279C16.3811 20.9447 15.8627 21.0983 15.3059 21.1079C13.8371 21.1271 9.12347 21.1271 8.23067 21.1079C6.88667 21.0887 5.86907 20.2631 5.60987 18.9383C5.52347 18.5159 4.88987 11.2583 4.82267 10.4711C4.81646 10.3906 4.80926 10.309 4.80203 10.227C4.78687 10.0552 4.77156 9.88175 4.76507 9.71275C4.74587 9.29035 5.03387 8.98315 5.45627 8.98315Z" fill="#1C1C1C"/>
<path fill-rule="evenodd" clip-rule="evenodd" d="M19.1265 5.8272H16.1544C15.899 5.8272 15.6792 5.6496 15.6245 5.40096L15.3461 4.13184C15.1493 3.39552 14.4782 2.88 13.7141 2.88H9.72717C8.96298 2.88 8.29098 3.39456 8.0865 4.1616L7.81578 5.40768C7.76298 5.65248 7.54698 5.8272 7.29642 5.8272H4.39434C3.92682 5.8272 3.54858 6.20544 3.54858 6.672C3.54858 7.13952 3.92682 7.51776 4.39434 7.51776H19.1265C19.5931 7.51776 19.9713 7.13952 19.9713 6.672C19.9713 6.20544 19.5931 5.8272 19.1265 5.8272Z" fill="#1C1C1C"/>
</svg>
