<svg width="24" height="24" viewBox="0 0 24 24" fill="none" xmlns="http://www.w3.org/2000/svg">
<path fill-rule="evenodd" clip-rule="evenodd" d="M6.18188 6.9873H17.8188C18.2328 6.9873 18.5688 6.6513 18.5688 6.2373C18.5688 5.8233 18.2328 5.4873 17.8188 5.4873H6.18188C5.76788 5.4873 5.43188 5.8233 5.43188 6.2373C5.43188 6.6513 5.76788 6.9873 6.18188 6.9873Z" fill="#202939"/>
<path fill-rule="evenodd" clip-rule="evenodd" d="M8.71899 3.875H15.281C15.696 3.875 16.031 3.539 16.031 3.125C16.031 2.711 15.696 2.375 15.281 2.375H8.71899C8.30499 2.375 7.96899 2.711 7.96899 3.125C7.96899 3.539 8.30499 3.875 8.71899 3.875Z" fill="#202939"/>
<path opacity="0.4" fill-rule="evenodd" clip-rule="evenodd" d="M17.2374 8.83984H6.76246C4.66046 8.83984 2.94946 10.5508 2.94946 12.6528V17.8088C2.94946 19.9118 4.66046 21.6228 6.76246 21.6228H17.2374C19.3404 21.6228 21.0504 19.9118 21.0504 17.8088V12.6528C21.0504 10.5508 19.3404 8.83984 17.2374 8.83984Z" fill="#202939"/>
</svg>
