<svg width="24" height="24" viewBox="0 0 24 24" fill="none" xmlns="http://www.w3.org/2000/svg">
<path d="M3.83593 13.7969H2.58594C2.26207 13.7969 2 14.0589 2 14.3828V21.414C2 21.7379 2.26207 22 2.58594 22H3.83593C4.80523 22 5.59374 21.2115 5.59374 20.2422V15.5547C5.59374 14.5854 4.80527 13.7969 3.83593 13.7969Z" fill="#202939"/>
<path opacity="0.4" d="M21.8241 14.9336C21.7538 14.8164 21.6601 14.7226 21.5546 14.6406C21.1232 14.2632 20.3963 14.2988 19.9726 14.7578L17.3124 17.8281L17.2304 17.9218C16.9023 18.2851 16.4335 18.4844 15.9414 18.4844H11.3945C11.0664 18.4844 10.8086 18.2265 10.8086 17.8985C10.8086 17.5703 11.0664 17.3125 11.3945 17.3125H14.9687C15.6133 17.3125 16.1406 16.7852 16.1406 16.1406V16.1289C16.1289 15.4844 15.6133 14.9688 14.9687 14.9688H12.8476C12.4962 14.9688 12.1197 14.8397 11.8164 14.582C10.3868 13.3281 8.30078 13.2461 6.76562 14.3125V21.5195C7.92578 21.8359 9.12109 22 10.3281 22H15.5547C16.8437 22 18.0625 21.3906 18.8359 20.3593L21.6484 16.6094C22.0587 16.0707 22.0897 15.3321 21.8241 14.9336Z" fill="#202939"/>
<path d="M17.7113 3.13261C17.0614 2.40223 16.1605 2 15.1746 2C14.0741 2 13.1202 2.52035 12.4159 3.50476C12.3631 3.57855 12.3137 3.65238 12.2674 3.72543C12.2212 3.65234 12.1717 3.57855 12.1189 3.50476C11.4147 2.52035 10.4607 2 9.36027 2C8.37433 2 7.47343 2.40223 6.82359 3.13258C6.20687 3.8257 5.86719 4.7523 5.86719 5.74171C5.86719 6.8169 6.28441 7.80905 7.18011 8.86413C7.96171 9.78463 9.08277 10.7308 10.3808 11.8265C10.8605 12.2313 11.3566 12.65 11.8837 13.1069C11.9938 13.2023 12.1306 13.25 12.2674 13.25C12.4042 13.25 12.541 13.2023 12.6512 13.1069C13.1782 12.6501 13.6742 12.2315 14.1538 11.8267C14.9875 11.123 15.7075 10.5153 16.3322 9.92588C17.5452 8.78143 18.6677 7.48241 18.6677 5.74175C18.6677 4.75234 18.328 3.82574 17.7113 3.13261Z" fill="#202939"/>
</svg>
