<svg width="24" height="24" viewBox="0 0 24 24" fill="none" xmlns="http://www.w3.org/2000/svg">
<path opacity="0.4" d="M2.87988 16.3089C2.87988 18.4871 4.64557 20.2527 6.82367 20.2527H17.1761C19.3542 20.2527 21.1199 18.4871 21.1199 16.3089V11.8376C21.1199 9.65947 19.3542 7.8938 17.1761 7.8938H6.82367C4.64557 7.8938 2.87988 9.65947 2.87988 11.8376V16.3089Z" fill="#202939"/>
<path fill-rule="evenodd" clip-rule="evenodd" d="M12.7201 13.4535L14.1409 12.0327C14.4193 11.7543 14.8705 11.7543 15.1585 12.0327C15.4369 12.3111 15.4369 12.7719 15.1585 13.0503L12.5089 15.7095C12.4609 15.7575 12.4129 15.7959 12.3553 15.8247C12.3553 15.8343 12.3553 15.8343 12.3457 15.8343C12.3169 15.8439 12.2977 15.8631 12.2689 15.8727C12.1921 15.9015 12.1057 15.9207 12.0193 15.9207H11.9809C11.8945 15.9207 11.8081 15.9015 11.7313 15.8727C11.6737 15.8439 11.6257 15.8151 11.5777 15.7863C11.5489 15.7575 11.5201 15.7383 11.4913 15.7095L8.84161 13.0503C8.56321 12.7719 8.56321 12.3111 8.84161 12.0327C9.12961 11.7543 9.58081 11.7543 9.86881 12.0327L11.2801 13.4535V4.00003C11.2801 3.60239 11.6024 3.28003 12.0001 3.28003C12.3977 3.28003 12.7201 3.60239 12.7201 4.00003V13.4535Z" fill="#202939"/>
</svg>
