<svg width="24" height="24" viewBox="0 0 24 24" fill="none" xmlns="http://www.w3.org/2000/svg">
<path d="M1.80005 11.7353C1.80005 7.75319 5.14415 1.79993 12.0072 1.79993C18.8606 1.79993 22.2 6.86069 22.2 10.4215C22.2 13.2795 19.9413 15.3848 17.1041 15.3848C14.9392 15.3848 13.6571 14.6667 13.6571 14.0945C13.6571 13.7243 14.5521 13.1576 14.5521 12.0637C14.5521 10.7555 13.5392 9.44381 11.9792 9.44381C10.4828 9.44381 9.44243 10.6892 9.44243 11.9454C9.44243 14.9809 12.3137 17.8838 16.5472 17.8838C19.0763 17.8838 19.9943 16.9515 20.3228 16.9515C20.4227 16.9515 20.6527 16.9923 20.6527 17.259C20.6527 17.514 17.8548 22.1989 12.0133 22.1989C6.20237 22.1999 1.80005 17.6217 1.80005 11.7353Z" fill="#1DE9B6"/>
<path d="M1.80005 11.7351C1.80005 7.75305 5.68367 5.59473 8.29235 5.59473C15.1463 5.59473 17.1037 6.86103 17.1037 10.4218C17.1037 13.2799 14.5521 13.1585 14.5521 12.0646C14.5521 10.7564 13.5392 9.44469 11.9792 9.44469C10.4828 9.44469 9.44243 10.6901 9.44243 11.9463C9.44243 14.9818 12.3137 17.8847 16.5472 17.8847C19.0763 17.8847 19.9943 16.9524 20.3228 16.9524C20.4227 16.9524 20.6527 16.9932 20.6527 17.2599C20.6527 17.5149 17.8548 22.1998 12.0133 22.1998C6.20237 22.1998 1.80005 17.6215 1.80005 11.7351Z" fill="url(#paint0_radial_2022_17616)"/>
<path d="M9.44228 11.9461C9.44228 10.7741 10.3476 9.61287 11.6838 9.46191C9.59072 9.63993 7.19678 11.6932 7.19678 15.4958C7.19678 19.5569 10.6974 22.3629 14.3077 21.936C18.5845 20.9532 20.6526 17.4786 20.6526 17.2603C20.6526 16.9936 20.4226 16.9528 20.3226 16.9528C19.9947 16.9528 19.0762 17.8851 16.5471 17.8851C12.3136 17.8851 9.44228 14.9822 9.44228 11.9461Z" fill="url(#paint1_radial_2022_17616)"/>
<path d="M1.80005 11.7353C1.80005 7.75319 5.14415 1.79993 12.0072 1.79993C18.8606 1.79993 22.2 6.86069 22.2 10.4214C22.2 13.2795 19.9413 15.3848 17.1041 15.3848C14.9392 15.3848 13.6571 14.6667 13.6571 14.0945C13.6571 13.7242 14.5521 13.1576 14.5521 12.0636C14.5521 10.7555 13.4933 6.61787 8.11181 6.61787C6.61547 6.61841 2.44061 7.27991 1.80005 11.7353Z" fill="url(#paint2_radial_2022_17616)"/>
<defs>
<radialGradient id="paint0_radial_2022_17616" cx="0" cy="0" r="1" gradientUnits="userSpaceOnUse" gradientTransform="translate(8.93651 16.5138) scale(10.8875 12.0666)">
<stop offset="0.652" stop-color="#0083DE"/>
<stop offset="0.822" stop-color="#006AAC"/>
<stop offset="0.944" stop-color="#005A8C"/>
</radialGradient>
<radialGradient id="paint1_radial_2022_17616" cx="0" cy="0" r="1" gradientUnits="userSpaceOnUse" gradientTransform="translate(14.0818 14.7083) scale(8.40378 8.4273)">
<stop offset="0.69" stop-color="#05509B"/>
<stop offset="0.717" stop-color="#054E98"/>
<stop offset="1" stop-color="#033E78"/>
</radialGradient>
<radialGradient id="paint2_radial_2022_17616" cx="0" cy="0" r="1" gradientUnits="userSpaceOnUse" gradientTransform="translate(24.0605 7.94872) rotate(180) scale(31.3813 47.3356)">
<stop stop-color="#5EEB69"/>
<stop offset="0.214" stop-color="#4BC958"/>
<stop offset="0.225" stop-color="#4AC862"/>
<stop offset="0.272" stop-color="#47C68B"/>
<stop offset="0.323" stop-color="#44C4AE"/>
<stop offset="0.376" stop-color="#41C2CB"/>
<stop offset="0.433" stop-color="#3FC1E1"/>
<stop offset="0.495" stop-color="#3EC0F1"/>
<stop offset="0.565" stop-color="#3DBFFA"/>
<stop offset="0.664" stop-color="#3DBFFD"/>
</radialGradient>
</defs>
</svg>
