<svg width="24" height="24" viewBox="0 0 24 24" fill="none" xmlns="http://www.w3.org/2000/svg">
<path opacity="0.4" fill-rule="evenodd" clip-rule="evenodd" d="M17.4727 10.1762C17.3652 10.1239 17.2367 10.1353 17.1433 10.2099L12.9002 13.6C12.4002 14 11.8002 14.2 11.1002 14.2C10.5002 14.2 9.9002 14 9.30019 13.6L5.3002 10.3C5.0002 10 4.9002 9.6 5.2002 9.2C5.5002 8.8 5.9002 8.8 6.3002 9.1L10.3002 12.3C10.8002 12.7 11.5002 12.7 11.9002 12.3C11.9002 12.3 14.8386 9.95611 15.7034 9.26535C15.8346 9.16062 15.8446 8.97673 15.7361 8.84871C14.9691 7.94381 14.5002 6.77915 14.5002 5.5C14.5002 5.11628 14.5541 4.74752 14.6398 4.3902C14.6867 4.1944 14.543 4 14.3416 4H6.8002C3.9002 4 1.7002 6.4 1.7002 9.5V15.7C1.7002 17.3 2.3002 18.8 3.3002 19.8C4.2002 20.7 5.4002 21.2 6.8002 21.2H15.6002C16.9002 21.2 18.1002 20.7 19.1002 19.8C20.1002 18.8 20.7002 17.3 20.7002 15.7V10.963C20.7002 10.7743 20.5281 10.6331 20.341 10.6574C20.1309 10.6847 19.9172 10.7 19.7002 10.7C18.8983 10.7 18.1481 10.5047 17.4727 10.1762Z" fill="#202939"/>
<path d="M17.1428 10.2099L12.8997 13.5999C12.3997 13.9999 11.7997 14.1999 11.0997 14.1999C10.4997 14.1999 9.89969 13.9999 9.29969 13.5999L5.29969 10.2999C4.99969 9.99993 4.89969 9.59993 5.19969 9.19993C5.49969 8.79993 5.89969 8.79993 6.29969 9.09993L10.2997 12.2999C10.7997 12.6999 11.4997 12.6999 11.8997 12.2999C11.8997 12.2999 14.8381 9.95603 15.703 9.26528C15.8341 9.16054 15.8441 8.97666 15.7356 8.84863C16.4489 9.60097 17.1689 10.0366 17.4563 10.169C17.3522 10.1251 17.2316 10.1389 17.1428 10.2099Z" fill="#202939"/>
<path fill-rule="evenodd" clip-rule="evenodd" d="M19.5 2.7998C18 2.7998 16.7 4.0998 16.7 5.5998C16.7 7.0998 18 8.39981 19.5 8.39981C21 8.39981 22.2999 7.0998 22.2999 5.5998C22.2999 4.0998 21 2.7998 19.5 2.7998Z" fill="#202939"/>
</svg>
