<svg width="24" height="24" viewBox="0 0 24 24" fill="none" xmlns="http://www.w3.org/2000/svg">
<g filter="url(#filter0_d_2022_17621)">
<g style="mix-blend-mode:multiply" opacity="0.2">
<g style="mix-blend-mode:multiply" opacity="0.2">
<g style="mix-blend-mode:multiply">
<path d="M20.388 3.34766H7.40399C6.95663 3.34766 6.59399 3.71032 6.59399 4.15768V19.8477C6.59399 20.295 6.95663 20.6577 7.40399 20.6577H20.388C20.8354 20.6577 21.198 20.295 21.198 19.8477V4.15768C21.198 3.71032 20.8354 3.34766 20.388 3.34766Z" fill="white"/>
</g>
</g>
</g>
<g style="mix-blend-mode:multiply" opacity="0.12">
<g style="mix-blend-mode:multiply" opacity="0.12">
<g style="mix-blend-mode:multiply">
<path d="M20.388 3.34766H7.40399C6.95663 3.34766 6.59399 3.7103 6.59399 4.15766V19.8477C6.59399 20.295 6.95663 20.6577 7.40399 20.6577H20.388C20.8354 20.6577 21.198 20.295 21.198 19.8477V4.15766C21.198 3.7103 20.8354 3.34766 20.388 3.34766Z" fill="white"/>
</g>
</g>
</g>
<path d="M14.1661 3.34741H7.40412C7.29804 3.34741 7.19298 3.3684 7.09506 3.40918C6.99708 3.44996 6.90822 3.50972 6.83346 3.58501C6.7587 3.66032 6.6996 3.74966 6.65958 3.84788C6.6195 3.94616 6.59934 4.05134 6.60012 4.15742V7.67342H14.1661V3.34741Z" fill="#21A366"/>
<path d="M20.4 3.34741H14.166V7.67342H21.192V4.15742C21.1936 3.9452 21.1113 3.74096 20.9629 3.58923C20.8146 3.4375 20.6122 3.35057 20.4 3.34741Z" fill="#33C481"/>
<path d="M21.198 11.999H14.166V16.325H21.198V11.999Z" fill="#107C41"/>
<path d="M14.1661 16.325V11.999H6.60012V19.841C6.59928 19.9476 6.61974 20.0533 6.66012 20.1519C6.70056 20.2506 6.7602 20.3402 6.83556 20.4156C6.91092 20.4909 7.00056 20.5506 7.0992 20.591C7.19784 20.6314 7.3035 20.6518 7.41012 20.651H20.4001C20.5067 20.6518 20.6124 20.6314 20.711 20.591C20.8097 20.5506 20.8993 20.4909 20.9746 20.4156C21.05 20.3402 21.1097 20.2506 21.1501 20.1519C21.1905 20.0533 21.2109 19.9476 21.2101 19.841V16.325H14.1661Z" fill="#185C37"/>
<path d="M14.166 7.67383H6.59399V11.9998H14.166V7.67383Z" fill="#107C41"/>
<path d="M21.198 7.67383H14.166V11.9998H21.198V7.67383Z" fill="#21A366"/>
</g>
<g style="mix-blend-mode:multiply" opacity="0.48">
<g style="mix-blend-mode:multiply" opacity="0.48">
<g style="mix-blend-mode:multiply">
<path d="M11.19 7.13477H3.07196C2.62461 7.13477 2.26196 7.49741 2.26196 7.94477V16.0628C2.26196 16.5101 2.62461 16.8728 3.07196 16.8728H11.19C11.6373 16.8728 12 16.5101 12 16.0628V7.94477C12 7.49741 11.6373 7.13477 11.19 7.13477Z" fill="white"/>
</g>
</g>
</g>
<g style="mix-blend-mode:multiply" opacity="0.24">
<g style="mix-blend-mode:multiply" opacity="0.24">
<g style="mix-blend-mode:multiply">
<path d="M11.19 7.13477H3.07196C2.62461 7.13477 2.26196 7.49741 2.26196 7.94477V16.0628C2.26196 16.5101 2.62461 16.8728 3.07196 16.8728H11.19C11.6373 16.8728 12 16.5101 12 16.0628V7.94477C12 7.49741 11.6373 7.13477 11.19 7.13477Z" fill="white"/>
</g>
</g>
</g>
<g filter="url(#filter1_d_2022_17621)">
<path d="M11.19 7.13477H3.07196C2.62461 7.13477 2.26196 7.49741 2.26196 7.94477V16.0628C2.26196 16.5101 2.62461 16.8728 3.07196 16.8728H11.19C11.6373 16.8728 12 16.5101 12 16.0628V7.94477C12 7.49741 11.6373 7.13477 11.19 7.13477Z" fill="#107C41"/>
<path style="mix-blend-mode:soft-light" opacity="0.5" d="M11.19 7.13477H3.07196C2.62461 7.13477 2.26196 7.49742 2.26196 7.94477V16.0628C2.26196 16.5101 2.62461 16.8728 3.07196 16.8728H11.19C11.6373 16.8728 12 16.5101 12 16.0628V7.94477C12 7.49742 11.6373 7.13477 11.19 7.13477Z" fill="url(#paint0_linear_2022_17621)"/>
<path d="M4.7998 14.6352L6.48581 12.0012L4.9198 9.36719H6.1798L7.03181 11.0472C7.1098 11.2032 7.1638 11.3232 7.1938 11.4012C7.2478 11.2752 7.30781 11.1492 7.36781 11.0292L8.2798 9.36719H9.4378L7.8418 12.0012L9.4858 14.6592H8.2858L7.2958 12.8172C7.2508 12.7386 7.2127 12.6563 7.1818 12.5712C7.15313 12.6553 7.1149 12.7358 7.0678 12.8112L5.9998 14.6352H4.7998Z" fill="white"/>
</g>
<defs>
<filter id="filter0_d_2022_17621" x="5.39399" y="3.34741" width="17.0162" height="19.7103" filterUnits="userSpaceOnUse" color-interpolation-filters="sRGB">
<feFlood flood-opacity="0" result="BackgroundImageFix"/>
<feColorMatrix in="SourceAlpha" type="matrix" values="0 0 0 0 0 0 0 0 0 0 0 0 0 0 0 0 0 0 127 0" result="hardAlpha"/>
<feOffset dy="1.2"/>
<feGaussianBlur stdDeviation="0.6"/>
<feComposite in2="hardAlpha" operator="out"/>
<feColorMatrix type="matrix" values="0 0 0 0 0 0 0 0 0 0 0 0 0 0 0 0 0 0 0.12 0"/>
<feBlend mode="normal" in2="BackgroundImageFix" result="effect1_dropShadow_2022_17621"/>
<feBlend mode="normal" in="SourceGraphic" in2="effect1_dropShadow_2022_17621" result="shape"/>
</filter>
<filter id="filter1_d_2022_17621" x="2.26196" y="7.13477" width="12.138" height="12.138" filterUnits="userSpaceOnUse" color-interpolation-filters="sRGB">
<feFlood flood-opacity="0" result="BackgroundImageFix"/>
<feColorMatrix in="SourceAlpha" type="matrix" values="0 0 0 0 0 0 0 0 0 0 0 0 0 0 0 0 0 0 127 0" result="hardAlpha"/>
<feOffset dx="1.2" dy="1.2"/>
<feGaussianBlur stdDeviation="0.6"/>
<feComposite in2="hardAlpha" operator="out"/>
<feColorMatrix type="matrix" values="0 0 0 0 0 0 0 0 0 0 0 0 0 0 0 0 0 0 0.22 0"/>
<feBlend mode="normal" in2="BackgroundImageFix" result="effect1_dropShadow_2022_17621"/>
<feBlend mode="normal" in="SourceGraphic" in2="effect1_dropShadow_2022_17621" result="shape"/>
</filter>
<linearGradient id="paint0_linear_2022_17621" x1="3.95396" y1="6.49877" x2="10.308" y2="17.5028" gradientUnits="userSpaceOnUse">
<stop stop-color="white" stop-opacity="0.5"/>
<stop offset="1" stop-opacity="0.7"/>
</linearGradient>
</defs>
</svg>
