<svg width="24" height="24" viewBox="0 0 24 24" fill="none" xmlns="http://www.w3.org/2000/svg">
<path d="M13.5418 4.12568V9.20312L10.4574 14.4131H5.67949C5.13709 14.4131 4.64749 14.1126 4.40077 13.6297C4.15501 13.1468 4.19917 12.5737 4.51885 12.135L10.946 3.28184C11.3185 2.7692 11.9473 2.56376 12.5502 2.76056C13.153 2.95544 13.5418 3.49112 13.5418 4.12568Z" fill="#1C1C1C"/>
<path opacity="0.4" d="M10.4407 19.4872V14.4097L13.5252 9.19983H18.3031C18.8455 9.19983 19.3351 9.50031 19.5818 9.98318C19.8276 10.4661 19.7834 11.0392 19.4637 11.4779L13.0365 20.331C12.664 20.8437 12.0352 21.0491 11.4324 20.8523C10.8295 20.6574 10.4407 20.1217 10.4407 19.4872Z" fill="#1C1C1C"/>
</svg>
