<svg width="24" height="24" viewBox="0 0 24 24" fill="none" xmlns="http://www.w3.org/2000/svg">
<path opacity="0.4" fill-rule="evenodd" clip-rule="evenodd" d="M20.72 8.05412L16.245 3.39212C15.697 2.82312 14.929 2.49512 14.139 2.49512H7.81496C4.65596 2.49512 2.53296 4.71612 2.53296 8.02112V15.9691C2.53296 18.5907 3.88156 20.5087 6.01122 21.1977C6.13656 21.2382 6.26196 21.1425 6.26196 21.0107V16.2691C6.26196 14.3201 7.50796 13.2021 9.68096 13.2021H14.383C16.557 13.2021 17.803 14.3201 17.803 16.2691V21.0108C17.803 21.1425 17.9284 21.2382 18.0537 21.1977C20.1843 20.5088 21.533 18.5907 21.533 15.9691V10.0751C21.533 9.31712 21.244 8.59912 20.72 8.05412Z" fill="#1C1C1C"/>
<path d="M13.9372 8.84521H8.40625C7.99225 8.84521 7.65625 8.50921 7.65625 8.09521C7.65625 7.68121 7.99225 7.34521 8.40625 7.34521H13.9372C14.3512 7.34521 14.6872 7.68121 14.6872 8.09521C14.6872 8.50921 14.3512 8.84521 13.9372 8.84521Z" fill="#1C1C1C"/>
<path d="M14.3832 14.7031C16.0712 14.7031 16.3032 15.4561 16.3032 16.2701C16.3032 17.1404 16.3037 18.0109 16.3042 18.8813C16.3047 19.6847 16.3051 20.488 16.3052 21.2911C16.3052 21.4016 16.2176 21.4911 16.1071 21.491C14.833 21.4903 9.10499 21.4845 7.96128 21.4833C7.8509 21.4832 7.76221 21.3937 7.76221 21.2833V16.2701C7.76221 15.4561 7.99421 14.7031 9.68121 14.7031H14.3832Z" fill="#1C1C1C"/>
</svg>
