<svg width="24" height="24" viewBox="0 0 24 24" fill="none" xmlns="http://www.w3.org/2000/svg">
<path d="M22.65 18.13C22.55 17.7299 22.15 17.4799 21.75 17.5799C21.35 17.6799 21.1 18.08 21.19 18.48C21.23 18.65 21.25 18.8199 21.25 18.9999C21.25 20.2399 20.24 21.2499 19 21.2499C17.76 21.2499 16.75 20.2399 16.75 18.9999C16.75 17.8999 17.54 16.99 18.59 16.79C18.49 17.02 18.5 17.2999 18.66 17.5199C18.81 17.7199 19.04 17.8299 19.27 17.8299C19.42 17.8299 19.58 17.7799 19.71 17.6899L20.88 16.8399C20.89 16.8299 20.89 16.82 20.9 16.82C20.91 16.81 20.92 16.8099 20.93 16.7999C20.96 16.7699 20.98 16.74 21 16.7C21.03 16.66 21.07 16.6299 21.09 16.5799C21.11 16.5399 21.12 16.49 21.14 16.45C21.15 16.4 21.17 16.3599 21.18 16.3099C21.19 16.2599 21.18 16.22 21.17 16.17C21.17 16.12 21.17 16.0699 21.15 16.0199C21.14 15.9699 21.11 15.93 21.09 15.89C21.07 15.85 21.06 15.8099 21.04 15.7799C21.03 15.7699 21.02 15.77 21.01 15.76C21 15.75 21 15.74 20.99 15.73L19.99 14.5799C19.72 14.2699 19.24 14.23 18.93 14.51C18.71 14.71 18.63 14.9999 18.71 15.2699C16.78 15.4199 15.25 17.0199 15.25 18.9899C15.25 21.0599 16.93 22.7399 19 22.7399C21.07 22.7399 22.75 21.0599 22.75 18.9899C22.75 18.7099 22.72 18.41 22.65 18.13Z" fill="#202939"/>
<path d="M2.03 14.63C2.03 14.66 2.01001 14.7 2.01001 14.73C2.93001 16.57 4.42999 18.08 6.26999 18.99C6.29999 18.99 6.33999 18.97 6.37 18.97C6.02999 17.81 5.76999 16.62 5.57999 15.43C4.37999 15.23 3.19 14.97 2.03 14.63Z" fill="#202939"/>
<path d="M19.0701 6.42993C18.1301 4.45993 16.5401 2.86994 14.5801 1.93994C14.9401 3.12994 15.2401 4.34995 15.4401 5.56995C16.6601 5.76995 17.8801 6.05993 19.0701 6.42993Z" fill="#202939"/>
<path d="M1.92993 6.43002C3.12993 6.07002 4.34995 5.77004 5.56995 5.57004C5.76995 4.38004 6.01992 3.20004 6.35992 2.04004C6.32992 2.04004 6.28995 2.02002 6.25995 2.02002C4.37995 2.95002 2.84993 4.52002 1.92993 6.43002Z" fill="#202939"/>
<path opacity="0.4" d="M13.8199 5.35999C13.5799 4.05999 13.2799 2.76 12.8499 1.5C12.8299 1.43 12.8299 1.37001 12.8199 1.29001C12.0799 1.11001 11.2999 0.98999 10.4999 0.98999C9.68994 0.98999 8.91995 1.10001 8.16995 1.29001C8.15995 1.36001 8.16993 1.42 8.14993 1.5C7.72993 2.76 7.41993 4.05999 7.17993 5.35999C9.38993 5.11999 11.6099 5.11999 13.8199 5.35999Z" fill="#202939"/>
<path d="M5.35999 7.17993C4.04999 7.41993 2.76 7.71993 1.5 8.14993C1.43 8.16993 1.37001 8.16993 1.29001 8.17993C1.11001 8.91993 0.98999 9.69994 0.98999 10.4999C0.98999 11.3099 1.10001 12.0799 1.29001 12.8299C1.36001 12.8399 1.42 12.8299 1.5 12.8499C2.76 13.2699 4.04999 13.5799 5.35999 13.8199C5.11999 11.6099 5.11999 9.38993 5.35999 7.17993Z" fill="#202939"/>
<path d="M19.6999 8.17993C19.6299 8.17993 19.5699 8.16993 19.4899 8.14993C18.2299 7.72993 16.9299 7.41993 15.6299 7.17993C15.8799 9.38993 15.8799 11.6099 15.6299 13.8099C16.9299 13.5699 18.2299 13.2699 19.4899 12.8399C19.5599 12.8199 19.6199 12.8299 19.6999 12.8199C19.8799 12.0699 19.9999 11.2999 19.9999 10.4899C19.9999 9.69993 19.8899 8.92993 19.6999 8.17993Z" fill="#202939"/>
<path opacity="0.4" d="M7.17993 15.64C7.41993 16.95 7.71993 18.24 8.14993 19.5C8.16993 19.57 8.15995 19.63 8.16995 19.71C8.91995 19.89 9.68994 20.01 10.4999 20.01C11.2999 20.01 12.0799 19.9 12.8199 19.71C12.8299 19.64 12.8299 19.58 12.8499 19.5C13.2699 18.24 13.5799 16.95 13.8199 15.64C12.7199 15.76 11.6099 15.85 10.4999 15.85C9.38994 15.84 8.27993 15.76 7.17993 15.64Z" fill="#202939"/>
<path opacity="0.4" d="M6.9501 6.94998C6.6501 9.30998 6.6501 11.69 6.9501 14.06C9.3101 14.36 11.6901 14.36 14.0601 14.06C14.3601 11.7 14.3601 9.31998 14.0601 6.94998C11.6901 6.64998 9.3101 6.64998 6.9501 6.94998Z" fill="#202939"/>
</svg>
