<svg width="24" height="24" viewBox="0 0 24 24" fill="none" xmlns="http://www.w3.org/2000/svg">
<path opacity="0.4" fill-rule="evenodd" clip-rule="evenodd" d="M19.6699 7.80006L14.3188 3.44262C13.0142 2.37606 11.1192 2.37702 9.81547 3.44166L4.46632 7.7991C3.63016 8.47686 3.15112 9.48198 3.15112 10.5572V17.45C3.15112 19.6043 4.90408 21.3572 7.06024 21.3572H17.074C19.2292 21.3572 20.9832 19.6043 20.9832 17.45V10.5572C20.9832 9.48198 20.5041 8.47686 19.6699 7.80006Z" fill="#202939"/>
<path fill-rule="evenodd" clip-rule="evenodd" d="M15.3383 13.6051V17.0851C15.3383 17.4826 15.0157 17.8051 14.6183 17.8051C14.2209 17.8051 13.8983 17.4826 13.8983 17.0851V13.6051C13.1005 13.3085 12.5274 12.5482 12.5313 11.6582C12.5389 10.5005 13.4788 9.56836 14.6269 9.56836C15.7837 9.58276 16.7111 10.5235 16.7025 11.6659C16.6967 12.5549 16.1274 13.3085 15.3383 13.6051ZM10.9828 17.2118C10.593 17.5949 10.0775 17.8051 9.53035 17.8051C8.98219 17.8051 8.43787 17.593 8.03851 17.1917C7.64587 16.7952 7.43083 16.2672 7.43563 15.7066C7.43851 15.1488 7.66123 14.6256 8.06059 14.233C8.27467 14.0237 8.52907 13.8749 8.80267 13.776V10.2883C8.80267 9.89092 9.12523 9.56836 9.52267 9.56836C9.92007 9.56836 10.2426 9.89092 10.2426 10.2883V13.7712C10.5229 13.8739 10.7821 14.0314 11.0001 14.2493C11.3937 14.6448 11.6087 15.168 11.6068 15.7248C11.6029 16.297 11.3812 16.8211 10.9828 17.2118ZM9.52115 15.0784H9.51347C9.34739 15.0784 9.18995 15.1428 9.06995 15.2608C8.94515 15.3828 8.87699 15.545 8.87603 15.7168C8.87411 15.8925 8.94035 16.0557 9.06131 16.1776C9.18323 16.2996 9.35027 16.361 9.52115 16.3648C9.69783 16.3648 9.85527 16.3005 9.97527 16.1834C10.0972 16.0634 10.1653 15.9012 10.1663 15.7274C10.1673 15.5488 10.101 15.3876 9.98007 15.2656C9.85719 15.1428 9.68727 15.0765 9.52115 15.0784ZM15.2627 11.6567C15.2598 12.0119 14.9689 12.3018 14.6118 12.3037C14.2566 12.297 13.9695 12.01 13.9715 11.6557C13.9734 11.2929 14.2614 11.0077 14.6175 11.0077C14.9756 11.0125 15.2655 11.3034 15.2627 11.6567Z" fill="#202939"/>
</svg>
