<svg width="24" height="24" viewBox="0 0 24 24" fill="none" xmlns="http://www.w3.org/2000/svg">
<path opacity="0.4" fill-rule="evenodd" clip-rule="evenodd" d="M5.88094 15.809C7.19806 14.7194 8.5891 15.3059 9.7075 15.7763C10.3526 16.048 11.0198 16.3293 11.639 16.3293C12.2285 16.3293 12.937 15.3309 13.5629 14.4506C14.4528 13.1968 15.3725 11.9008 16.7635 11.9008C18.2332 11.9008 19.5736 12.7637 20.619 13.6636C20.8104 13.8283 21.1142 13.6957 21.1142 13.4431V7.99841C21.12 6.42593 20.5997 5.03585 19.6512 4.08353C18.744 3.17249 17.4998 2.69153 16.0531 2.69153H7.95262C4.9219 2.69153 2.88574 4.82369 2.88574 7.99649V15.6218C2.88574 16.5422 3.06688 17.3676 3.38732 18.0837C3.47441 18.2784 3.73654 18.2925 3.86233 18.1203C4.46593 17.2943 5.13755 16.519 5.88094 15.809Z" fill="#1C1C1C"/>
<path d="M9.08352 6.54004C10.34 6.54004 11.3631 7.56222 11.3649 8.81781V8.8205C11.3649 10.0788 10.3418 11.1019 9.08352 11.1019C7.82704 11.1019 6.80396 10.0788 6.80396 8.8205C6.80396 7.56311 7.82704 6.54004 9.08352 6.54004Z" fill="#1C1C1C"/>
<path d="M14.7367 15.2831C15.3835 14.3723 16.1168 13.34 16.7646 13.34C18.415 13.34 19.7954 14.7769 20.8852 15.9113C20.9188 15.9464 20.9521 15.981 20.9851 16.0154C21.0417 16.0742 21.071 16.1548 21.0638 16.2361C20.8131 19.0596 18.8733 20.9259 16.0474 20.9259H7.9527C6.66222 20.9259 5.56531 20.5246 4.71763 19.8333C4.6079 19.7438 4.58803 19.5856 4.66723 19.4682C5.30486 18.523 6.03467 17.6518 6.83718 16.8843C7.38438 16.4321 7.96134 16.603 9.14886 17.1032C9.88902 17.4152 10.7281 17.7684 11.6391 17.7684C12.9716 17.7684 13.8692 16.5051 14.7361 15.284L14.7367 15.2831Z" fill="#1C1C1C"/>
</svg>
