<svg width="24" height="24" viewBox="0 0 24 24" fill="none" xmlns="http://www.w3.org/2000/svg">
<path opacity="0.4" fill-rule="evenodd" clip-rule="evenodd" d="M10.7707 3.90939C10.7707 3.68279 10.7851 3.46042 10.8089 3.24061C10.8279 3.06594 10.6937 2.91003 10.5181 2.91003H7.80719C4.77071 2.91003 2.73071 5.03931 2.73071 8.21019V14.0322C2.73071 14.2675 2.9975 14.4034 3.18788 14.2653L6.25295 12.0405C8.05871 10.7292 10.4923 10.8416 12.1714 12.3162L14.8735 14.7404C14.9701 14.8269 15.1124 14.8383 15.222 14.7689C15.6523 14.4963 16.2248 14.1492 16.8879 13.7898C18.3486 13.0033 19.5658 13.3557 20.4919 13.9313C20.6945 14.0572 20.9707 13.9193 20.9707 13.6806V10.4824C20.9707 10.2644 20.7369 10.124 20.5383 10.214C19.6695 10.6074 18.705 10.8271 17.6885 10.8271C13.8677 10.8271 10.7707 7.72923 10.7707 3.90939Z" fill="#1C1C1C"/>
<path fill-rule="evenodd" clip-rule="evenodd" d="M21.0583 2.68789C20.777 2.40661 20.321 2.40661 20.0397 2.68789L16.6394 6.08821L15.1946 4.64245C14.9133 4.36117 14.4573 4.36117 14.176 4.64245C13.8948 4.92373 13.8948 5.37877 14.176 5.66005L16.1306 7.61461C16.2717 7.75573 16.4551 7.82581 16.6394 7.82581C16.8247 7.82581 17.008 7.75573 17.1492 7.61461L21.0583 3.70645C21.3396 3.42517 21.3396 2.96917 21.0583 2.68789Z" fill="#1C1C1C"/>
<path fill-rule="evenodd" clip-rule="evenodd" d="M7.07433 13.2523L2.92137 16.2667L2.91824 16.2689C2.80909 16.3462 2.71764 16.4573 2.73225 16.5903C3.03382 19.3352 4.95796 21.1406 7.74249 21.1406H15.8411C16.8629 21.1406 17.7692 20.894 18.5243 20.4497C18.6841 20.3556 18.6974 20.135 18.5594 20.0112L11.2369 13.4414C10.059 12.4075 8.34537 12.3288 7.07433 13.2523Z" fill="#1C1C1C"/>
<path fill-rule="evenodd" clip-rule="evenodd" d="M17.6436 15.1198C17.2361 15.3413 16.8568 15.5623 16.5285 15.761C16.3644 15.8604 16.3444 16.0897 16.4871 16.2178L19.6171 19.0267C19.7431 19.1398 19.9396 19.1207 20.0317 18.9787C20.5281 18.2137 20.8281 17.276 20.8838 16.2014C20.8881 16.1176 20.8539 16.0365 20.7917 15.98C19.7812 15.0638 18.8872 14.4519 17.6436 15.1198Z" fill="#1C1C1C"/>
</svg>
