<svg width="24" height="24" viewBox="0 0 24 24" fill="none" xmlns="http://www.w3.org/2000/svg">
<path opacity="0.4" fill-rule="evenodd" clip-rule="evenodd" d="M7.20003 6.00004V17.52C7.20003 18.0509 6.76995 18.48 6.24003 18.48C5.71011 18.48 5.28003 18.0509 5.28003 17.52V6.00004C5.28003 5.46916 5.71011 5.04004 6.24003 5.04004C6.76995 5.04004 7.20003 5.46916 7.20003 6.00004Z" fill="#1C1C1C"/>
<path fill-rule="evenodd" clip-rule="evenodd" d="M18.7203 5.99979C18.7203 6.24555 18.6263 6.49131 18.4391 6.67851L13.3577 11.7598L18.4391 16.841C18.8145 17.2164 18.8145 17.8231 18.4391 18.1985C18.0637 18.5738 17.4569 18.5738 17.0817 18.1985L11.3216 12.4385C10.9462 12.0632 10.9462 11.4564 11.3216 11.081L17.0816 5.32107C17.4569 4.94571 18.0637 4.94571 18.439 5.32107C18.6263 5.50827 18.7203 5.75403 18.7203 5.99979Z" fill="#1C1C1C"/>
</svg>
