<svg width="24" height="24" viewBox="0 0 24 24" fill="none" xmlns="http://www.w3.org/2000/svg">
<g style="mix-blend-mode:multiply" opacity="0.2">
<g style="mix-blend-mode:multiply" opacity="0.2">
<g style="mix-blend-mode:multiply">
<path d="M8.15259 17.4189C7.92807 17.4214 7.71051 17.4974 7.53333 17.6352C7.35609 17.7731 7.22895 17.9653 7.17147 18.1824C7.11393 18.3994 7.12917 18.6293 7.21485 18.8369C7.30053 19.0445 7.45191 19.2182 7.64577 19.3315L11.2668 21.3842C11.565 21.5538 11.9023 21.6428 12.2454 21.6424C12.4299 21.6423 12.6135 21.6155 12.7904 21.5627L18.2379 20.0104C18.6442 19.8936 19.0016 19.6481 19.2563 19.3106C19.511 18.9732 19.6491 18.5621 19.6499 18.1394V17.4189H8.15259Z" fill="white"/>
</g>
</g>
</g>
<g style="mix-blend-mode:multiply" opacity="0.12">
<g style="mix-blend-mode:multiply" opacity="0.12">
<g style="mix-blend-mode:multiply">
<path d="M8.15259 17.4189C7.92807 17.4214 7.71051 17.4974 7.53333 17.6352C7.35609 17.7731 7.22895 17.9653 7.17147 18.1824C7.11393 18.3994 7.12917 18.6293 7.21485 18.8369C7.30053 19.0445 7.45191 19.2182 7.64577 19.3315L11.2668 21.3842C11.565 21.5538 11.9023 21.6428 12.2454 21.6424C12.4299 21.6423 12.6135 21.6155 12.7904 21.5627L18.2379 20.0104C18.6442 19.8936 19.0016 19.6481 19.2563 19.3106C19.511 18.9732 19.6491 18.5621 19.6499 18.1394V17.4189H8.15259Z" fill="white"/>
</g>
</g>
</g>
<g filter="url(#filter0_d_2022_17645)">
<path d="M12.7681 2.43738L14.2311 5.78424V17.4186L12.7904 21.5624L18.2378 20.0101C18.6441 19.8933 19.0015 19.6477 19.2562 19.3103C19.5109 18.9728 19.649 18.5618 19.6499 18.139V5.86074C19.6501 5.4369 19.5119 5.02458 19.2565 4.6863C19.0011 4.34802 18.6423 4.10238 18.2346 3.98652L12.7681 2.43738Z" fill="url(#paint0_linear_2022_17645)"/>
</g>
<path d="M5.86072 17.2947L7.4545 16.434C7.67308 16.3139 7.8553 16.1372 7.98202 15.9224C8.1088 15.7076 8.1754 15.4626 8.17486 15.2132V8.94977C8.17516 8.66447 8.26306 8.38613 8.42668 8.15243C8.5903 7.91867 8.82172 7.74083 9.08968 7.64291L14.2311 5.78459V4.37255C14.2305 3.93491 14.0874 3.50932 13.8234 3.16024C13.5594 2.81115 13.189 2.55752 12.768 2.43772C12.5888 2.38625 12.4031 2.36049 12.2166 2.36122C11.8658 2.36203 11.5211 2.45314 11.2157 2.62579L5.33164 5.98223C5.03344 6.15215 4.78558 6.39791 4.61314 6.69461C4.4407 6.99137 4.34986 7.32839 4.34986 7.67159V16.3926C4.34944 16.5701 4.39516 16.7447 4.48258 16.8992C4.57 17.0536 4.69612 17.1827 4.84852 17.2737C5.00092 17.3647 5.17438 17.4144 5.35186 17.4182C5.52934 17.4218 5.70472 17.3793 5.86072 17.2947Z" fill="url(#paint1_linear_2022_17645)"/>
<path d="M14.2311 17.4189H8.15259C7.92807 17.4214 7.71051 17.4974 7.53333 17.6352C7.35609 17.7731 7.22895 17.9653 7.17147 18.1824C7.11393 18.3994 7.12917 18.6293 7.21485 18.8369C7.30053 19.0445 7.45191 19.2182 7.64577 19.3315L11.2668 21.3842C11.565 21.5538 11.9023 21.6428 12.2454 21.6424C12.4299 21.6423 12.6135 21.6155 12.7904 21.5627C13.2062 21.4446 13.572 21.1938 13.8321 20.8485C14.0922 20.5033 14.2323 20.0825 14.2311 19.6502V17.4189Z" fill="url(#paint2_linear_2022_17645)"/>
<path d="M5.86072 17.2947L7.4545 16.434C7.67308 16.3139 7.8553 16.1372 7.98202 15.9224C8.1088 15.7076 8.1754 15.4626 8.17486 15.2132V8.94977C8.17516 8.66447 8.26306 8.38613 8.42668 8.15243C8.5903 7.91867 8.82172 7.74083 9.08968 7.64291L14.2311 5.78459V4.37255C14.2305 3.93491 14.0874 3.50932 13.8234 3.16024C13.5594 2.81115 13.189 2.55752 12.768 2.43772C12.5888 2.38625 12.4031 2.36049 12.2166 2.36122C11.8658 2.36203 11.5211 2.45314 11.2157 2.62579L5.33164 5.98223C5.03344 6.15215 4.78558 6.39791 4.61314 6.69461C4.4407 6.99137 4.34986 7.32839 4.34986 7.67159V16.3926C4.34944 16.5701 4.39516 16.7447 4.48258 16.8992C4.57 17.0536 4.69612 17.1827 4.84852 17.2737C5.00092 17.3647 5.17438 17.4144 5.35186 17.4182C5.52934 17.4218 5.70472 17.3793 5.86072 17.2947Z" fill="url(#paint3_linear_2022_17645)"/>
<path d="M14.2311 17.4189H8.15259C7.92807 17.4214 7.71051 17.4974 7.53333 17.6352C7.35609 17.7731 7.22895 17.9653 7.17147 18.1824C7.11393 18.3994 7.12917 18.6293 7.21485 18.8369C7.30053 19.0445 7.45191 19.2182 7.64577 19.3315L11.2668 21.3842C11.565 21.5538 11.9023 21.6428 12.2454 21.6424C12.4299 21.6423 12.6135 21.6155 12.7904 21.5627C13.2062 21.4446 13.572 21.1938 13.8321 20.8485C14.0922 20.5033 14.2323 20.0825 14.2311 19.6502V17.4189Z" fill="url(#paint4_linear_2022_17645)"/>
<defs>
<filter id="filter0_d_2022_17645" x="11.5681" y="2.43738" width="9.28184" height="21.525" filterUnits="userSpaceOnUse" color-interpolation-filters="sRGB">
<feFlood flood-opacity="0" result="BackgroundImageFix"/>
<feColorMatrix in="SourceAlpha" type="matrix" values="0 0 0 0 0 0 0 0 0 0 0 0 0 0 0 0 0 0 127 0" result="hardAlpha"/>
<feOffset dy="1.2"/>
<feGaussianBlur stdDeviation="0.6"/>
<feComposite in2="hardAlpha" operator="out"/>
<feColorMatrix type="matrix" values="0 0 0 0 0 0 0 0 0 0 0 0 0 0 0 0 0 0 0.12 0"/>
<feBlend mode="normal" in2="BackgroundImageFix" result="effect1_dropShadow_2022_17645"/>
<feBlend mode="normal" in="SourceGraphic" in2="effect1_dropShadow_2022_17645" result="shape"/>
</filter>
<linearGradient id="paint0_linear_2022_17645" x1="16.2074" y1="1.34725" x2="16.2074" y2="20.2237" gradientUnits="userSpaceOnUse">
<stop stop-color="#FFB900"/>
<stop offset="0.17" stop-color="#EF8400"/>
<stop offset="0.31" stop-color="#E25C01"/>
<stop offset="0.43" stop-color="#DB4401"/>
<stop offset="0.5" stop-color="#D83B01"/>
</linearGradient>
<linearGradient id="paint1_linear_2022_17645" x1="12.8031" y1="2.01379" x2="2.80711" y2="16.2874" gradientUnits="userSpaceOnUse">
<stop stop-color="#800600"/>
<stop offset="0.6" stop-color="#C72127"/>
<stop offset="0.73" stop-color="#C13959"/>
<stop offset="0.85" stop-color="#BC4B81"/>
<stop offset="0.94" stop-color="#B95799"/>
<stop offset="1" stop-color="#B85BA2"/>
</linearGradient>
<linearGradient id="paint2_linear_2022_17645" x1="7.69677" y1="19.5323" x2="20.7464" y2="19.5323" gradientUnits="userSpaceOnUse">
<stop stop-color="#F32B44"/>
<stop offset="0.6" stop-color="#A4070A"/>
</linearGradient>
<linearGradient id="paint3_linear_2022_17645" x1="13.0071" y1="1.72372" x2="10.8906" y2="4.74545" gradientUnits="userSpaceOnUse">
<stop stop-opacity="0.4"/>
<stop offset="1" stop-opacity="0"/>
</linearGradient>
<linearGradient id="paint4_linear_2022_17645" x1="16.5644" y1="19.8255" x2="10.7217" y2="19.3155" gradientUnits="userSpaceOnUse">
<stop stop-opacity="0.4"/>
<stop offset="1" stop-opacity="0"/>
</linearGradient>
</defs>
</svg>
