<svg width="24" height="24" viewBox="0 0 24 24" fill="none" xmlns="http://www.w3.org/2000/svg">
<path opacity="0.4" fill-rule="evenodd" clip-rule="evenodd" d="M22.1611 10.3995V16.1931C22.1611 18.8352 20.007 21 17.3649 21H6.80682C4.16466 21 2 18.8352 2 16.1931V10.3995C2 7.7467 4.16466 5.59265 6.80682 5.59265H17.3649C20.007 5.59265 22.1611 7.7467 22.1611 10.3995Z" fill="#202939"/>
<path fill-rule="evenodd" clip-rule="evenodd" d="M13.8846 13.9124C13.1535 14.5735 12.295 15.1125 11.4132 15.4669C11.2169 15.5444 11.0429 15.554 10.9368 15.4871C10.819 15.4181 10.7819 15.2484 10.7713 15.172C10.6482 13.9708 10.6482 12.8067 10.7691 11.7265C10.784 11.6141 10.8275 11.4644 10.9495 11.3944C11.0036 11.3636 11.0684 11.3477 11.1405 11.3477C11.2191 11.3477 11.3061 11.3668 11.3941 11.404C12.3449 11.8008 13.1821 12.3261 13.8846 12.9659C14.0002 13.071 14.1382 13.2376 14.1382 13.437C14.1382 13.6355 14.0002 13.8042 13.8846 13.9124ZM12.0053 9.93433C11.374 9.67011 10.6981 9.70194 10.1526 10.016C9.6189 10.3248 9.27722 10.8596 9.18915 11.5355C9.05331 12.741 9.05331 14.0207 9.19021 15.3523C9.27298 16.0124 9.60405 16.545 10.1208 16.8538C10.419 17.0321 10.7554 17.1212 11.1108 17.1212C11.3973 17.1212 11.6966 17.0639 11.9979 16.9472C13.0622 16.5196 14.0851 15.8776 14.9542 15.0903C14.9563 15.0881 14.9573 15.0871 14.9595 15.086C15.4571 14.6287 15.7309 14.0419 15.7298 13.4339C15.7288 12.8269 15.4539 12.2422 14.9563 11.7891C14.1191 11.0262 13.1269 10.4023 12.0053 9.93433Z" fill="#202939"/>
<path fill-rule="evenodd" clip-rule="evenodd" d="M17.4491 2.39751L13.8732 5.59145H10.3291L6.83805 2.3869C6.50911 2.08979 6.48789 1.58046 6.785 1.26212C7.08211 0.93318 7.59144 0.911958 7.90977 1.20907L12.0905 5.03967L16.388 1.20907C16.717 0.911958 17.2157 0.943791 17.5128 1.27274C17.7993 1.59107 17.7781 2.1004 17.4491 2.39751Z" fill="#202939"/>
</svg>
