<svg width="24" height="24" viewBox="0 0 24 24" fill="none" xmlns="http://www.w3.org/2000/svg">
<path d="M18.071 16.8707L13.3887 21.553C13.184 21.7581 12.9409 21.9209 12.6732 22.0319C12.4055 22.1429 12.1186 22.2 11.8288 22.2C11.5391 22.2 11.2521 22.1429 10.9845 22.0319C10.7168 21.9209 10.4737 21.7581 10.269 21.553L5.58559 16.8707C4.35098 15.636 3.51021 14.063 3.1696 12.3505C2.829 10.638 3.00386 8.86293 3.67206 7.24979C4.34027 5.63666 5.47181 4.2579 6.92361 3.28785C8.3754 2.31781 10.0822 1.80005 11.8283 1.80005C13.5743 1.80005 15.2812 2.31781 16.733 3.28785C18.1848 4.2579 19.3163 5.63666 19.9845 7.24979C20.6527 8.86293 20.8276 10.638 20.487 12.3505C20.1464 14.063 19.3056 15.636 18.071 16.8707Z" stroke="#697586" stroke-width="2.2" stroke-linecap="round" stroke-linejoin="round"/>
<path d="M14.169 12.9686C14.4905 12.6645 14.7477 12.299 14.9256 11.8938C15.1034 11.4887 15.1982 11.0519 15.2043 10.6095C15.2105 10.167 15.1279 9.72779 14.9614 9.3178C14.7949 8.90781 14.5479 8.53536 14.235 8.22246C13.9221 7.90957 13.5496 7.66257 13.1397 7.49608C12.7297 7.32959 12.2905 7.24697 11.848 7.25313C11.4055 7.25928 10.9688 7.35407 10.5636 7.5319C10.1584 7.70973 9.79297 7.96699 9.4889 8.28847C8.88584 8.91285 8.55215 9.74912 8.5597 10.6172C8.56724 11.4852 8.91541 12.3155 9.52922 12.9293C10.143 13.5432 10.9734 13.8913 11.8414 13.8989C12.7094 13.9064 13.5457 13.5727 14.1701 12.9697L14.169 12.9686Z" stroke="#697586" stroke-width="2.2" stroke-linecap="round" stroke-linejoin="round"/>
</svg>
