<svg width="24" height="24" viewBox="0 0 24 24" fill="none" xmlns="http://www.w3.org/2000/svg">
<path opacity="0.4" fill-rule="evenodd" clip-rule="evenodd" d="M19.5598 11.0738C19.2198 10.3637 18.6398 9.78375 17.9198 9.43375C17.6998 9.33375 17.4698 9.25375 17.1998 9.20375C16.7998 9.13375 16.3198 9.10375 15.6998 9.10375C15.3998 9.09375 15.0698 9.09375 14.6998 9.09375H9.29984C8.92984 9.09375 8.59984 9.09375 8.29984 9.10375C7.67984 9.10375 7.19984 9.13375 6.79984 9.20375C6.52984 9.25375 6.29984 9.33375 6.07984 9.43375C5.35984 9.78375 4.77984 10.3637 4.43984 11.0838C4.08984 11.8038 4.08984 12.6337 4.08984 14.3038V16.4338C4.08984 18.1038 4.08984 18.9338 4.43984 19.6637C4.78984 20.3837 5.36984 20.9637 6.07984 21.2937C6.79984 21.6438 7.62984 21.6438 9.29984 21.6438H14.6998C16.3698 21.6438 17.1998 21.6438 17.9198 21.2937C18.6298 20.9637 19.2098 20.3837 19.5598 19.6637C19.9098 18.9338 19.9098 18.1038 19.9098 16.4338V14.3038C19.9098 12.6337 19.9098 11.8038 19.5598 11.0738Z" fill="#202939"/>
<path d="M17.1998 9.20547V7.48547C17.1698 4.64547 14.8398 2.35547 11.9998 2.35547H11.9398C9.10981 2.39547 6.8498 4.63547 6.7998 7.47547V9.20547C7.1998 9.13547 7.6798 9.10547 8.2998 9.10547V7.48547C8.3398 5.47547 9.9398 3.88547 11.9598 3.85547H11.9998C14.0198 3.85547 15.6698 5.48547 15.6998 7.49547V9.10547C16.3198 9.10547 16.7998 9.13547 17.1998 9.20547Z" fill="#202939"/>
<path fill-rule="evenodd" clip-rule="evenodd" d="M15.4448 16.3052C14.8879 16.3052 14.4339 15.8522 14.4339 15.2942C14.4339 14.7382 14.8879 14.2842 15.4448 14.2842C16.0018 14.2842 16.4549 14.7382 16.4549 15.2942C16.4549 15.8522 16.0018 16.3052 15.4448 16.3052ZM12.0018 16.3052C11.4448 16.3052 10.9918 15.8522 10.9918 15.2942C10.9918 14.7382 11.4448 14.2842 12.0018 14.2842C12.5598 14.2842 13.0128 14.7382 13.0128 15.2942C13.0128 15.8522 12.5598 16.3052 12.0018 16.3052ZM8.55787 16.3052C8.00087 16.3052 7.54688 15.8522 7.54688 15.2942C7.54688 14.7382 8.00087 14.2842 8.55787 14.2842C9.11487 14.2842 9.56888 14.7382 9.56888 15.2942C9.56888 15.8522 9.11487 16.3052 8.55787 16.3052Z" fill="#202939"/>
</svg>
