<svg width="24" height="24" viewBox="0 0 24 24" fill="none" xmlns="http://www.w3.org/2000/svg">
<path opacity="0.4" d="M1.95532 6.00003C1.95532 3.87926 3.67455 2.16003 5.79532 2.16003H11.8381C13.9588 2.16003 15.6781 3.87926 15.6781 6.00003V17.5181C15.6781 19.6389 13.9588 21.3581 11.8381 21.3581H5.79533C3.67456 21.3581 1.95532 19.6389 1.95532 17.5181C1.95532 16.3077 1.95532 6.0808 1.95532 6.00003Z" fill="#202939"/>
<path d="M18.0341 8.59904L21.7423 11.0819L21.7534 11.0923C21.9393 11.2649 22.0449 11.507 22.0449 11.7606C22.0449 12.0143 21.9393 12.2564 21.7534 12.429L21.7423 12.4394L18.0342 14.9222C17.6646 15.2536 17.0963 15.2287 16.7572 14.8636C16.6346 14.7315 16.5583 14.5724 16.5282 14.407L16.5251 14.3896L16.531 12.6728L11.1688 12.673C10.6652 12.673 10.2568 12.2647 10.2568 11.7611C10.2568 11.2574 10.6651 10.849 11.1687 10.849L16.5301 10.8488L16.5171 9.19618L16.5181 9.18576C16.5374 8.99513 16.6169 8.80872 16.7572 8.65765C17.0963 8.2925 17.6646 8.26766 18.0341 8.59904Z" fill="#202939"/>
</svg>
