<svg width="24" height="24" viewBox="0 0 24 24" fill="none" xmlns="http://www.w3.org/2000/svg">
<path d="M6.28695 10.8228C7.52555 8.77815 9.22833 7.41666 11.1268 7.11201L10.7901 18.5765L10.787 18.6795H10.89H12.9153H13.0175L13.0153 18.5774L12.7748 7.11234C14.6736 7.42443 16.3727 8.78613 17.6075 10.8289C18.8668 12.9124 19.6366 15.6953 19.6366 18.7607C19.6366 19.0708 19.6206 19.3813 19.6043 19.6948L19.5989 19.8H19.7042H21.5513H21.644L21.651 19.7075C21.6836 19.2765 21.6999 18.8456 21.6999 18.3982C21.6999 14.9686 20.7062 11.8462 19.0793 9.52313C17.4715 7.22742 15.241 5.7074 12.7377 5.45432L12.7075 4.19754L12.7051 4.09995L12.6075 4.09995L11.3275 4.09996L11.2299 4.09996L11.2275 4.19755L11.1972 5.45524C6.19294 6.01311 2.2999 11.6222 2.2999 18.3982C2.2999 18.8456 2.3162 19.2765 2.34879 19.7075L2.35579 19.8H2.44851H4.18218H4.28749L4.28205 19.6948C4.26582 19.3813 4.24978 19.0708 4.24978 18.7607C4.24978 15.6954 5.02361 12.9084 6.28695 10.8228Z" fill="#202939" stroke="#202939" stroke-width="0.2"/>
</svg>
