<svg width="24" height="24" viewBox="0 0 24 24" fill="none" xmlns="http://www.w3.org/2000/svg">
<path fill-rule="evenodd" clip-rule="evenodd" d="M9.47696 2.53193C9.40596 2.50593 9.33496 2.56093 9.33496 2.63593V19.5119C9.33496 19.5579 9.35796 19.5969 9.40096 19.6119C9.94896 19.8109 13.737 21.1849 14.521 21.4689C14.593 21.4949 14.663 21.4409 14.663 21.3649V4.48893C14.663 4.44293 14.64 4.40393 14.597 4.38893C14.049 4.18993 10.261 2.81593 9.47696 2.53193Z" fill="#1C1C1C"/>
<g opacity="0.4">
<path fill-rule="evenodd" clip-rule="evenodd" d="M20.9338 3.10229C20.4228 2.77029 19.7868 2.72029 19.2288 2.96729L16.2278 4.30129C16.1888 4.31829 16.1628 4.35829 16.1628 4.40129V21.3103C16.1628 21.3893 16.2428 21.4423 16.3158 21.4113C17.0468 21.0883 20.1658 19.7093 20.1658 19.7093C21.1278 19.2813 21.7498 18.3253 21.7498 17.2723V4.60729C21.7498 3.99729 21.4448 3.43429 20.9338 3.10229Z" fill="#1C1C1C"/>
<path fill-rule="evenodd" clip-rule="evenodd" d="M7.68324 2.59042C6.95224 2.91342 3.83424 4.29142 3.83424 4.29142C2.87224 4.72042 2.25024 5.67742 2.25024 6.73142V19.3944C2.25024 20.0044 2.55624 20.5684 3.06724 20.9004C3.57824 21.2324 4.21424 21.2824 4.77224 21.0344L7.77024 19.7014C7.81024 19.6834 7.83524 19.6444 7.83524 19.6014V2.69142C7.83524 2.61242 7.75524 2.55842 7.68324 2.59042Z" fill="#1C1C1C"/>
</g>
</svg>
