<svg width="24" height="24" viewBox="0 0 24 24" fill="none" xmlns="http://www.w3.org/2000/svg">
<path d="M6.21789 9.17162V9.1102M5.96899 9.15842C5.96899 9.02016 6.08116 8.90808 6.21942 8.90808C6.35767 8.90808 6.46969 9.02016 6.46969 9.15842C6.46969 9.29667 6.35767 9.40875 6.21942 9.40875C6.08116 9.40875 5.96899 9.29667 5.96899 9.15842Z" stroke="#1C1C1C" stroke-width="1.44" stroke-linecap="round" stroke-linejoin="round"/>
<path d="M6.21789 15.3853V15.3239M5.96899 15.3722C5.96899 15.234 6.08116 15.1218 6.21942 15.1218C6.35767 15.1218 6.46969 15.234 6.46969 15.3722C6.46969 15.5104 6.35767 15.6225 6.21942 15.6225C6.08116 15.6225 5.96899 15.5104 5.96899 15.3722Z" stroke="#1C1C1C" stroke-width="1.44" stroke-linecap="round" stroke-linejoin="round"/>
<path d="M11.9983 9.17162V9.1102M11.7495 9.15842C11.7495 9.02016 11.8616 8.90808 11.9999 8.90808C12.1382 8.90808 12.2502 9.02016 12.2502 9.15842C12.2502 9.29667 12.1382 9.40875 11.9999 9.40875C11.8616 9.40875 11.7495 9.29667 11.7495 9.15842Z" stroke="#1C1C1C" stroke-width="1.44" stroke-linecap="round" stroke-linejoin="round"/>
<path d="M11.9983 15.3853V15.3239M11.7495 15.3722C11.7495 15.234 11.8616 15.1218 11.9999 15.1218C12.1382 15.1218 12.2502 15.234 12.2502 15.3722C12.2502 15.5104 12.1382 15.6225 11.9999 15.6225C11.8616 15.6225 11.7495 15.5104 11.7495 15.3722Z" stroke="#1C1C1C" stroke-width="1.44" stroke-linecap="round" stroke-linejoin="round"/>
<path d="M17.7791 9.17162V9.1102M17.5303 9.15842C17.5303 9.02016 17.6424 8.90808 17.7806 8.90808C17.9189 8.90808 18.0309 9.02016 18.0309 9.15842C18.0309 9.29667 17.9189 9.40875 17.7806 9.40875C17.6424 9.40875 17.5303 9.29667 17.5303 9.15842Z" stroke="#1C1C1C" stroke-width="1.44" stroke-linecap="round" stroke-linejoin="round"/>
<path d="M17.7791 15.3853V15.3239M17.5303 15.3722C17.5303 15.234 17.6424 15.1218 17.7806 15.1218C17.9189 15.1218 18.0309 15.234 18.0309 15.3722C18.0309 15.5104 17.9189 15.6225 17.7806 15.6225C17.6424 15.6225 17.5303 15.5104 17.5303 15.3722Z" stroke="#1C1C1C" stroke-width="1.44" stroke-linecap="round" stroke-linejoin="round"/>
</svg>
