<svg width="24" height="24" viewBox="0 0 24 24" fill="none" xmlns="http://www.w3.org/2000/svg">
<path opacity="0.4" fill-rule="evenodd" clip-rule="evenodd" d="M15.1877 14.9635H8.96308C8.56564 14.9635 8.24308 14.6409 8.24308 14.2435C8.24308 13.8461 8.56564 13.5235 8.96308 13.5235H15.1877C15.5851 13.5235 15.9077 13.8461 15.9077 14.2435C15.9077 14.6409 15.5851 14.9635 15.1877 14.9635ZM8.96308 9.18332H12.1003C12.4978 9.18332 12.8203 9.50588 12.8203 9.90334C12.8203 10.3008 12.4978 10.6233 12.1003 10.6233H8.96308C8.56564 10.6233 8.24308 10.3008 8.24308 9.90334C8.24308 9.50588 8.56564 9.18332 8.96308 9.18332ZM18.9835 6.79196C17.3592 4.72892 14.9371 3.4598 12.3394 3.30812C9.74352 3.15548 7.19379 4.12604 5.35635 5.97116C2.6626 8.6726 1.92724 12.8217 3.51892 16.271C3.62356 16.5341 3.94324 17.1312 4.46836 18.0451C4.5586 18.2006 4.549 18.3878 4.44628 18.5337C4.2322 18.8352 3.96244 19.2211 3.75316 19.5369C3.48052 19.944 3.45556 20.4653 3.68596 20.8973C3.9154 21.3254 4.37427 21.5558 4.84659 21.5913L5.43795 21.5904C7.71507 21.5894 10.9896 21.5885 11.7749 21.5913H11.8066C14.4955 21.5913 17.0395 20.4038 18.7877 18.3302C21.5688 15.0307 21.6514 10.1779 18.9835 6.79196Z" fill="#1C1C1C"/>
<path fill-rule="evenodd" clip-rule="evenodd" d="M15.1878 14.9634H8.96316C8.56572 14.9634 8.24316 14.6408 8.24316 14.2434C8.24316 13.8459 8.56572 13.5234 8.96316 13.5234H15.1878C15.5853 13.5234 15.9078 13.8459 15.9078 14.2434C15.9078 14.6408 15.5853 14.9634 15.1878 14.9634ZM8.96316 9.18323H12.1005C12.4979 9.18323 12.8205 9.50579 12.8205 9.90321C12.8205 10.3006 12.4979 10.6232 12.1005 10.6232H8.96316C8.56572 10.6232 8.24316 10.3006 8.24316 9.90321C8.24316 9.50579 8.56572 9.18323 8.96316 9.18323Z" fill="#1C1C1C"/>
</svg>
