<svg width="24" height="24" viewBox="0 0 24 24" fill="none" xmlns="http://www.w3.org/2000/svg">
<path opacity="0.4" fill-rule="evenodd" clip-rule="evenodd" d="M17.5794 7.93311H6.42036C4.3026 7.93311 2.87988 9.41823 2.87988 11.6282V16.9667C2.87988 19.1776 4.3026 20.6627 6.42036 20.6627H17.5784C19.6972 20.6627 21.1199 19.1776 21.1199 16.9667V11.6282C21.1199 9.41823 19.6972 7.93311 17.5794 7.93311Z" fill="#202939"/>
<path fill-rule="evenodd" clip-rule="evenodd" d="M6.9639 6.49127H17.0371C17.4346 6.49127 17.7571 6.16871 17.7571 5.77127C17.7571 5.37383 17.4346 5.05127 17.0371 5.05127H6.9639C6.56646 5.05127 6.2439 5.37383 6.2439 5.77127C6.2439 6.16871 6.56646 6.49127 6.9639 6.49127Z" fill="#202939"/>
<path fill-rule="evenodd" clip-rule="evenodd" d="M8.82352 3.93756H15.1768C15.5742 3.93756 15.8968 3.615 15.8968 3.21756C15.8968 2.82012 15.5742 2.49756 15.1768 2.49756H8.82352C8.42608 2.49756 8.10352 2.82012 8.10352 3.21756C8.10352 3.615 8.42608 3.93756 8.82352 3.93756Z" fill="#202939"/>
<path fill-rule="evenodd" clip-rule="evenodd" d="M11.999 17.2051C10.391 17.2051 9.08252 15.9005 9.08252 14.2963C9.08252 12.6864 10.391 11.3779 11.999 11.3779C13.607 11.3779 14.9155 12.6864 14.9155 14.2963C14.9155 15.9005 13.607 17.2051 11.999 17.2051ZM10.5224 14.2959C10.5224 13.4799 11.1848 12.8175 11.9989 12.8175C12.813 12.8175 13.4754 13.4799 13.4754 14.2959C13.4754 15.1062 12.813 15.7647 11.9989 15.7647C11.1848 15.7647 10.5224 15.1062 10.5224 14.2959Z" fill="#202939"/>
<path d="M7.54369 17.7811H6.19681C5.79937 17.7811 5.47681 17.4585 5.47681 17.0611C5.47681 16.6627 5.79937 16.3411 6.19681 16.3411H7.54369C7.94113 16.3411 8.26369 16.6627 8.26369 17.0611C8.26369 17.4585 7.94113 17.7811 7.54369 17.7811Z" fill="#202939"/>
<path d="M17.8022 12.2419H16.4554C16.0579 12.2419 15.7354 11.9193 15.7354 11.5219C15.7354 11.1244 16.0579 10.8019 16.4554 10.8019H17.8022C18.1997 10.8019 18.5222 11.1244 18.5222 11.5219C18.5222 11.9193 18.1997 12.2419 17.8022 12.2419Z" fill="#202939"/>
</svg>
