<svg width="24" height="24" viewBox="0 0 24 24" fill="none" xmlns="http://www.w3.org/2000/svg">
<path fill-rule="evenodd" clip-rule="evenodd" d="M7.95935 11.9999C7.95935 12.6332 7.70778 13.2405 7.25999 13.6883C6.8122 14.1361 6.20486 14.3877 5.57159 14.3877C4.93832 14.3877 4.33099 14.1361 3.8832 13.6883C3.4354 13.2405 3.18384 12.6332 3.18384 11.9999C3.18384 11.3667 3.4354 10.7593 3.8832 10.3115C4.33099 9.86375 4.93832 9.61218 5.57159 9.61218C6.20486 9.61218 6.8122 9.86375 7.25999 10.3115C7.70778 10.7593 7.95935 11.3667 7.95935 11.9999ZM20.8165 11.9999C20.8165 12.6332 20.5649 13.2405 20.1171 13.6883C19.6693 14.1361 19.062 14.3877 18.4287 14.3877C17.7955 14.3877 17.1881 14.1361 16.7403 13.6883C16.2925 13.2405 16.041 12.6332 16.041 11.9999C16.041 11.3667 16.2925 10.7593 16.7403 10.3115C17.1881 9.86375 17.7955 9.61218 18.4287 9.61218C19.062 9.61218 19.6693 9.86375 20.1171 10.3115C20.5649 10.7593 20.8165 11.3667 20.8165 11.9999ZM14.3879 11.9999C14.3879 12.6332 14.1364 13.2405 13.6886 13.6883C13.2408 14.1361 12.6334 14.3877 12.0002 14.3877C11.3669 14.3877 10.7596 14.1361 10.3118 13.6883C9.86398 13.2405 9.61241 12.6332 9.61241 11.9999C9.61241 11.3667 9.86398 10.7593 10.3118 10.3115C10.7596 9.86375 11.3669 9.61218 12.0002 9.61218C12.6334 9.61218 13.2408 9.86375 13.6886 10.3115C14.1364 10.7593 14.3879 11.3667 14.3879 11.9999Z" fill="#202939"/>
</svg>
