<svg width="24" height="24" viewBox="0 0 24 24" fill="none" xmlns="http://www.w3.org/2000/svg">
<g clip-path="url(#clip0_2022_17862)">
<path d="M9.9377 2.56055L9.83644 2.62242C9.67707 2.71992 9.52519 2.82867 9.38269 2.9468L9.67519 2.74242H12.1502L12.6002 6.1493L10.3502 8.3993L8.10019 9.96304V11.7668C8.10019 13.0268 8.75832 14.1949 9.83644 14.8455L12.2046 16.2799L7.20019 19.1993H6.23457L4.43645 18.1099C3.35832 17.4574 2.7002 16.2912 2.7002 15.0312V8.96742C2.7002 7.70742 3.35832 6.53742 4.43645 5.8868L9.83644 2.62055C9.87019 2.5993 9.90394 2.5793 9.9377 2.56055Z" fill="url(#paint0_radial_2022_17862)"/>
<path d="M9.9377 2.56055L9.83644 2.62242C9.67707 2.71992 9.52519 2.82867 9.38269 2.9468L9.67519 2.74242H12.1502L12.6002 6.1493L10.3502 8.3993L8.10019 9.96304V11.7668C8.10019 13.0268 8.75832 14.1949 9.83644 14.8455L12.2046 16.2799L7.20019 19.1993H6.23457L4.43645 18.1099C3.35832 17.4574 2.7002 16.2912 2.7002 15.0312V8.96742C2.7002 7.70742 3.35832 6.53742 4.43645 5.8868L9.83644 2.62055C9.87019 2.5993 9.90394 2.5793 9.9377 2.56055Z" fill="url(#paint1_linear_2022_17862)"/>
<path d="M20.2501 12.8993L20.7001 13.5743V15.0311C20.7001 16.2893 20.042 17.4574 18.9639 18.1099L13.5639 21.3799C12.4183 22.0736 10.982 22.0736 9.83639 21.3799L4.56201 18.1868C5.68514 18.8074 7.05951 18.783 8.16389 18.1136L13.5639 14.8455C14.642 14.193 15.3001 13.0249 15.3001 11.7649V9.74927L20.2501 12.8993Z" fill="url(#paint2_radial_2022_17862)"/>
<path d="M20.2501 12.8993L20.7001 13.5743V15.0311C20.7001 16.2893 20.042 17.4574 18.9639 18.1099L13.5639 21.3799C12.4183 22.0736 10.982 22.0736 9.83639 21.3799L4.56201 18.1868C5.68514 18.8074 7.05951 18.783 8.16389 18.1136L13.5639 14.8455C14.642 14.193 15.3001 13.0249 15.3001 11.7649V9.74927L20.2501 12.8993Z" fill="url(#paint3_linear_2022_17862)"/>
<path d="M20.7001 8.96735V15.0311C20.7001 15.0699 20.6995 15.1092 20.6982 15.1492C20.6588 13.9342 20.0082 12.8186 18.9638 12.1867L13.5638 8.92048C12.4182 8.22673 10.982 8.22673 9.83635 8.92048L8.1001 9.97048V5.70298C8.1001 4.44298 8.75822 3.27485 9.83635 2.62235L9.94322 2.55673C11.072 1.92673 12.4538 1.94923 13.5638 2.62048L18.9638 5.88673C20.042 6.53735 20.7001 7.70735 20.7001 8.96735Z" fill="url(#paint4_radial_2022_17862)"/>
<path d="M20.7001 8.96735V15.0311C20.7001 15.0699 20.6995 15.1092 20.6982 15.1492C20.6588 13.9342 20.0082 12.8186 18.9638 12.1867L13.5638 8.92048C12.4182 8.22673 10.982 8.22673 9.83635 8.92048L8.1001 9.97048V5.70298C8.1001 4.44298 8.75822 3.27485 9.83635 2.62235L9.94322 2.55673C11.072 1.92673 12.4538 1.94923 13.5638 2.62048L18.9638 5.88673C20.042 6.53735 20.7001 7.70735 20.7001 8.96735Z" fill="url(#paint5_linear_2022_17862)"/>
</g>
<defs>
<radialGradient id="paint0_radial_2022_17862" cx="0" cy="0" r="1" gradientUnits="userSpaceOnUse" gradientTransform="translate(8.73769 5.98617) scale(15.015 15.015)">
<stop offset="0.064" stop-color="#AE7FE2"/>
<stop offset="1" stop-color="#0078D4"/>
</radialGradient>
<linearGradient id="paint1_linear_2022_17862" x1="8.78082" y1="18.2393" x2="6.6377" y2="14.5343" gradientUnits="userSpaceOnUse">
<stop stop-color="#114A8B"/>
<stop offset="1" stop-color="#0078D4" stop-opacity="0"/>
</linearGradient>
<radialGradient id="paint2_radial_2022_17862" cx="0" cy="0" r="1" gradientUnits="userSpaceOnUse" gradientTransform="translate(5.59326 17.5568) scale(13.9725)">
<stop offset="0.134" stop-color="#D59DFF"/>
<stop offset="1" stop-color="#5E438F"/>
</radialGradient>
<linearGradient id="paint3_linear_2022_17862" x1="19.0614" y1="12.618" x2="16.7645" y2="15.9105" gradientUnits="userSpaceOnUse">
<stop stop-color="#493474"/>
<stop offset="1" stop-color="#8C66BA" stop-opacity="0"/>
</linearGradient>
<radialGradient id="paint4_radial_2022_17862" cx="0" cy="0" r="1" gradientUnits="userSpaceOnUse" gradientTransform="translate(19.3745 13.1261) scale(11.2144)">
<stop offset="0.058" stop-color="#50E6FF"/>
<stop offset="1" stop-color="#436DCD"/>
</radialGradient>
<linearGradient id="paint5_linear_2022_17862" x1="8.53885" y1="2.57548" x2="11.9195" y2="2.57548" gradientUnits="userSpaceOnUse">
<stop stop-color="#2D3F80"/>
<stop offset="1" stop-color="#436DCD" stop-opacity="0"/>
</linearGradient>
<clipPath id="clip0_2022_17862">
<rect width="18" height="20.316" fill="white" transform="translate(2.7002 1.84204)"/>
</clipPath>
</defs>
</svg>
