<svg width="24" height="24" viewBox="0 0 24 24" fill="none" xmlns="http://www.w3.org/2000/svg">
<path fill-rule="evenodd" clip-rule="evenodd" d="M1 4.125C1.1875 4.3125 1.1875 4.875 1.375 5.25C1.75 5.8125 1.9375 5.625 2.5 5.625V5.8125C2.875 6 2.875 6 3.0625 6.5625C3.25 6.9375 3.4375 8.25 3.4375 8.4375C3.625 9 3.8125 8.8125 4 9.1875C3.8125 9.5625 3.8125 9.5625 4.1875 9.75C4.375 9.9375 4.375 9.9375 4.75 9.9375C4.9375 10.125 4.9375 10.125 5.125 10.3125C5.875 10.875 5.5 10.875 5.875 11.25C6.0625 11.4375 6.0625 11.4375 6.25 11.625C6.25 11.8125 6.4375 12 6.4375 12.1875C6.4375 12.375 6.625 12.5625 6.8125 12.75C7 13.125 6.8125 13.6875 7.1875 14.0625C7.75 13.875 7.375 13.875 8.3125 14.25C8.5 14.25 8.6875 14.4375 8.875 14.4375C9.25 14.625 9.0625 14.25 9.4375 14.4375C9.4375 14.625 9.4375 14.8125 9.4375 15C9.625 15.1875 10 15.1875 10 15.375C10 15.5625 9.8125 15.5625 10 15.75C10 15.9375 10.1875 15.9375 10.375 15.9375C10.5625 16.125 10.5625 16.3125 10.75 16.6875C10.9375 17.0625 11.125 17.0625 11.3125 17.25C11.5 17.625 10.75 18 11.6875 18.5625C11.875 18.75 12.0625 18.75 12.25 18.75C12.4375 18.75 12.625 18.9375 13 18.9375C13.375 18.9375 13.375 18.9375 13.75 19.125C14.5 19.3125 14.6875 19.3125 15.4375 19.3125C15.8125 19.3125 15.8125 19.5 16.1875 19.5C16.375 19.5 16.5625 19.6875 16.75 19.6875L19 20.25C19.75 20.4375 19.75 20.4375 20.5 20.625C20.6875 20.625 20.875 20.8125 21.0625 20.8125C21.25 20.8125 21.625 21 21.8125 21H22C21.8125 20.8125 21.4375 19.875 21.25 19.6875C20.875 18.9375 20.5 17.625 20.125 16.6875C19.9375 16.3125 19.375 15.75 19.375 15.375C19.1875 14.625 19.375 14.4375 19.75 13.875C20.125 13.3125 19.1875 12.9375 18.8125 12.75C18.4375 12.5625 18.0625 12.375 17.875 12.1875C17.125 11.4375 17.125 11.625 16.5625 11.4375C16.375 11.4375 16.5625 11.4375 16.375 11.25C16.1875 10.6875 16.9375 10.125 16.9375 9.5625C16.9375 9.375 16.75 8.8125 16.75 8.625C16.75 8.0625 16.9375 7.875 16.5625 7.3125C16.1875 6.9375 15.8125 6.9375 15.25 7.125C14.6875 7.3125 14.125 7.3125 13.5625 7.5C12.8125 7.6875 11.875 8.4375 11.5 8.625C10.9375 8.8125 10.75 7.875 10.1875 7.875C9.8125 7.875 9.4375 7.875 9.25 7.6875C9.0625 7.5 8.6875 6.75 8.5 6.375C7.75 6.5625 7.9375 6.75 7.375 6.9375C7.1875 6.9375 7 7.125 7 6.9375C6.8125 6.9375 6.8125 6.75 6.625 6.75C6.625 6.5625 6.625 6.375 6.625 6.375C6.625 6 6.8125 5.8125 6.8125 5.4375C6.8125 5.0625 6.625 4.875 6.4375 4.6875C6.25 4.3125 5.5 3.375 5.3125 3.1875L4.9375 3H4.75L4.5625 3.1875C3.8125 3.375 3.8125 3.9375 3.0625 3.9375C2.5 4.125 2.3125 3.9375 1.9375 4.125C1 4.3125 1.375 4.3125 1 4.5V4.125Z" fill="#364152"/>
</svg>
