<svg width="24" height="24" viewBox="0 0 24 24" fill="none" xmlns="http://www.w3.org/2000/svg">
<g filter="url(#filter0_d_2022_17657)">
<g style="mix-blend-mode:multiply" opacity="0.2">
<g style="mix-blend-mode:multiply" opacity="0.2">
<g style="mix-blend-mode:multiply">
<path d="M20.394 3.34766H7.39799C6.95393 3.34766 6.59399 3.70762 6.59399 4.15168V19.8537C6.59399 20.2977 6.95393 20.6577 7.39799 20.6577H20.394C20.8381 20.6577 21.198 20.2977 21.198 19.8537V4.15168C21.198 3.70762 20.8381 3.34766 20.394 3.34766Z" fill="white"/>
</g>
</g>
</g>
<g style="mix-blend-mode:multiply" opacity="0.12">
<g style="mix-blend-mode:multiply" opacity="0.12">
<g style="mix-blend-mode:multiply">
<path d="M20.394 3.34766H7.39799C6.95393 3.34766 6.59399 3.7076 6.59399 4.15166V19.8537C6.59399 20.2977 6.95393 20.6577 7.39799 20.6577H20.394C20.8381 20.6577 21.198 20.2977 21.198 19.8537V4.15166C21.198 3.7076 20.8381 3.34766 20.394 3.34766Z" fill="white"/>
</g>
</g>
</g>
<path d="M20.0221 20.6514H7.42212C7.31454 20.6538 7.2075 20.6346 7.10748 20.5949C7.00746 20.5553 6.91644 20.4959 6.83976 20.4203C6.76308 20.3448 6.70242 20.2546 6.6612 20.1552C6.62004 20.0558 6.59928 19.9491 6.60012 19.8414V4.15744C6.59928 4.05082 6.61974 3.94516 6.66012 3.84652C6.70056 3.74788 6.7602 3.6583 6.83556 3.5829C6.91092 3.50753 7.00056 3.44789 7.0992 3.40747C7.19784 3.36704 7.3035 3.34664 7.41012 3.34743H20.4001C20.5067 3.34664 20.6124 3.36704 20.711 3.40747C20.8097 3.44789 20.8993 3.50753 20.9746 3.5829C21.05 3.6583 21.1097 3.74788 21.1501 3.84652C21.1905 3.94516 21.2109 4.05082 21.2101 4.15744V19.4814C21.2023 19.7924 21.0742 20.0882 20.8525 20.3065C20.6309 20.5247 20.3332 20.6484 20.0221 20.6514Z" fill="#CA64EA"/>
<path d="M21.1922 7.67358H16.8662V11.9996H21.1922V7.67358Z" fill="#AE4BD5"/>
<path d="M21.1922 11.9988H16.8662V16.3248H21.1922V11.9988Z" fill="#9332BF"/>
<path d="M16.8662 16.3252H21.1922V19.8412C21.1923 20.0529 21.1094 20.2563 20.9613 20.4077C20.8133 20.5591 20.6119 20.6465 20.4002 20.6512H16.8662V16.3252Z" fill="#7719AA"/>
</g>
<g style="mix-blend-mode:multiply" opacity="0.48">
<g style="mix-blend-mode:multiply" opacity="0.48">
<g style="mix-blend-mode:multiply">
<path d="M11.19 7.13477H3.07196C2.62461 7.13477 2.26196 7.49741 2.26196 7.94477V16.0628C2.26196 16.5101 2.62461 16.8728 3.07196 16.8728H11.19C11.6373 16.8728 12 16.5101 12 16.0628V7.94477C12 7.49741 11.6373 7.13477 11.19 7.13477Z" fill="white"/>
</g>
</g>
</g>
<g style="mix-blend-mode:multiply" opacity="0.24">
<g style="mix-blend-mode:multiply" opacity="0.24">
<g style="mix-blend-mode:multiply">
<path d="M11.19 7.13477H3.07196C2.62461 7.13477 2.26196 7.49741 2.26196 7.94477V16.0628C2.26196 16.5101 2.62461 16.8728 3.07196 16.8728H11.19C11.6373 16.8728 12 16.5101 12 16.0628V7.94477C12 7.49741 11.6373 7.13477 11.19 7.13477Z" fill="white"/>
</g>
</g>
</g>
<g filter="url(#filter1_d_2022_17657)">
<path d="M11.19 7.13477H3.07196C2.62461 7.13477 2.26196 7.49741 2.26196 7.94477V16.0628C2.26196 16.5101 2.62461 16.8728 3.07196 16.8728H11.19C11.6373 16.8728 12 16.5101 12 16.0628V7.94477C12 7.49741 11.6373 7.13477 11.19 7.13477Z" fill="#7719AA"/>
<path style="mix-blend-mode:soft-light" opacity="0.5" d="M11.19 7.13477H3.07196C2.62461 7.13477 2.26196 7.49742 2.26196 7.94477V16.0628C2.26196 16.5101 2.62461 16.8728 3.07196 16.8728H11.19C11.6373 16.8728 12 16.5101 12 16.0628V7.94477C12 7.49742 11.6373 7.13477 11.19 7.13477Z" fill="url(#paint0_linear_2022_17657)"/>
<path d="M4.93188 9.36719H6.02988L8.18988 12.8592C8.29188 13.0212 8.36388 13.1472 8.41188 13.2432C8.38182 13.0044 8.36982 12.7637 8.37588 12.5232V9.36719H9.31788V14.6352H8.30388L6.05988 11.0352C5.98752 10.9146 5.92146 10.7905 5.86188 10.6632C5.88522 10.9245 5.89524 11.1869 5.89188 11.4492V14.6232H4.93188V9.36719Z" fill="white"/>
</g>
<defs>
<filter id="filter0_d_2022_17657" x="5.39399" y="3.34741" width="17.0162" height="19.7103" filterUnits="userSpaceOnUse" color-interpolation-filters="sRGB">
<feFlood flood-opacity="0" result="BackgroundImageFix"/>
<feColorMatrix in="SourceAlpha" type="matrix" values="0 0 0 0 0 0 0 0 0 0 0 0 0 0 0 0 0 0 127 0" result="hardAlpha"/>
<feOffset dy="1.2"/>
<feGaussianBlur stdDeviation="0.6"/>
<feComposite in2="hardAlpha" operator="out"/>
<feColorMatrix type="matrix" values="0 0 0 0 0 0 0 0 0 0 0 0 0 0 0 0 0 0 0.12 0"/>
<feBlend mode="normal" in2="BackgroundImageFix" result="effect1_dropShadow_2022_17657"/>
<feBlend mode="normal" in="SourceGraphic" in2="effect1_dropShadow_2022_17657" result="shape"/>
</filter>
<filter id="filter1_d_2022_17657" x="2.26196" y="7.13477" width="12.138" height="12.138" filterUnits="userSpaceOnUse" color-interpolation-filters="sRGB">
<feFlood flood-opacity="0" result="BackgroundImageFix"/>
<feColorMatrix in="SourceAlpha" type="matrix" values="0 0 0 0 0 0 0 0 0 0 0 0 0 0 0 0 0 0 127 0" result="hardAlpha"/>
<feOffset dx="1.2" dy="1.2"/>
<feGaussianBlur stdDeviation="0.6"/>
<feComposite in2="hardAlpha" operator="out"/>
<feColorMatrix type="matrix" values="0 0 0 0 0 0 0 0 0 0 0 0 0 0 0 0 0 0 0.22 0"/>
<feBlend mode="normal" in2="BackgroundImageFix" result="effect1_dropShadow_2022_17657"/>
<feBlend mode="normal" in="SourceGraphic" in2="effect1_dropShadow_2022_17657" result="shape"/>
</filter>
<linearGradient id="paint0_linear_2022_17657" x1="3.95396" y1="6.49877" x2="10.308" y2="17.5028" gradientUnits="userSpaceOnUse">
<stop stop-color="white" stop-opacity="0.5"/>
<stop offset="1" stop-opacity="0.7"/>
</linearGradient>
</defs>
</svg>
