<svg width="24" height="24" viewBox="0 0 24 24" fill="none" xmlns="http://www.w3.org/2000/svg">
<path d="M12.5 3.05554H8.06667C6.29317 3.05554 5.40642 3.05554 4.72903 3.40069C4.13318 3.70429 3.64875 4.18873 3.34515 4.78457C3 5.46196 3 6.34871 3 8.12221V15.9333C3 17.7068 3 18.5936 3.34515 19.271C3.64875 19.8668 4.13318 20.3512 4.72903 20.6548C5.40642 21 6.29317 21 8.06667 21H15.8778C17.6513 21 18.538 21 19.2154 20.6548C19.8113 20.3512 20.2957 19.8668 20.5993 19.271C20.9444 18.5936 20.9444 17.7068 20.9444 15.9333V11.5M13.5556 15.7222H7.22222M15.6667 11.5H7.22222" stroke="#202939" stroke-width="1.5" stroke-linecap="round" stroke-linejoin="round"/>
<path d="M20.6992 2.77291C21.7298 3.80346 21.7298 5.47431 20.6992 6.50486C19.6687 7.53541 17.9978 7.53541 16.9672 6.50486C15.9367 5.47431 15.9367 3.80346 16.9672 2.77291C17.9978 1.74236 19.6687 1.74236 20.6992 2.77291Z" stroke="#202939" stroke-width="1.5" stroke-linecap="round" stroke-linejoin="round"/>
</svg>
