<svg width="24" height="24" viewBox="0 0 24 24" fill="none" xmlns="http://www.w3.org/2000/svg">
<g clip-path="url(#clip0_2022_17680)">
<g filter="url(#filter0_d_2022_17680)">
<g style="mix-blend-mode:multiply" opacity="0.2">
<g style="mix-blend-mode:multiply" opacity="0.2">
<g style="mix-blend-mode:multiply">
<path d="M18.6778 9.6218C18.3544 8.36085 17.6718 7.22092 16.7129 6.34051C15.754 5.46009 14.5599 4.87715 13.2761 4.6624C11.9921 4.44764 10.6734 4.61041 9.48015 5.13084C8.28697 5.65135 7.27059 6.50713 6.55449 7.59423C5.84877 7.59886 5.15083 7.74241 4.50054 8.01673C3.85031 8.29104 3.26042 8.69081 2.76469 9.19307C1.76342 10.2075 1.20614 11.5781 1.21545 13.0034C1.22475 14.4287 1.79987 15.7919 2.81429 16.7932C3.8287 17.7944 5.19931 18.3517 6.62464 18.3425H18.3831C19.5241 18.3563 20.625 17.9228 21.4502 17.1347C22.2754 16.3466 22.759 15.2667 22.7976 14.1263C22.8361 12.986 22.4264 11.8758 21.6564 11.0338C20.8863 10.1918 19.8171 9.68495 18.6778 9.6218Z" fill="white"/>
</g>
</g>
</g>
<g style="mix-blend-mode:multiply" opacity="0.12">
<g style="mix-blend-mode:multiply" opacity="0.12">
<g style="mix-blend-mode:multiply">
<path d="M18.6778 9.6218C18.3544 8.36085 17.6718 7.22092 16.7129 6.34051C15.754 5.46009 14.5599 4.87715 13.2761 4.6624C11.9921 4.44764 10.6734 4.61041 9.48015 5.13084C8.28697 5.65135 7.27059 6.50713 6.55449 7.59423C5.84877 7.59886 5.15083 7.74241 4.50054 8.01673C3.85031 8.29104 3.26042 8.69081 2.76469 9.19307C1.76342 10.2075 1.20614 11.5781 1.21545 13.0034C1.22475 14.4287 1.79987 15.7919 2.81429 16.7932C3.8287 17.7944 5.19931 18.3517 6.62464 18.3425H18.3831C19.5241 18.3563 20.625 17.9228 21.4502 17.1347C22.2754 16.3466 22.759 15.2667 22.7976 14.1263C22.8361 12.986 22.4264 11.8758 21.6564 11.0338C20.8863 10.1918 19.8171 9.68495 18.6778 9.6218Z" fill="white"/>
</g>
</g>
</g>
<path d="M9.44496 8.3941L13.9631 11.1022L16.6502 9.98669C17.1981 9.75257 17.7873 9.63092 18.3831 9.62888H18.6778C18.3543 8.36793 17.6718 7.228 16.7128 6.34759C15.7539 5.46717 14.5599 4.88423 13.276 4.66948C11.992 4.45472 10.6734 4.61749 9.48011 5.13792C8.28693 5.65843 7.27055 6.51421 6.55444 7.60131H6.6246C7.62 7.59928 8.5964 7.87374 9.44496 8.3941Z" fill="#0364B8"/>
<path d="M9.44505 8.39453C8.60126 7.87417 7.62999 7.59739 6.63872 7.59473H6.56857C5.59758 7.61248 4.64946 7.89262 3.82482 8.40554C3.00011 8.91847 2.32961 9.64496 1.88442 10.508C1.4392 11.3711 1.23586 12.3387 1.29596 13.3079C1.35606 14.2772 1.67735 15.2122 2.22578 16.0137L6.21076 14.3369L7.97874 13.5932L11.9146 11.9375L13.9773 11.0746L9.44505 8.39453Z" fill="#0F78D4"/>
<path d="M18.6778 9.62207H18.3831C17.7874 9.62403 17.1981 9.74576 16.6503 9.97988L13.9631 11.1024L14.7419 11.5655L17.2956 13.0949L18.4112 13.7965L22.2278 16.0766C22.5729 15.4332 22.7514 14.7137 22.7469 13.9836C22.7424 13.2535 22.555 12.5362 22.202 11.8971C21.849 11.258 21.3415 10.7176 20.7259 10.3251C20.1102 9.93259 19.4061 9.70051 18.6778 9.65013V9.62207Z" fill="#1490DF"/>
<path d="M18.4112 13.7683L17.2957 13.0667L14.7419 11.5373L13.9632 11.0742L11.9005 11.9372L7.96463 13.5929L6.19665 14.3366L2.21167 16.0134C2.70678 16.7248 3.36675 17.3056 4.13526 17.7063C4.90378 18.1071 5.75788 18.3158 6.62461 18.3145H18.3831C19.1715 18.3158 19.9456 18.1031 20.6226 17.699C21.2997 17.2951 21.8545 16.7149 22.2278 16.0204L18.4112 13.7683Z" fill="#28A8EA"/>
<path style="mix-blend-mode:soft-light" opacity="0.5" d="M18.6778 9.6218C18.3544 8.36085 17.6718 7.22092 16.7129 6.34051C15.754 5.46009 14.5599 4.87715 13.2761 4.6624C11.9921 4.44764 10.6734 4.61041 9.48015 5.13084C8.28697 5.65135 7.27059 6.50713 6.55449 7.59423C5.84877 7.59886 5.15083 7.74241 4.50054 8.01673C3.85031 8.29104 3.26042 8.69081 2.76469 9.19307C1.76342 10.2075 1.20614 11.5781 1.21545 13.0034C1.22475 14.4287 1.79987 15.7919 2.81429 16.7932C3.8287 17.7944 5.19931 18.3517 6.62464 18.3425H18.3831C19.5241 18.3563 20.625 17.9228 21.4502 17.1347C22.2754 16.3466 22.759 15.2667 22.7976 14.1263C22.8361 12.986 22.4264 11.8758 21.6564 11.0338C20.8863 10.1918 19.8171 9.68495 18.6778 9.6218Z" fill="url(#paint0_linear_2022_17680)"/>
</g>
</g>
<defs>
<filter id="filter0_d_2022_17680" x="-0.18783" y="4.57031" width="24.391" height="16.5788" filterUnits="userSpaceOnUse" color-interpolation-filters="sRGB">
<feFlood flood-opacity="0" result="BackgroundImageFix"/>
<feColorMatrix in="SourceAlpha" type="matrix" values="0 0 0 0 0 0 0 0 0 0 0 0 0 0 0 0 0 0 127 0" result="hardAlpha"/>
<feOffset dy="1.40316"/>
<feGaussianBlur stdDeviation="0.701581"/>
<feComposite in2="hardAlpha" operator="out"/>
<feColorMatrix type="matrix" values="0 0 0 0 0 0 0 0 0 0 0 0 0 0 0 0 0 0 0.12 0"/>
<feBlend mode="normal" in2="BackgroundImageFix" result="effect1_dropShadow_2022_17680"/>
<feBlend mode="normal" in="SourceGraphic" in2="effect1_dropShadow_2022_17680" result="shape"/>
</filter>
<linearGradient id="paint0_linear_2022_17680" x1="7.71911" y1="6.19107" x2="15.0576" y2="18.9107" gradientUnits="userSpaceOnUse">
<stop stop-color="white" stop-opacity="0.5"/>
<stop offset="1" stop-opacity="0.7"/>
</linearGradient>
<clipPath id="clip0_2022_17680">
<rect width="24" height="24" rx="7.2" fill="white"/>
</clipPath>
</defs>
</svg>
