<svg width="24" height="24" viewBox="0 0 24 24" fill="none" xmlns="http://www.w3.org/2000/svg">
<g filter="url(#filter0_d_2022_17693)">
<g style="mix-blend-mode:multiply" opacity="0.2">
<g style="mix-blend-mode:multiply" opacity="0.2">
<g style="mix-blend-mode:multiply">
<path d="M21.1921 11.9996V19.7276C21.1913 19.8503 21.1663 19.9715 21.1185 20.0845C21.0707 20.1974 21.0009 20.2997 20.9134 20.3857C20.8258 20.4715 20.7221 20.5393 20.6083 20.5849C20.4945 20.6305 20.3727 20.6533 20.2501 20.6516H7.5361C7.414 20.6524 7.29292 20.6291 7.17976 20.5832C7.06666 20.5372 6.96364 20.4693 6.87676 20.3835C6.78982 20.2977 6.7207 20.1956 6.67318 20.0831C6.62572 19.9706 6.60088 19.8498 6.6001 19.7276V11.9996C6.59998 12.0721 6.61942 12.1433 6.65638 12.2056C6.69334 12.2679 6.74644 12.319 6.8101 12.3536L7.6741 12.8336V4.24764C7.6627 4.02102 7.74148 3.79908 7.89328 3.63042C8.04508 3.46173 8.25754 3.36006 8.4841 3.34766H19.2841C19.5107 3.36006 19.7232 3.46173 19.875 3.63042C20.0268 3.79908 20.1056 4.02102 20.0941 4.24764V12.8396L21.0001 12.3596C21.0614 12.3223 21.1114 12.2691 21.1452 12.2058C21.179 12.1425 21.1952 12.0713 21.1921 11.9996Z" fill="white"/>
</g>
</g>
</g>
<g style="mix-blend-mode:multiply" opacity="0.12">
<g style="mix-blend-mode:multiply" opacity="0.12">
<g style="mix-blend-mode:multiply">
<path d="M21.1921 11.9996V19.7276C21.1913 19.8503 21.1663 19.9715 21.1185 20.0845C21.0706 20.1974 21.0009 20.2997 20.9133 20.3857C20.8258 20.4715 20.7221 20.5393 20.6083 20.5849C20.4945 20.6305 20.3727 20.6533 20.2501 20.6516H7.5361C7.414 20.6524 7.29286 20.6291 7.17976 20.5832C7.0666 20.5372 6.96364 20.4693 6.8767 20.3835C6.78982 20.2977 6.72064 20.1956 6.67318 20.0831C6.62572 19.9706 6.60088 19.8498 6.6001 19.7276V11.9996C6.59998 12.0721 6.61942 12.1433 6.65638 12.2056C6.69334 12.2679 6.74644 12.319 6.8101 12.3536L7.6741 12.8336V4.24764C7.66264 4.02102 7.74148 3.79908 7.89328 3.63042C8.04508 3.46173 8.25754 3.36006 8.4841 3.34766H19.2841C19.5107 3.36006 19.7231 3.46173 19.8749 3.63042C20.0267 3.79908 20.1056 4.02102 20.0941 4.24764V12.8396L21.0001 12.3596C21.0613 12.3223 21.1114 12.2691 21.1452 12.2058C21.1789 12.1425 21.1952 12.0713 21.1921 11.9996Z" fill="white"/>
</g>
</g>
</g>
<path d="M21.1923 11.9997C21.1937 11.9284 21.1761 11.8581 21.1413 11.7958C21.1065 11.7336 21.0558 11.6818 20.9944 11.6457L14.9283 7.79967H14.8383C14.7127 7.73637 14.574 7.70337 14.4333 7.70337C14.2927 7.70337 14.154 7.73637 14.0283 7.79967L13.9383 7.85367L7.33835 11.6697C7.27541 11.7045 7.22315 11.7559 7.18721 11.8183C7.15121 11.8807 7.13297 11.9517 7.13435 12.0237C7.13309 12.0971 7.15205 12.1695 7.18907 12.233C7.22609 12.2965 7.27979 12.3486 7.34435 12.3837L13.9443 16.1997L14.0343 16.2537C14.16 16.317 14.2987 16.35 14.4393 16.35C14.58 16.35 14.7187 16.317 14.8443 16.2537L14.9343 16.1997L21.0003 12.3597C21.0615 12.3222 21.1116 12.2691 21.1454 12.2058C21.1792 12.1425 21.1954 12.0714 21.1923 11.9997Z" fill="#123B6D"/>
<path d="M12.0001 9.83374H7.67407V13.7997H12.0001V9.83374Z" fill="#0364B8"/>
<path d="M20.1123 6.04742V4.24742C20.1237 4.0208 20.0449 3.79886 19.8931 3.63014C19.7413 3.46148 19.5288 3.35981 19.3023 3.34741H8.50226C8.2757 3.35981 8.06324 3.46148 7.91144 3.63014C7.75964 3.79886 7.6808 4.0208 7.69226 4.24742V6.04742H20.1123Z" fill="#0358A7"/>
<path d="M12.0001 6.04785H7.67407V9.83385H12.0001V6.04785Z" fill="#0078D4"/>
<path d="M16.3262 6.04785H12.0002V9.83385H16.3262V6.04785Z" fill="#28A8EA"/>
<path d="M20.1122 6.04785H16.3262V9.83385H20.1122V6.04785Z" fill="#50D9FF"/>
<path d="M20.1122 9.83374H16.3262V13.7997H20.1122V9.83374Z" fill="#28A8EA"/>
<path d="M16.3262 9.83374H12.0002V13.7997H16.3262V9.83374Z" fill="#0078D4"/>
<path d="M16.3262 13.7998H12.0002V17.7658H16.3262V13.7998Z" fill="#0364B8"/>
<path d="M12.0001 13.7998H7.67407V17.4058H12.0001V13.7998Z" fill="#14447D"/>
<path d="M20.1122 13.7998H16.3262V17.7658H20.1122V13.7998Z" fill="#0078D4"/>
<g opacity="0.35">
<g style="mix-blend-mode:multiply" opacity="0.35">
<g style="mix-blend-mode:multiply" opacity="0.35">
<g style="mix-blend-mode:multiply">
<path d="M21.0002 12.353L14.6762 16.199L14.5862 16.253C14.455 16.3158 14.3115 16.3487 14.1662 16.349C14.0189 16.3485 13.8734 16.3158 13.7402 16.253C13.7088 16.2372 13.6788 16.2192 13.6502 16.199L6.81016 12.359C6.7456 12.3239 6.6919 12.2718 6.65482 12.2084C6.6178 12.1449 6.5989 12.0725 6.60016 11.999V19.727C6.60094 19.8497 6.62596 19.9709 6.67378 20.0838C6.72166 20.1968 6.79132 20.2991 6.87892 20.385C6.96646 20.4709 7.07014 20.5386 7.18396 20.5842C7.29778 20.6299 7.41952 20.6526 7.54216 20.651H20.2502C20.3728 20.6526 20.4945 20.6299 20.6084 20.5842C20.7222 20.5386 20.8259 20.4709 20.9134 20.385C21.0009 20.2991 21.0707 20.1968 21.1185 20.0838C21.1664 19.9709 21.1914 19.8497 21.1922 19.727V11.999C21.1941 12.0697 21.1774 12.1397 21.1437 12.2018C21.11 12.2639 21.0605 12.3161 21.0002 12.353Z" fill="white"/>
</g>
</g>
</g>
</g>
<g opacity="0.06">
<g style="mix-blend-mode:multiply" opacity="0.06">
<g style="mix-blend-mode:multiply" opacity="0.06">
<g style="mix-blend-mode:multiply">
<path d="M21.0002 12.353L14.6762 16.199L14.5862 16.253C14.455 16.3158 14.3115 16.3487 14.1662 16.349C14.0189 16.3485 13.8734 16.3158 13.7402 16.253C13.7088 16.2372 13.6788 16.2192 13.6502 16.199L6.81016 12.359C6.7456 12.3239 6.6919 12.2718 6.65482 12.2084C6.6178 12.1449 6.5989 12.0725 6.60016 11.999V19.727C6.60094 19.8497 6.62596 19.9709 6.67378 20.0838C6.72166 20.1968 6.79132 20.2991 6.87892 20.385C6.96646 20.4709 7.07014 20.5386 7.18396 20.5842C7.29778 20.6299 7.41952 20.6526 7.54216 20.651H20.2502C20.3728 20.6526 20.4945 20.6299 20.6084 20.5842C20.7222 20.5386 20.8259 20.4709 20.9134 20.385C21.0009 20.2991 21.0707 20.1968 21.1185 20.0838C21.1664 19.9709 21.1914 19.8497 21.1922 19.727V11.999C21.1941 12.0697 21.1774 12.1397 21.1437 12.2018C21.11 12.2639 21.0605 12.3161 21.0002 12.353Z" fill="white"/>
</g>
</g>
</g>
</g>
<path d="M21.0002 12.353L14.6762 16.199L14.5862 16.253C14.455 16.3158 14.3115 16.3487 14.1662 16.349C14.0189 16.3485 13.8734 16.3158 13.7402 16.253C13.7088 16.2372 13.6788 16.2192 13.6502 16.199L6.81016 12.359C6.7456 12.3239 6.6919 12.2718 6.65482 12.2084C6.6178 12.1449 6.5989 12.0725 6.60016 11.999V19.727C6.60094 19.8497 6.62596 19.9709 6.67378 20.0838C6.72166 20.1968 6.79132 20.2991 6.87892 20.385C6.96646 20.4709 7.07014 20.5386 7.18396 20.5842C7.29778 20.6299 7.41952 20.6526 7.54216 20.651H20.2502C20.375 20.6544 20.4992 20.6321 20.6151 20.5855C20.731 20.5389 20.8361 20.469 20.9238 20.3801C21.0116 20.2913 21.0801 20.1853 21.1253 20.0688C21.1704 19.9523 21.1911 19.8278 21.1862 19.703V11.999C21.1887 12.0691 21.1729 12.1387 21.1403 12.2008C21.1077 12.2629 21.0593 12.3154 21.0002 12.353Z" fill="url(#paint0_linear_2022_17693)"/>
<path d="M7.53017 20.651H20.2622C20.4606 20.651 20.6539 20.588 20.8142 20.471L13.6682 16.103L13.5782 16.049L6.81017 12.125L6.60017 11.999V19.697C6.59861 19.8207 6.62141 19.9436 6.66725 20.0585C6.71315 20.1733 6.78119 20.2781 6.86759 20.3667C6.95393 20.4552 7.05689 20.5259 7.17059 20.5748C7.28429 20.6235 7.40645 20.6495 7.53017 20.651Z" fill="url(#paint1_linear_2022_17693)"/>
<path style="mix-blend-mode:soft-light" opacity="0.75" d="M21.1921 12.0297C21.1934 11.9584 21.1758 11.8881 21.141 11.8258C21.1062 11.7636 21.0555 11.7118 20.9941 11.6757L20.1241 11.1717V4.24766C20.1356 4.02104 20.0567 3.7991 19.9049 3.63038C19.7531 3.46173 19.5407 3.36006 19.3141 3.34766H8.5141C8.28754 3.36006 8.07508 3.46173 7.92328 3.63038C7.77148 3.7991 7.69264 4.02104 7.7041 4.24766V12.8397L6.8401 12.3597C6.76996 12.3288 6.71008 12.2785 6.66754 12.2147C6.625 12.1509 6.6016 12.0763 6.6001 11.9997V19.7277C6.60088 19.8503 6.6259 19.9716 6.67378 20.0845C6.7216 20.1974 6.79132 20.2998 6.87886 20.3857C6.9664 20.4715 7.07008 20.5392 7.1839 20.5849C7.29772 20.6305 7.41946 20.6532 7.5421 20.6517H20.2501C20.3727 20.6532 20.4945 20.6305 20.6083 20.5849C20.7221 20.5392 20.8258 20.4715 20.9133 20.3857C21.0009 20.2998 21.0706 20.1974 21.1185 20.0845C21.1663 19.9716 21.1913 19.8503 21.1921 19.7277V12.0297Z" fill="url(#paint2_linear_2022_17693)"/>
</g>
<g style="mix-blend-mode:multiply" opacity="0.48">
<g style="mix-blend-mode:multiply">
<path d="M11.19 7.13477H3.07196C2.62461 7.13477 2.26196 7.49741 2.26196 7.94477V16.0628C2.26196 16.5101 2.62461 16.8728 3.07196 16.8728H11.19C11.6373 16.8728 12 16.5101 12 16.0628V7.94477C12 7.49741 11.6373 7.13477 11.19 7.13477Z" fill="white"/>
</g>
</g>
<g style="mix-blend-mode:multiply" opacity="0.24">
<g style="mix-blend-mode:multiply" opacity="0.24">
<g style="mix-blend-mode:multiply">
<path d="M11.19 7.13477H3.07196C2.62461 7.13477 2.26196 7.49741 2.26196 7.94477V16.0628C2.26196 16.5101 2.62461 16.8728 3.07196 16.8728H11.19C11.6373 16.8728 12 16.5101 12 16.0628V7.94477C12 7.49741 11.6373 7.13477 11.19 7.13477Z" fill="white"/>
</g>
</g>
</g>
<g filter="url(#filter1_d_2022_17693)">
<path d="M11.19 7.13477H3.07196C2.62461 7.13477 2.26196 7.49741 2.26196 7.94477V16.0628C2.26196 16.5101 2.62461 16.8728 3.07196 16.8728H11.19C11.6373 16.8728 12 16.5101 12 16.0628V7.94477C12 7.49741 11.6373 7.13477 11.19 7.13477Z" fill="#0F78D4"/>
<g style="mix-blend-mode:soft-light" opacity="0.5">
<path style="mix-blend-mode:soft-light" opacity="0.5" d="M11.19 7.13477H3.07196C2.62461 7.13477 2.26196 7.49741 2.26196 7.94477V16.0628C2.26196 16.5101 2.62461 16.8728 3.07196 16.8728H11.19C11.6373 16.8728 12 16.5101 12 16.0628V7.94477C12 7.49741 11.6373 7.13477 11.19 7.13477Z" fill="url(#paint3_linear_2022_17693)"/>
</g>
<path d="M4.93196 10.6632C5.1173 10.2654 5.41844 9.93285 5.79596 9.70917C6.22304 9.46683 6.70928 9.34839 7.19996 9.36717C7.64744 9.35721 8.08928 9.46917 8.47796 9.69117C8.83934 9.90873 9.13082 10.2252 9.31796 10.6032C9.51632 11.0227 9.61292 11.4832 9.59996 11.9472C9.60998 12.4347 9.50516 12.9177 9.29396 13.3572C9.09806 13.7544 8.78636 14.0828 8.39996 14.2992C7.99964 14.5314 7.54262 14.6477 7.07996 14.6352C6.62384 14.6475 6.17318 14.5332 5.77796 14.3052C5.4104 14.0916 5.114 13.7744 4.92596 13.3932C4.7186 12.9804 4.61558 12.523 4.62596 12.0612C4.61996 11.5779 4.72466 11.0997 4.93196 10.6632ZM5.84996 12.9132C5.95748 13.1535 6.1274 13.3606 6.34196 13.5132C6.56372 13.6667 6.82826 13.7464 7.09796 13.7412C7.38902 13.7538 7.67606 13.6694 7.91396 13.5012C8.12624 13.3508 8.29076 13.1425 8.38796 12.9012C8.49506 12.6135 8.54594 12.308 8.53796 12.0012C8.54054 11.7075 8.49392 11.4154 8.39996 11.1372C8.315 10.8793 8.15648 10.6521 7.94396 10.4832C7.71326 10.3085 7.42904 10.2194 7.13996 10.2312C6.86162 10.2238 6.58826 10.3057 6.35996 10.4652C6.14234 10.616 5.97014 10.8235 5.86196 11.0652C5.7401 11.3619 5.68088 11.6805 5.68796 12.0012C5.6822 12.3128 5.73722 12.6226 5.84996 12.9132Z" fill="white"/>
</g>
<defs>
<filter id="filter0_d_2022_17693" x="5.4001" y="3.34741" width="16.9925" height="19.7043" filterUnits="userSpaceOnUse" color-interpolation-filters="sRGB">
<feFlood flood-opacity="0" result="BackgroundImageFix"/>
<feColorMatrix in="SourceAlpha" type="matrix" values="0 0 0 0 0 0 0 0 0 0 0 0 0 0 0 0 0 0 127 0" result="hardAlpha"/>
<feOffset dy="1.2"/>
<feGaussianBlur stdDeviation="0.6"/>
<feComposite in2="hardAlpha" operator="out"/>
<feColorMatrix type="matrix" values="0 0 0 0 0 0 0 0 0 0 0 0 0 0 0 0 0 0 0.12 0"/>
<feBlend mode="normal" in2="BackgroundImageFix" result="effect1_dropShadow_2022_17693"/>
<feBlend mode="normal" in="SourceGraphic" in2="effect1_dropShadow_2022_17693" result="shape"/>
</filter>
<filter id="filter1_d_2022_17693" x="2.26196" y="7.13477" width="12.138" height="12.138" filterUnits="userSpaceOnUse" color-interpolation-filters="sRGB">
<feFlood flood-opacity="0" result="BackgroundImageFix"/>
<feColorMatrix in="SourceAlpha" type="matrix" values="0 0 0 0 0 0 0 0 0 0 0 0 0 0 0 0 0 0 127 0" result="hardAlpha"/>
<feOffset dx="1.2" dy="1.2"/>
<feGaussianBlur stdDeviation="0.6"/>
<feComposite in2="hardAlpha" operator="out"/>
<feColorMatrix type="matrix" values="0 0 0 0 0 0 0 0 0 0 0 0 0 0 0 0 0 0 0.22 0"/>
<feBlend mode="normal" in2="BackgroundImageFix" result="effect1_dropShadow_2022_17693"/>
<feBlend mode="normal" in="SourceGraphic" in2="effect1_dropShadow_2022_17693" result="shape"/>
</filter>
<linearGradient id="paint0_linear_2022_17693" x1="18.8942" y1="10.067" x2="8.84416" y2="22.043" gradientUnits="userSpaceOnUse">
<stop stop-color="#35B8F1"/>
<stop offset="0.9" stop-color="#0F78D1"/>
</linearGradient>
<linearGradient id="paint1_linear_2022_17693" x1="13.7042" y1="11.999" x2="13.7042" y2="20.651" gradientUnits="userSpaceOnUse">
<stop stop-color="#35B8F1"/>
<stop offset="1" stop-color="#28A8EA"/>
</linearGradient>
<linearGradient id="paint2_linear_2022_17693" x1="8.3461" y1="3.31166" x2="18.9001" y2="21.5817" gradientUnits="userSpaceOnUse">
<stop stop-color="white" stop-opacity="0.5"/>
<stop offset="1" stop-opacity="0.7"/>
</linearGradient>
<linearGradient id="paint3_linear_2022_17693" x1="3.95395" y1="6.49877" x2="10.308" y2="17.5028" gradientUnits="userSpaceOnUse">
<stop stop-color="white" stop-opacity="0.5"/>
<stop offset="1" stop-opacity="0.7"/>
</linearGradient>
</defs>
</svg>
