<svg width="24" height="24" viewBox="0 0 24 24" fill="none" xmlns="http://www.w3.org/2000/svg">
<path opacity="0.4" fill-rule="evenodd" clip-rule="evenodd" d="M17.5065 3.52838C18.4265 4.46838 19.2365 5.84838 19.8065 7.40838C20.3065 8.77838 20.5665 10.1484 20.5665 11.3484C20.5665 11.5284 20.5565 11.6984 20.5465 11.8684C20.4365 13.3884 19.8465 14.4084 18.8965 14.7584C18.8365 14.7784 18.7765 14.7984 18.7065 14.8084C18.6565 14.8284 18.6065 14.8384 18.5565 14.8484C18.5465 14.8584 18.5365 14.8584 18.5265 14.8584C18.3546 14.8855 16.4394 15.1664 14.2839 15.4714L14.2812 15.4688L9.74092 16.127C9.53805 16.1495 9.3326 16.1785 9.12576 16.2078C8.57018 16.2863 8.0046 16.3663 7.4523 16.3255C6.0256 16.1557 4.3666 15.0699 3.71656 13.2684C2.94656 11.1684 3.85656 8.93838 5.12656 8.07838C5.87444 7.57715 10.5532 4.6895 12.8072 3.29837C13.3863 2.94101 13.8053 2.6824 13.9565 2.58838C13.9765 2.57838 13.9965 2.56838 14.0065 2.55838C14.1265 2.47838 14.2565 2.41838 14.3865 2.36838C15.3365 2.02838 16.4465 2.43838 17.5065 3.52838ZM19.0465 11.7584C19.1265 10.6684 18.8865 9.26838 18.3965 7.92838C17.9065 6.57838 17.1965 5.35838 16.4365 4.56838C15.9265 4.04838 15.4265 3.74838 15.0665 3.74838C15.0065 3.74838 14.9465 3.75838 14.8965 3.77838C14.8665 3.78838 14.8365 3.80838 14.8065 3.82838C14.7865 3.83838 14.7665 3.84838 14.7465 3.86838C14.1265 4.37838 13.8965 6.50838 14.8765 9.20838C15.3665 10.5584 16.0865 11.7784 16.8465 12.5584C17.4465 13.1684 18.0365 13.4784 18.3765 13.3484C18.7265 13.2184 18.9865 12.6084 19.0465 11.7584Z" fill="#202939"/>
<path fill-rule="evenodd" clip-rule="evenodd" d="M19.0465 11.758C19.1265 10.668 18.8865 9.26805 18.3965 7.92805C17.9065 6.57805 17.1965 5.35805 16.4365 4.56805C15.9265 4.04805 15.4265 3.74805 15.0665 3.74805C15.0065 3.74805 14.9465 3.75805 14.8965 3.77805C14.8665 3.78805 14.8365 3.80805 14.8065 3.82805C14.7865 3.83805 14.7665 3.84805 14.7465 3.86805C14.1265 4.37805 13.8965 6.50805 14.8765 9.20805C15.3665 10.558 16.0865 11.778 16.8465 12.558C17.4465 13.168 18.0365 13.478 18.3765 13.348C18.7265 13.218 18.9865 12.608 19.0465 11.758Z" fill="#202939"/>
<path d="M7.7832 16.3362L9.06812 19.8665C9.60847 21.3505 11.2487 22.1176 12.7343 21.5756C14.2195 21.0358 14.9837 19.3937 14.4444 17.9104L13.5919 15.5684L12.0756 15.7882L13.0348 18.4232C13.2914 19.129 12.9273 19.9096 12.2217 20.166L12.2206 20.1664C11.5152 20.4238 10.735 20.0602 10.4776 19.3533L9.32257 16.1798C9.25715 16.1889 9.19155 16.1982 9.12582 16.2075C8.68073 16.2704 8.22916 16.3342 7.7832 16.3362Z" fill="#202939"/>
</svg>
