<svg width="24" height="24" viewBox="0 0 24 24" fill="none" xmlns="http://www.w3.org/2000/svg">
<path opacity="0.4" fill-rule="evenodd" clip-rule="evenodd" d="M10.6752 7.82889C10.7689 7.69917 10.9504 7.67067 11.0793 7.76544L15.9049 11.3124C16.0322 11.406 16.0604 11.5847 15.9679 11.7129L11.7574 17.5486C11.2486 18.2782 10.4998 18.8158 9.63576 19.0654L8.0467 19.5345C8.04367 19.5354 8.04051 19.5358 8.03735 19.5358C8.03414 19.5358 8.03097 19.5363 8.0279 19.5372L7.48532 19.699C6.59252 19.9582 5.69972 19.2862 5.69012 18.355V17.9915C5.69012 17.9779 5.68907 17.9642 5.68747 17.9507C5.68052 17.8919 5.68052 17.8393 5.68052 17.779L5.67092 16.0798C5.66132 15.2542 5.91092 14.4478 6.38132 13.7758L10.6752 7.82889Z" fill="#202939"/>
<path fill-rule="evenodd" clip-rule="evenodd" d="M17.8918 9.04279L17.1497 10.074C17.0561 10.2039 16.8747 10.2328 16.7456 10.138C15.617 9.30946 12.7404 7.19937 11.9089 6.58946C11.7812 6.49583 11.7554 6.31846 11.8482 6.19019L12.583 5.17399C13.3126 4.16599 14.7334 3.94519 15.7318 4.67479L17.4022 5.89399C18.4102 6.62359 18.631 8.03479 17.8918 9.04279Z" fill="#202939"/>
</svg>
