<svg width="24" height="24" viewBox="0 0 24 24" fill="none" xmlns="http://www.w3.org/2000/svg">
<path fill-rule="evenodd" clip-rule="evenodd" d="M21.1915 7.0502C21.9725 6.26915 21.9725 5.00282 21.1915 4.22177L19.7773 2.80756C18.9962 2.02651 17.7299 2.02651 16.9489 2.80756L15.8814 3.87504L16.5886 4.56823L19.409 7.38863L20.162 8.07972L21.1915 7.0502ZM18.7465 9.49523L9.52424 18.7175C9.4253 18.8164 9.3067 18.8935 9.17611 18.9437L4.57992 20.7115C4.21107 20.8533 3.79327 20.7647 3.51383 20.4852C3.23439 20.2058 3.14573 19.788 3.28759 19.4191L5.05536 14.8229C5.10559 14.6924 5.18266 14.5738 5.2816 14.4748L14.4671 5.28936L15.1851 5.9931L18.01 8.81797C18.02 8.82806 18.0304 8.83793 18.0409 8.84758L18.7465 9.49523Z" fill="#202939"/>
</svg>
