<svg width="24" height="24" viewBox="0 0 24 24" fill="none" xmlns="http://www.w3.org/2000/svg">
<path fill-rule="evenodd" clip-rule="evenodd" d="M3.47635 8.82751C3.07891 8.82751 2.75635 9.15007 2.75635 9.54751V14.6355C2.75635 15.0329 3.07891 15.3555 3.47635 15.3555C3.87379 15.3555 4.19635 15.0329 4.19635 14.6355V9.54751C4.19635 9.15007 3.87379 8.82751 3.47635 8.82751Z" fill="#202939"/>
<path fill-rule="evenodd" clip-rule="evenodd" d="M20.7561 8.73096C20.3587 8.73096 20.0361 9.05352 20.0361 9.45096V14.5389C20.0361 14.9364 20.3587 15.2589 20.7561 15.2589C21.1536 15.2589 21.4761 14.9364 21.4761 14.5389V9.45096C21.4761 9.05352 21.1536 8.73096 20.7561 8.73096Z" fill="#202939"/>
<path opacity="0.4" fill-rule="evenodd" clip-rule="evenodd" d="M14.5161 3.11536H9.90806C7.80566 3.11536 6.16406 4.75696 6.16406 6.85936V17.1313C6.16406 19.2337 7.80566 20.8753 9.90806 20.8753H14.4873C14.5545 20.8753 14.6121 20.8849 14.6697 20.8849C15.5433 20.8849 16.3881 20.5297 17.0601 19.8961C17.8185 19.1761 18.2601 18.1681 18.2601 17.1313V6.85936C18.2601 4.75696 16.6185 3.11536 14.5161 3.11536Z" fill="#202939"/>
<path fill-rule="evenodd" clip-rule="evenodd" d="M12.0682 17.5205C11.5594 17.5205 11.1562 17.1173 11.1562 16.6085C11.1562 16.0901 11.6362 15.6965 12.0682 15.6965C12.577 15.6965 12.9802 16.0997 12.9802 16.6085C12.9802 17.1269 12.5002 17.5205 12.0682 17.5205Z" fill="#202939"/>
</svg>
