<svg width="24" height="24" viewBox="0 0 24 24" fill="none" xmlns="http://www.w3.org/2000/svg">
<path d="M3.47607 9.47559L3.49289 14.5841" stroke="#1C1C1C" stroke-width="1.44" stroke-linecap="round" stroke-linejoin="round"/>
<path d="M20.7393 9.41626L20.7561 14.5247" stroke="#1C1C1C" stroke-width="1.44" stroke-linecap="round" stroke-linejoin="round"/>
<path fill-rule="evenodd" clip-rule="evenodd" d="M17.7257 17.1258L17.6902 6.83783C17.6837 5.02852 16.2116 3.56574 14.4023 3.57229L9.7748 3.58723C7.96456 3.59376 6.50179 5.06588 6.50832 6.87613L6.54381 17.1641C6.54942 18.9744 8.02153 20.4362 9.83182 20.4297L14.4592 20.4147C16.2695 20.4082 17.7322 18.9361 17.7257 17.1258Z" stroke="#1C1C1C" stroke-width="1.44" stroke-linecap="round" stroke-linejoin="round"/>
<path d="M12.1333 16.967V16.9208M12.1333 16.6777C12.0006 16.6777 11.8931 16.7853 11.8931 16.9175C11.8931 17.0503 12.0006 17.1577 12.1333 17.1577C12.2659 17.1577 12.3735 17.0503 12.3735 16.9175C12.3735 16.7853 12.2659 16.6777 12.1333 16.6777Z" stroke="#1C1C1C" stroke-width="1.44" stroke-linecap="round" stroke-linejoin="round"/>
</svg>
