<svg width="24" height="24" viewBox="0 0 24 24" fill="none" xmlns="http://www.w3.org/2000/svg">
<path fill-rule="evenodd" clip-rule="evenodd" d="M8.87512 13.896C4.29171 13.896 2 15.2502 2 17.9586C2 19.5211 3.14585 20.6669 4.60421 20.6669H13.146C14.6044 20.6669 15.6461 19.6253 15.7502 17.9586C15.7502 15.2502 13.4585 13.896 8.87512 13.896Z" fill="#202939"/>
<path fill-rule="evenodd" clip-rule="evenodd" d="M8.87471 11.7085C11.0623 11.7085 12.729 10.0418 12.729 7.85423C12.729 5.6667 11.0623 4 8.87471 4C6.68717 4 5.02048 5.6667 5.02048 7.85423C4.91631 8.79175 5.33298 9.72927 6.06216 10.4584C6.79134 11.2918 7.83303 11.7085 8.87471 11.7085Z" fill="#202939"/>
<path fill-rule="evenodd" clip-rule="evenodd" d="M17.3124 14.1035C16.9999 14.1035 16.6874 14.2077 16.5833 14.5202C16.4791 14.7285 16.4791 15.1452 16.5833 15.3535C17.6249 16.9161 17.5208 18.3744 17.1041 19.2078C16.9999 19.4161 16.9999 19.7286 17.2083 19.937C17.3124 20.1453 17.6249 20.2495 17.8333 20.2495H19.5C20.9583 20.2495 22 19.2078 22 17.6452C22 14.416 18.4583 14.1035 17.3124 14.1035Z" fill="#202939"/>
<path fill-rule="evenodd" clip-rule="evenodd" d="M17.2079 11.8119C18.8746 11.8119 20.1246 10.5619 20.1246 8.79103C20.1246 7.02016 18.8746 5.77014 17.2079 5.77014C15.5412 5.77014 14.187 7.02016 14.187 8.79103C14.187 10.5619 15.5412 11.8119 17.2079 11.8119Z" fill="#202939"/>
</svg>
