<svg width="24" height="24" viewBox="0 0 24 24" fill="none" xmlns="http://www.w3.org/2000/svg">
<path d="M11.9997 3C13.1816 3 14.3519 3.23279 15.4439 3.68508C16.5358 4.13738 17.5279 4.80031 18.3637 5.63604C19.1994 6.47177 19.8623 7.46392 20.3146 8.55585C20.7669 9.64778 20.9997 10.8181 20.9997 12C20.9997 13.1819 20.7669 14.3522 20.3146 15.4442C19.8623 16.5361 19.1994 17.5282 18.3637 18.364C17.5279 19.1997 16.5358 19.8626 15.4439 20.3149C14.3519 20.7672 13.1816 21 11.9997 21C10.8178 21 9.64748 20.7672 8.55555 20.3149C7.46362 19.8626 6.47147 19.1997 5.63574 18.364" stroke="#202939" stroke-width="2" stroke-linecap="round" stroke-linejoin="round"/>
</svg>
