<svg width="24" height="24" viewBox="0 0 24 24" fill="none" xmlns="http://www.w3.org/2000/svg">
<path opacity="0.4" fill-rule="evenodd" clip-rule="evenodd" d="M21.1199 7.65621V14.7794C21.1199 16.709 19.9103 18.3506 18.2111 18.9842C17.7599 19.1666 17.2799 19.2626 16.7711 19.2722C16.7231 19.2818 16.6751 19.2818 16.6271 19.2818H7.37268C7.32468 19.2818 7.28628 19.2818 7.23828 19.2722C6.72948 19.2626 6.24948 19.1666 5.79828 18.9938C4.09908 18.3602 2.87988 16.709 2.87988 14.7794V7.65621C2.87988 5.16981 4.89588 3.15381 7.37268 3.15381H16.6271C19.1039 3.15381 21.1199 5.16981 21.1199 7.65621Z" fill="#202939"/>
<path fill-rule="evenodd" clip-rule="evenodd" d="M12.002 12.6246C11.2225 12.6246 10.5889 11.992 10.5889 11.2144C10.5889 10.4473 11.2062 9.82327 11.9694 9.80599C11.9809 9.80599 11.9895 9.81175 12.0001 9.81175C12.0116 9.81175 12.0203 9.80599 12.0318 9.80599C12.7959 9.82231 13.4132 10.4464 13.4132 11.2144C13.4132 11.992 12.7806 12.6246 12.002 12.6246ZM15.9159 10.4944H14.7495C14.4894 9.50263 13.7127 8.72599 12.7201 8.46583V7.29751C12.7201 6.90007 12.3975 6.57751 12.0001 6.57751C11.6027 6.57751 11.2801 6.90007 11.2801 7.29751V8.46679C10.2894 8.72791 9.51279 9.50359 9.25263 10.4944H8.08719C7.68975 10.4944 7.36719 10.8169 7.36719 11.2144C7.36719 11.6118 7.68975 11.9344 8.08719 11.9344H9.25263C9.51279 12.9241 10.2894 13.6998 11.2801 13.9609V15.1312C11.2801 15.5286 11.6027 15.8512 12.0001 15.8512C12.3975 15.8512 12.7201 15.5286 12.7201 15.1312V13.9619C13.7118 13.7017 14.4894 12.926 14.7495 11.9344H15.9159C16.3134 11.9344 16.6359 11.6118 16.6359 11.2144C16.6359 10.8169 16.3134 10.4944 15.9159 10.4944Z" fill="#202939"/>
<path fill-rule="evenodd" clip-rule="evenodd" d="M5.79834 20.1269C5.79834 20.5205 6.11514 20.8469 6.51834 20.8469C6.91194 20.8469 7.23834 20.5205 7.23834 20.1269V19.2725C6.72954 19.2629 6.24954 19.1669 5.79834 18.9941V20.1269Z" fill="#202939"/>
<path fill-rule="evenodd" clip-rule="evenodd" d="M16.7712 19.2729V20.1273C16.7712 20.5209 17.088 20.8473 17.4912 20.8473C17.8848 20.8473 18.2112 20.5209 18.2112 20.1273V18.9849C17.76 19.1673 17.28 19.2633 16.7712 19.2729Z" fill="#202939"/>
</svg>
