<svg width="24" height="24" viewBox="0 0 24 24" fill="none" xmlns="http://www.w3.org/2000/svg">
  <path fill-rule="evenodd" clip-rule="evenodd"
    d="M16.079 11.9352H14.864C14.593 12.9672 13.783 13.7762 12.75 14.0472V15.2652C12.75 15.6792 12.414 16.0152 12 16.0152C11.586 16.0152 11.25 15.6792 11.25 15.2652V14.0462C10.218 13.7742 9.409 12.9662 9.138 11.9352H7.924C7.51 11.9352 7.174 11.5992 7.174 11.1852C7.174 10.7712 7.51 10.4352 7.924 10.4352H9.138C9.409 9.40316 10.217 8.59416 11.25 8.32316V7.10516C11.25 6.69116 11.586 6.35516 12 6.35516C12.414 6.35516 12.75 6.69116 12.75 7.10516V8.32216C13.783 8.59216 14.593 9.40216 14.864 10.4352H16.079C16.493 10.4352 16.829 10.7712 16.829 11.1852C16.829 11.5992 16.493 11.9352 16.079 11.9352ZM16.818 2.78516H7.183C4.6 2.78516 2.5 4.88816 2.5 7.47416V14.9042C2.5 16.9042 3.767 18.6012 5.536 19.2702V20.4642C5.536 20.8782 5.872 21.2142 6.286 21.2142C6.7 21.2142 7.036 20.8782 7.036 20.4642V19.5702C7.086 19.5712 7.133 19.5842 7.183 19.5842H16.817C16.868 19.5842 16.916 19.5712 16.968 19.5692V20.4642C16.968 20.8782 17.304 21.2142 17.718 21.2142C18.132 21.2142 18.468 20.8782 18.468 20.4642V19.2692C20.235 18.5992 21.5 16.9022 21.5 14.9042V7.47416C21.5 4.88816 19.399 2.78516 16.818 2.78516Z"
    fill="#202939" />
  <path fill-rule="evenodd" clip-rule="evenodd"
    d="M12.0328 9.71777C12.0208 9.71877 12.0118 9.72477 11.9998 9.72477C11.9888 9.72477 11.9798 9.71877 11.9688 9.71777C11.1728 9.73677 10.5298 10.3868 10.5298 11.1858C10.5298 11.9948 11.1908 12.6538 12.0018 12.6538C12.8128 12.6538 13.4718 11.9948 13.4718 11.1858C13.4718 10.3858 12.8288 9.73477 12.0328 9.71777Z"
    fill="#202939" />
</svg>