<svg width="24" height="24" viewBox="0 0 24 24" fill="none" xmlns="http://www.w3.org/2000/svg">
<path opacity="0.4" d="M10.3925 21.5368C10.9263 21.8452 11.5264 22 12.1254 22C12.7244 22 13.3245 21.8452 13.8583 21.5368L19.5179 18.269C20.5876 17.6521 21.2518 16.5014 21.2518 15.2675V8.73088C21.2518 7.49809 20.5876 6.34741 19.5179 5.73049L13.8583 2.46269C12.7897 1.84577 11.4611 1.84577 10.3925 2.46269L4.73286 5.73049C3.6643 6.34846 3 7.49809 3 8.73088V15.2675C3 16.5014 3.6643 17.651 4.73286 18.269L10.3925 21.5368Z" fill="#202939"/>
<path fill-rule="evenodd" clip-rule="evenodd" d="M12.1251 15.1692C13.8759 15.1692 15.2939 13.7501 15.2939 12.0004C15.2939 10.2486 13.8759 8.83044 12.1251 8.83044C10.3754 8.83044 8.9563 10.2486 8.9563 12.0004C8.9563 13.7501 10.3754 15.1692 12.1251 15.1692Z" fill="#202939"/>
</svg>
