<svg width="24" height="24" viewBox="0 0 24 24" fill="none" xmlns="http://www.w3.org/2000/svg">
<path fill-rule="evenodd" clip-rule="evenodd" d="M16.6451 3.35986C18.0771 3.35986 19.2371 4.51995 19.2371 5.95183C19.2371 7.38372 18.0771 8.54381 16.6451 8.54381C15.2133 8.54381 14.0532 7.38372 14.0532 5.95183C14.0532 4.51995 15.2133 3.35986 16.6451 3.35986Z" stroke="#1D2636" stroke-width="1.44" stroke-linecap="round" stroke-linejoin="round"/>
<path fill-rule="evenodd" clip-rule="evenodd" d="M6.27752 9.40771C7.70941 9.40771 8.86949 10.5678 8.86949 11.9997C8.86949 13.4316 7.70941 14.5917 6.27752 14.5917C4.84563 14.5917 3.68555 13.4316 3.68555 11.9997C3.68555 10.5678 4.84563 9.40771 6.27752 9.40771Z" stroke="#1D2636" stroke-width="1.44" stroke-linecap="round" stroke-linejoin="round"/>
<path fill-rule="evenodd" clip-rule="evenodd" d="M16.6451 15.4561C18.0771 15.4561 19.2371 16.6161 19.2371 18.048C19.2371 19.4789 18.0771 20.64 16.6451 20.64C15.2133 20.64 14.0532 19.4789 14.0532 18.048C14.0532 16.6161 15.2133 15.4561 16.6451 15.4561Z" stroke="#1D2636" stroke-width="1.44" stroke-linecap="round" stroke-linejoin="round"/>
<path d="M8.51458 13.3039L14.4159 16.7431M14.4066 7.25635L8.51367 10.6946" stroke="#1D2636" stroke-width="1.44" stroke-linecap="round" stroke-linejoin="round"/>
</svg>
