<svg width="24" height="24" viewBox="0 0 24 24" fill="none" xmlns="http://www.w3.org/2000/svg">
<path opacity="0.4" fill-rule="evenodd" clip-rule="evenodd" d="M19.8701 8.54C19.8501 9.51 19.8201 10.83 19.8201 12.67C19.8201 14.92 18.8801 16.67 17.6601 18C17.2801 18.41 16.8801 18.78 16.4701 19.1C14.4201 20.76 12.1901 21.46 12.1501 21.47C12.1001 21.49 12.0501 21.5 12.0001 21.5C11.9501 21.5 11.9001 21.49 11.8501 21.47C11.8101 21.46 9.56007 20.76 7.51007 19.09C7.10007 18.76 6.70007 18.39 6.33007 17.98C5.11007 16.66 4.18007 14.91 4.18007 12.67C4.18007 10.83 4.15007 9.5 4.13007 8.53C4.09007 6.13 4.08007 5.69 4.64007 5.13C5.35007 4.43 10.9801 2.5 12.0001 2.5C13.0201 2.5 18.6501 4.43 19.3601 5.13C19.9201 5.7 19.9101 6.13 19.8701 8.54Z" fill="#1C1C1C"/>
<path fill-rule="evenodd" clip-rule="evenodd" d="M17.6601 17.9999C17.2801 18.4099 16.8801 18.7799 16.4701 19.0999C16.2201 18.2199 15.3001 16.6699 11.9801 16.6699C8.66008 16.6699 7.75008 18.2199 7.51008 19.0899C7.10008 18.7599 6.70008 18.3899 6.33008 17.9799C7.05008 16.4599 8.80008 15.1699 11.9801 15.1699C15.1801 15.1699 16.9301 16.4699 17.6601 17.9999Z" fill="#1C1C1C"/>
<path fill-rule="evenodd" clip-rule="evenodd" d="M11.9803 12.5906C10.8303 12.5906 9.88037 11.6506 9.88037 10.5006C9.88037 9.34062 10.8303 8.39062 11.9803 8.39062C13.1403 8.39062 14.0803 9.34062 14.0803 10.5006C14.0803 11.6506 13.1403 12.5906 11.9803 12.5906ZM11.9803 6.89062C10.0003 6.89062 8.38037 8.51062 8.38037 10.5006C8.38037 12.4806 10.0003 14.0906 11.9803 14.0906C13.9703 14.0906 15.5803 12.4806 15.5803 10.5006C15.5803 8.51062 13.9703 6.89062 11.9803 6.89062Z" fill="#1C1C1C"/>
</svg>
