<svg width="24" height="24" viewBox="0 0 24 24" fill="none" xmlns="http://www.w3.org/2000/svg">
<path d="M15.7012 18.9521L16.1925 20.4758" stroke="#1C1C1C" stroke-width="1.5" stroke-linecap="round" stroke-linejoin="round"/>
<path d="M8.57044 18.9521L8.0791 20.4758" stroke="#1C1C1C" stroke-width="1.5" stroke-linecap="round" stroke-linejoin="round"/>
<path fill-rule="evenodd" clip-rule="evenodd" d="M18.9939 10.6201C17.8263 10.624 16.8806 11.5697 16.8767 12.7373V13.5769C16.8767 14.1597 16.4048 14.6316 15.822 14.6316H8.18522C7.60339 14.6316 7.13053 14.1597 7.13053 13.5769V12.7402C7.12761 11.5707 6.17994 10.624 5.01044 10.6201C3.90321 10.6201 3.00517 11.5172 3.00517 12.6244V12.6283C2.98668 13.4903 3.01781 14.3524 3.09857 15.2105C3.25327 16.9843 4.67282 18.3834 6.44848 18.5128C7.27939 18.6422 10.6069 18.6422 11.9944 18.6422C13.3818 18.6422 17.0703 18.614 17.5519 18.5108C19.3237 18.3766 20.7374 16.9804 20.8911 15.2105C20.9729 14.3582 21.0089 13.502 20.9982 12.6448C21.0079 11.5376 20.1186 10.6308 19.0104 10.6201H18.9939Z" stroke="#1C1C1C" stroke-width="1.5" stroke-linecap="round" stroke-linejoin="round"/>
<path d="M5.10688 10.7C5.0738 9.51202 5.11758 8.32209 5.23726 7.13994C5.36958 5.33412 6.79205 3.89024 8.59592 3.7336C10.8736 3.45338 13.1776 3.45338 15.4553 3.7336C17.2495 3.91165 18.6632 5.34288 18.8188 7.13994C18.9531 8.32111 18.9979 9.51202 18.9541 10.7" stroke="#1C1C1C" stroke-width="1.5"/>
<path d="M10.01 7.24414H10" stroke="#1C1C1C" stroke-width="1.5" stroke-linecap="round" stroke-linejoin="round"/>
<path d="M10.0002 10.2441H9.99023" stroke="#1C1C1C" stroke-width="1.5" stroke-linecap="round" stroke-linejoin="round"/>
<path d="M14.01 7.24414H14" stroke="#1C1C1C" stroke-width="1.5" stroke-linecap="round" stroke-linejoin="round"/>
<path d="M14.01 10.2441H14" stroke="#1C1C1C" stroke-width="1.5" stroke-linecap="round" stroke-linejoin="round"/>
</svg>
