<svg width="24" height="24" viewBox="0 0 24 24" fill="none" xmlns="http://www.w3.org/2000/svg">
<circle cx="12" cy="12" r="12" fill="#F1F3FA"/>
<path d="M8.67393 17V15.44L11.2739 12.762C11.7853 12.2333 12.1709 11.8173 12.4309 11.514C12.6996 11.202 12.8816 10.942 12.9769 10.734C13.0809 10.526 13.1329 10.3223 13.1329 10.123C13.1329 9.76767 13.0159 9.49033 12.7819 9.291C12.5566 9.083 12.2706 8.979 11.9239 8.979C11.5686 8.979 11.2523 9.083 10.9749 9.291C10.6976 9.49033 10.4939 9.798 10.3639 10.214L8.60893 9.642C8.71293 9.13933 8.9296 8.70167 9.25893 8.329C9.58826 7.95633 9.98693 7.67033 10.4549 7.471C10.9229 7.263 11.4126 7.159 11.9239 7.159C12.5653 7.159 13.1286 7.27167 13.6139 7.497C14.0993 7.72233 14.4763 8.03867 14.7449 8.446C15.0136 8.85333 15.1479 9.33 15.1479 9.876C15.1479 10.2227 15.0873 10.565 14.9659 10.903C14.8446 11.2323 14.6583 11.5703 14.4069 11.917C14.1643 12.255 13.8479 12.6233 13.4579 13.022L11.2349 15.31H15.2389V17H8.67393Z" fill="#202939"/>
</svg>
