<svg width="24" height="24" viewBox="0 0 24 24" fill="none" xmlns="http://www.w3.org/2000/svg">
<path opacity="0.4" fill-rule="evenodd" clip-rule="evenodd" d="M5.17606 12.0871C5.09415 12.0871 5.0129 12.0835 4.9322 12.077C4.75594 12.0629 4.59814 12.196 4.59814 12.3728V17.1387C4.60198 17.9422 4.91782 18.6948 5.48902 19.2583C6.05254 19.8161 6.79846 20.1223 7.58662 20.1223H8.62726C8.78633 20.1223 8.91526 19.9934 8.91526 19.8343V16.9639C8.91526 15.259 10.2986 13.8727 11.9997 13.8727C13.6999 13.8727 15.0842 15.259 15.0842 16.9639V19.8343C15.0842 19.9934 15.2131 20.1223 15.3722 20.1223H16.386C17.153 20.1281 17.9412 19.8199 18.5105 19.2574C19.0807 18.6939 19.3975 17.9412 19.4013 17.1367V12.3728C19.4013 12.196 19.2435 12.0628 19.0673 12.077C18.9864 12.0834 18.9051 12.0871 18.8234 12.0871H5.17606Z" fill="#1C1C1C"/>
<path d="M7.05201 10.6319C7.19459 10.6307 7.31434 10.5252 7.33417 10.384L8.25581 3.82307C8.28015 3.64978 8.1456 3.495 7.97061 3.495H6.03438C5.07246 3.495 4.23054 4.08444 3.88398 5.00892L3.0315 7.49244C2.75982 8.21531 2.85966 9.0246 3.29838 9.65818C3.73422 10.287 4.4187 10.647 5.17614 10.647C5.33766 10.647 6.52716 10.6366 7.05201 10.6319Z" fill="#1C1C1C"/>
<path d="M14.9167 10.647C15.0917 10.647 15.2263 10.4922 15.2023 10.3188C15.106 9.62122 15.0142 8.92195 14.9224 8.22248C14.7259 6.72404 14.5291 5.22416 14.2864 3.73572C14.2637 3.59677 14.1435 3.495 14.0028 3.495H10.0025C9.85888 3.495 9.73753 3.59846 9.71764 3.74073C9.58331 4.70149 9.08678 8.25249 8.79654 10.3205C8.77223 10.4939 8.907 10.647 9.08199 10.647H14.9167Z" fill="#1C1C1C"/>
<path d="M20.1104 4.9974L20.9725 7.50492C21.2394 8.21531 21.1386 9.0246 20.6999 9.65818C20.265 10.286 19.5805 10.647 18.8231 10.647H16.9425C16.8018 10.647 16.6815 10.5452 16.6589 10.4063C16.4162 8.91839 16.2196 7.41932 16.023 5.9214C15.9313 5.2213 15.8395 4.52145 15.743 3.82311C15.719 3.64977 15.8536 3.495 16.0286 3.495H17.9648C18.9143 3.495 19.7764 4.09884 20.1104 4.9974Z" fill="#1C1C1C"/>
<path d="M10.3552 16.9633C10.3552 16.0523 11.0935 15.3121 11.9997 15.3121C12.9059 15.3121 13.6442 16.0523 13.6442 16.9633V19.8337C13.6442 19.9928 13.5153 20.1217 13.3562 20.1217H10.6432C10.4842 20.1217 10.3552 19.9928 10.3552 19.8337V16.9633Z" fill="#1C1C1C"/>
</svg>
