<svg width="24" height="24" viewBox="0 0 24 24" fill="none" xmlns="http://www.w3.org/2000/svg">
<path d="M8.80733 7.76007C8.80733 9.51449 7.32108 10.9368 5.63062 10.9368C3.94016 10.9368 2.20845 9.46601 2.45495 7.76007C2.58491 6.8576 3.01191 5.43737 3.38527 4.30077C3.73698 3.22605 4.73949 2.50098 5.87093 2.50098H18.059C19.1852 2.50098 20.1837 3.21987 20.5405 4.28736C20.921 5.42602 21.3574 6.85347 21.4884 7.76007C21.7348 9.46601 20.0032 10.9368 18.3126 10.9368C16.6222 10.9368 15.1359 9.51449 15.1359 7.76007" stroke="#202939" stroke-width="1.59004" stroke-linecap="round" stroke-linejoin="round"/>
<path d="M8.79492 6.76599V7.75923C8.79492 9.51364 10.2172 10.9349 11.9716 10.9349C13.725 10.9349 15.1473 9.51364 15.1473 7.75923V6.76599" stroke="#202939" stroke-width="1.59004" stroke-linecap="round" stroke-linejoin="round"/>
<path d="M3.86646 13.387V16.9082C3.86646 19.599 5.54248 21.501 8.23546 21.501H15.941C18.6351 21.501 20.3121 19.599 20.3121 16.9082V13.387" stroke="#202939" stroke-width="1.59004" stroke-linecap="round" stroke-linejoin="round"/>
<path d="M9.19775 21.5002V18.1935C9.19775 16.6619 10.4396 15.4202 11.9712 15.4202C13.5028 15.4202 14.7436 16.6619 14.7436 18.1935V21.5002" stroke="#202939" stroke-width="1.59004" stroke-linecap="round" stroke-linejoin="round"/>
<path d="M16.7058 13.9757H16.6379M16.6911 14.2504C16.5385 14.2504 16.4148 14.1266 16.4148 13.974C16.4148 13.8212 16.5385 13.6976 16.6911 13.6976C16.8438 13.6976 16.9676 13.8212 16.9676 13.974C16.9676 14.1266 16.8438 14.2504 16.6911 14.2504Z" stroke="#202939" stroke-width="1.59004" stroke-linecap="round" stroke-linejoin="round"/>
</svg>
