<svg width="24" height="24" viewBox="0 0 24 24" fill="none" xmlns="http://www.w3.org/2000/svg">
<path fill-rule="evenodd" clip-rule="evenodd" d="M11.9724 15.7875C11.0037 15.7875 10.2156 16.5756 10.2156 17.5443V20.6403C10.2156 20.7993 10.3445 20.9283 10.5036 20.9283H13.4421C13.6012 20.9283 13.7301 20.7993 13.7301 20.6403V17.5443C13.7301 16.5756 12.941 15.7875 11.9724 15.7875Z" fill="#1C1C1C"/>
<path fill-rule="evenodd" clip-rule="evenodd" d="M18.1586 15.3066C18.1586 15.704 17.836 16.0314 17.4386 16.0314C17.0411 16.0314 16.7186 15.7136 16.7186 15.3162V15.3066C16.7186 14.9092 17.0411 14.5866 17.4386 14.5866C17.836 14.5866 18.1586 14.9092 18.1586 15.3066ZM14.9797 11.7908C14.8741 11.7186 14.7346 11.7187 14.6291 11.7909C13.8696 12.3105 12.9598 12.6244 11.9723 12.6244C10.9848 12.6244 10.075 12.3104 9.31477 11.7908C9.20922 11.7186 9.06957 11.7187 8.96405 11.7909C8.20463 12.3105 7.29482 12.6244 6.30738 12.6244C5.62428 12.6244 4.94367 12.4685 4.3168 12.1844C4.11502 12.093 3.87378 12.2337 3.87378 12.4552V17.6951C3.87858 18.5629 4.22034 19.378 4.83858 19.9885C5.45202 20.5952 6.26226 20.9284 7.11954 20.9284H8.48754C8.64659 20.9284 8.77554 20.7994 8.77554 20.6404V17.5444C8.77554 15.7808 10.2098 14.3466 11.9723 14.3466C13.7359 14.3466 15.1701 15.7808 15.1701 17.5444V20.6404C15.1701 20.7994 15.299 20.9284 15.4581 20.9284H16.8203C18.6031 20.9284 20.0603 19.4826 20.0719 17.6932V12.4542C20.0719 12.2328 19.8306 12.092 19.6288 12.1835C19.0017 12.4679 18.3204 12.6244 17.6373 12.6244C16.6498 12.6244 15.74 12.3104 14.9797 11.7908Z" fill="#1C1C1C"/>
<path fill-rule="evenodd" clip-rule="evenodd" d="M20.9501 7.79304C20.8243 6.93096 20.4086 5.586 20.0822 4.60872C19.6973 3.46056 18.623 2.68872 17.4096 2.68872H6.52033C5.30017 2.68872 4.22497 3.46536 3.84385 4.62216C3.37921 6.04104 3.09313 7.1076 2.99425 7.79304C2.88385 8.55528 3.12769 9.32616 3.67873 9.96362C4.33057 10.7163 5.33761 11.1838 6.30721 11.1838C7.32461 11.1838 8.245 10.693 8.85676 9.94336C8.99388 9.77536 9.26914 9.77652 9.40526 9.94538C10.0119 10.698 10.9333 11.1838 11.9722 11.1838C13.0118 11.1838 13.9332 10.698 14.5393 9.94557C14.6753 9.77661 14.9506 9.77527 15.0878 9.94317C15.7001 10.693 16.6205 11.1838 17.6371 11.1838C18.6058 11.1838 19.6109 10.7163 20.2637 9.96458C20.8157 9.32808 21.0595 8.55624 20.9501 7.79304Z" fill="#1C1C1C"/>
</svg>
