<svg width="24" height="24" viewBox="0 0 24 24" fill="none" xmlns="http://www.w3.org/2000/svg">
<g filter="url(#filter0_d_2022_17794)">
<g style="mix-blend-mode:multiply" opacity="0.2">
<g style="mix-blend-mode:multiply" opacity="0.2">
<g style="mix-blend-mode:multiply">
<path d="M21.1923 10.6435V14.9995C21.1943 15.4974 21.0708 15.9877 20.8334 16.4253C20.5959 16.8628 20.2521 17.2336 19.8336 17.5032C19.4151 17.7729 18.9354 17.9327 18.4388 17.9681C17.9423 18.0034 17.4447 17.9131 16.9923 17.7055C16.6269 18.5876 16.0098 19.3425 15.2181 19.876C14.4263 20.4096 13.4949 20.698 12.5403 20.7055C11.8928 20.6977 11.2533 20.5623 10.6583 20.3071C10.0632 20.052 9.52432 19.6819 9.07234 19.2183C8.62042 18.7547 8.26432 18.2065 8.02444 17.6051C7.7845 17.0037 7.66552 16.3609 7.67428 15.7135V10.6675C7.67266 10.5596 7.69234 10.4524 7.73218 10.3521C7.77208 10.2517 7.8313 10.1602 7.90648 10.0828C7.98172 10.0053 8.07148 9.94347 8.1706 9.90069C8.26972 9.85791 8.37628 9.83511 8.48428 9.83355H20.4003C20.612 9.83829 20.8134 9.92565 20.9614 10.0771C21.1094 10.2285 21.1923 10.4318 21.1923 10.6435ZM18.1923 8.75355C18.5675 8.75355 18.9343 8.64219 19.2462 8.43363C19.5582 8.22501 19.8012 7.92855 19.9445 7.58175C20.0878 7.23495 20.125 6.85341 20.0514 6.48543C19.9777 6.11751 19.7966 5.77965 19.5308 5.51475C19.265 5.24985 18.9266 5.06973 18.5585 4.99725C18.1902 4.92477 17.8089 4.96317 17.4625 5.10759C17.1162 5.25201 16.8205 5.49597 16.6128 5.80857C16.4052 6.12117 16.2951 6.48831 16.2963 6.86355C16.2962 7.11483 16.3463 7.36353 16.4435 7.59525C16.5407 7.82691 16.6832 8.03691 16.8625 8.21289C17.0418 8.38887 17.2544 8.52729 17.4879 8.62017C17.7214 8.71299 17.9711 8.75835 18.2223 8.75355H18.1923ZM12.5102 8.75355C13.0454 8.75355 13.5686 8.59485 14.0136 8.29749C14.4586 8.00019 14.8055 7.57755 15.0102 7.08309C15.2151 6.58863 15.2687 6.04455 15.1643 5.51967C15.0599 4.99473 14.8021 4.51257 14.4237 4.13415C14.0453 3.75567 13.5631 3.49796 13.0382 3.39355C12.5133 3.28914 11.9691 3.34272 11.4747 3.54753C10.9803 3.75237 10.5576 4.09917 10.2603 4.54419C9.96298 4.98921 9.80428 5.51235 9.80428 6.04755C9.80422 6.40545 9.8752 6.75981 10.0131 7.09005C10.1509 7.42035 10.3529 7.71999 10.6074 7.97169C10.8618 8.22333 11.1637 8.42205 11.4955 8.55627C11.8273 8.69043 12.1824 8.75751 12.5403 8.75355H12.5102Z" fill="white"/>
</g>
</g>
</g>
<g style="mix-blend-mode:multiply" opacity="0.12">
<g style="mix-blend-mode:multiply" opacity="0.12">
<g style="mix-blend-mode:multiply">
<path d="M21.1923 10.6436V14.9996C21.1943 15.4974 21.0708 15.9877 20.8334 16.4253C20.5959 16.8629 20.2521 17.2335 19.8336 17.5032C19.4151 17.7728 18.9354 17.9327 18.4388 17.9681C17.9423 18.0035 17.4447 17.9132 16.9923 17.7056C16.6269 18.5876 16.0098 19.3425 15.2181 19.8761C14.4263 20.4096 13.4949 20.6981 12.5403 20.7056C11.8928 20.6977 11.2533 20.5623 10.6583 20.3072C10.0632 20.052 9.52432 19.682 9.07234 19.2183C8.62042 18.7547 8.26432 18.2065 8.02444 17.6051C7.7845 17.0037 7.66552 16.361 7.67428 15.7136V10.6676C7.67266 10.5596 7.69234 10.4524 7.73218 10.3521C7.77208 10.2517 7.8313 10.1602 7.90648 10.0827C7.98172 10.0053 8.07148 9.94343 8.1706 9.90071C8.26972 9.85793 8.37628 9.83513 8.48428 9.83357H20.4003C20.612 9.83825 20.8134 9.92567 20.9614 10.077C21.1094 10.2285 21.1923 10.4318 21.1923 10.6436ZM18.1923 8.75357C18.5675 8.75357 18.9343 8.64221 19.2462 8.43359C19.5582 8.22503 19.8012 7.92851 19.9445 7.58171C20.0878 7.23491 20.125 6.85343 20.0514 6.48545C19.9777 6.11753 19.7966 5.77967 19.5308 5.51477C19.265 5.24987 18.9266 5.06975 18.5585 4.99727C18.1902 4.92479 17.8089 4.96319 17.4625 5.10761C17.1162 5.25203 16.8205 5.49599 16.6128 5.80859C16.4052 6.12113 16.2951 6.48833 16.2963 6.86357C16.2962 7.11479 16.3463 7.36355 16.4435 7.59527C16.5407 7.82693 16.6832 8.03687 16.8625 8.21291C17.0418 8.38889 17.2544 8.52731 17.4879 8.62013C17.7214 8.71301 17.9711 8.75837 18.2223 8.75357H18.1923ZM12.5102 8.75357C13.0454 8.75357 13.5686 8.59487 14.0136 8.29751C14.4586 8.00015 14.8055 7.57757 15.0102 7.08311C15.2151 6.58865 15.2687 6.04457 15.1643 5.51963C15.0599 4.99475 14.8021 4.51259 14.4237 4.13411C14.0453 3.75569 13.5631 3.49796 13.0382 3.39355C12.5133 3.28914 11.9691 3.34272 11.4747 3.54753C10.9803 3.75233 10.5576 4.09919 10.2603 4.54421C9.96298 4.98917 9.80428 5.51237 9.80428 6.04757C9.80422 6.40547 9.8752 6.75977 10.0131 7.09007C10.1509 7.42037 10.3529 7.72001 10.6074 7.97165C10.8618 8.22335 11.1637 8.42201 11.4955 8.55623C11.8273 8.69045 12.1824 8.75753 12.5403 8.75357H12.5102Z" fill="white"/>
</g>
</g>
</g>
<path d="M21.1923 10.6436V14.9996C21.1943 15.4974 21.0709 15.9877 20.8334 16.4253C20.596 16.8629 20.2521 17.2335 19.8336 17.5032C19.4151 17.7728 18.9354 17.9327 18.4389 17.9681C17.9423 18.0035 17.4447 17.9132 16.9923 17.7056C16.6269 18.5876 16.0098 19.3425 15.2181 19.8761C14.4263 20.4096 13.495 20.6981 12.5403 20.7056C11.8929 20.6977 11.2533 20.5623 10.6583 20.3072C10.0632 20.052 9.52431 19.682 9.07239 19.2183C8.62041 18.7547 8.26431 18.2065 8.02443 17.6051C7.78455 17.0037 7.66557 16.361 7.67427 15.7136V10.6676C7.67265 10.5596 7.69239 10.4524 7.73223 10.3521C7.77207 10.2517 7.83129 10.1602 7.90653 10.0827C7.98171 10.0053 8.07147 9.94343 8.17059 9.90071C8.26971 9.85793 8.37633 9.83513 8.48427 9.83357H20.4003C20.612 9.83825 20.8134 9.92567 20.9615 10.077C21.1095 10.2285 21.1923 10.4318 21.1923 10.6436ZM18.1923 8.75357C18.5675 8.75357 18.9344 8.64221 19.2462 8.43359C19.5582 8.22503 19.8012 7.92851 19.9445 7.58171C20.0879 7.23491 20.1251 6.85343 20.0514 6.48545C19.9778 6.11753 19.7966 5.77967 19.5308 5.51477C19.2651 5.24987 18.9267 5.06975 18.5585 4.99727C18.1903 4.92479 17.8089 4.96319 17.4626 5.10761C17.1162 5.25203 16.8205 5.49599 16.6129 5.80859C16.4053 6.12113 16.2951 6.48833 16.2963 6.86357C16.2962 7.11479 16.3463 7.36355 16.4435 7.59527C16.5407 7.82693 16.6832 8.03687 16.8625 8.21291C17.0418 8.38889 17.2545 8.52731 17.4879 8.62013C17.7214 8.71301 17.9711 8.75837 18.2223 8.75357H18.1923ZM12.5103 8.75357C13.0455 8.75357 13.5686 8.59487 14.0136 8.29751C14.4587 8.00015 14.8055 7.57757 15.0103 7.08311C15.2151 6.58865 15.2687 6.04457 15.1643 5.51963C15.0599 4.99475 14.8022 4.51259 14.4237 4.13411C14.0453 3.75569 13.5631 3.49796 13.0382 3.39355C12.5133 3.28914 11.9692 3.34272 11.4747 3.54753C10.9803 3.75233 10.5576 4.09919 10.2603 4.54421C9.96297 4.98917 9.80427 5.51237 9.80427 6.04757C9.80427 6.40547 9.87519 6.75977 10.0131 7.09007C10.151 7.42037 10.353 7.72001 10.6074 7.97165C10.8619 8.22335 11.1638 8.42201 11.4955 8.55623C11.8273 8.69045 12.1824 8.75753 12.5403 8.75357H12.5103Z" fill="#7B83EB"/>
<path d="M15.6662 9.83407H20.4002C20.5066 9.83407 20.6119 9.85501 20.7102 9.89569C20.8084 9.93643 20.8977 9.99607 20.973 10.0713C21.0481 10.1465 21.1078 10.2358 21.1485 10.3341C21.1893 10.4323 21.2102 10.5377 21.2102 10.6441V15.0001C21.2102 15.7957 20.8941 16.5588 20.3315 17.1214C19.7689 17.684 19.0059 18.0001 18.2102 18.0001C17.4145 18.0001 16.6515 17.684 16.0888 17.1214C15.5263 16.5588 15.2102 15.7957 15.2102 15.0001V10.2601C15.21 10.2015 15.222 10.1436 15.2452 10.0898C15.2685 10.036 15.3026 9.98767 15.3454 9.94771C15.3882 9.90775 15.4387 9.87703 15.4939 9.85747C15.5491 9.83791 15.6078 9.82993 15.6662 9.83407Z" fill="#5059C9"/>
<path d="M18.2223 8.75363C19.2661 8.75363 20.1123 7.90745 20.1123 6.86363C20.1123 5.81981 19.2661 4.97363 18.2223 4.97363C17.1785 4.97363 16.3323 5.81981 16.3323 6.86363C16.3323 7.90745 17.1785 8.75363 18.2223 8.75363Z" fill="#5059C9"/>
<path d="M12.5402 8.75356C14.0347 8.75356 15.2462 7.54204 15.2462 6.04756C15.2462 4.55308 14.0347 3.34155 12.5402 3.34155C11.0457 3.34155 9.83423 4.55308 9.83423 6.04756C9.83423 7.54204 11.0457 8.75356 12.5402 8.75356Z" fill="#7B83EB"/>
<g style="mix-blend-mode:multiply" opacity="0.3">
<g style="mix-blend-mode:multiply" opacity="0.3">
<g style="mix-blend-mode:multiply">
<path d="M16.5961 9.83374H8.48414C8.3762 9.8353 8.26964 9.8581 8.17052 9.90088C8.07134 9.94366 7.98164 10.0055 7.9064 10.0829C7.83116 10.1604 7.77194 10.2519 7.7321 10.3523C7.69226 10.4526 7.67258 10.5598 7.67414 10.6677V15.6597C7.65122 16.3127 7.76 16.9637 7.99406 17.5737C8.22812 18.1837 8.58266 18.7404 9.0365 19.2104C9.49034 19.6805 10.0342 20.0543 10.6356 20.3096C11.2371 20.565 11.8837 20.6966 12.5371 20.6966C13.1905 20.6966 13.8373 20.565 14.4387 20.3096C15.0402 20.0543 15.584 19.6805 16.0378 19.2104C16.4917 18.7404 16.8462 18.1837 17.0802 17.5737C17.3143 16.9637 17.4231 16.3127 17.4001 15.6597V10.6677C17.4034 10.4507 17.3206 10.2413 17.17 10.085C17.0194 9.92878 16.8131 9.83848 16.5961 9.83374Z" fill="white"/>
</g>
</g>
</g>
<g style="mix-blend-mode:multiply" opacity="0.24">
<g style="mix-blend-mode:multiply" opacity="0.24">
<g style="mix-blend-mode:multiply">
<path d="M16.5962 9.83374H8.48415C8.37621 9.8353 8.26959 9.8581 8.17047 9.90088C8.07135 9.94366 7.98159 10.0055 7.90641 10.0829C7.83117 10.1604 7.77195 10.2519 7.73211 10.3523C7.69221 10.4526 7.67253 10.5598 7.67415 10.6677V15.6597C7.65117 16.3127 7.76001 16.9637 7.99407 17.5737C8.22813 18.1837 8.58261 18.7404 9.03645 19.2104C9.49029 19.6805 10.0342 20.0543 10.6356 20.3096C11.237 20.565 11.8838 20.6966 12.5372 20.6966C13.1906 20.6966 13.8372 20.565 14.4387 20.3096C15.0401 20.0543 15.584 19.6805 16.0378 19.2104C16.4916 18.7404 16.8462 18.1837 17.0802 17.5737C17.3143 16.9637 17.4231 16.3127 17.4002 15.6597V10.6677C17.4033 10.4507 17.3207 10.2413 17.17 10.085C17.0194 9.92878 16.8131 9.83848 16.5962 9.83374Z" fill="white"/>
</g>
</g>
</g>
<path d="M16.5962 9.83374H8.48415C8.37621 9.8353 8.26959 9.8581 8.17047 9.90088C8.07135 9.94366 7.98159 10.0055 7.90641 10.0829C7.83117 10.1604 7.77195 10.2519 7.73211 10.3523C7.69221 10.4526 7.67253 10.5598 7.67415 10.6677V15.6597C7.65117 16.3127 7.76001 16.9637 7.99407 17.5737C8.22813 18.1837 8.58261 18.7404 9.03645 19.2104C9.49029 19.6805 10.0342 20.0543 10.6356 20.3096C11.237 20.565 11.8838 20.6966 12.5372 20.6966C13.1906 20.6966 13.8372 20.565 14.4387 20.3096C15.0401 20.0543 15.584 19.6805 16.0378 19.2104C16.4916 18.7404 16.8462 18.1837 17.0802 17.5737C17.3143 16.9637 17.4231 16.3127 17.4002 15.6597V10.6677C17.4033 10.4507 17.3207 10.2413 17.17 10.085C17.0194 9.92878 16.8131 9.83848 16.5962 9.83374Z" fill="#7B83EB"/>
</g>
<g style="mix-blend-mode:multiply" opacity="0.48">
<g style="mix-blend-mode:multiply" opacity="0.48">
<g style="mix-blend-mode:multiply">
<path d="M11.19 7.13477H3.07196C2.62461 7.13477 2.26196 7.49741 2.26196 7.94477V16.0628C2.26196 16.5101 2.62461 16.8728 3.07196 16.8728H11.19C11.6373 16.8728 12 16.5101 12 16.0628V7.94477C12 7.49741 11.6373 7.13477 11.19 7.13477Z" fill="white"/>
</g>
</g>
</g>
<g style="mix-blend-mode:multiply" opacity="0.24">
<g style="mix-blend-mode:multiply" opacity="0.24">
<g style="mix-blend-mode:multiply">
<path d="M11.19 7.13477H3.07196C2.62461 7.13477 2.26196 7.49741 2.26196 7.94477V16.0628C2.26196 16.5101 2.62461 16.8728 3.07196 16.8728H11.19C11.6373 16.8728 12 16.5101 12 16.0628V7.94477C12 7.49741 11.6373 7.13477 11.19 7.13477Z" fill="white"/>
</g>
</g>
</g>
<g filter="url(#filter1_d_2022_17794)">
<path d="M11.19 7.13477H3.07196C2.62461 7.13477 2.26196 7.49741 2.26196 7.94477V16.0628C2.26196 16.5101 2.62461 16.8728 3.07196 16.8728H11.19C11.6373 16.8728 12 16.5101 12 16.0628V7.94477C12 7.49741 11.6373 7.13477 11.19 7.13477Z" fill="#4B53BC"/>
<g style="mix-blend-mode:soft-light" opacity="0.5">
<path style="mix-blend-mode:soft-light" opacity="0.5" d="M11.19 7.13477H3.07196C2.62461 7.13477 2.26196 7.49741 2.26196 7.94477V16.0628C2.26196 16.5101 2.62461 16.8728 3.07196 16.8728H11.19C11.6373 16.8728 12 16.5101 12 16.0628V7.94477C12 7.49741 11.6373 7.13477 11.19 7.13477Z" fill="url(#paint0_linear_2022_17794)"/>
</g>
<path d="M9.27005 10.2012H7.64405V14.6172H6.60005V10.2012H4.99805V9.36719H9.27005V10.2012Z" fill="white"/>
</g>
<defs>
<filter id="filter0_d_2022_17794" x="6.47114" y="3.34155" width="15.9391" height="19.764" filterUnits="userSpaceOnUse" color-interpolation-filters="sRGB">
<feFlood flood-opacity="0" result="BackgroundImageFix"/>
<feColorMatrix in="SourceAlpha" type="matrix" values="0 0 0 0 0 0 0 0 0 0 0 0 0 0 0 0 0 0 127 0" result="hardAlpha"/>
<feOffset dy="1.2"/>
<feGaussianBlur stdDeviation="0.6"/>
<feComposite in2="hardAlpha" operator="out"/>
<feColorMatrix type="matrix" values="0 0 0 0 0 0 0 0 0 0 0 0 0 0 0 0 0 0 0.12 0"/>
<feBlend mode="normal" in2="BackgroundImageFix" result="effect1_dropShadow_2022_17794"/>
<feBlend mode="normal" in="SourceGraphic" in2="effect1_dropShadow_2022_17794" result="shape"/>
</filter>
<filter id="filter1_d_2022_17794" x="2.26196" y="7.13477" width="12.138" height="12.138" filterUnits="userSpaceOnUse" color-interpolation-filters="sRGB">
<feFlood flood-opacity="0" result="BackgroundImageFix"/>
<feColorMatrix in="SourceAlpha" type="matrix" values="0 0 0 0 0 0 0 0 0 0 0 0 0 0 0 0 0 0 127 0" result="hardAlpha"/>
<feOffset dx="1.2" dy="1.2"/>
<feGaussianBlur stdDeviation="0.6"/>
<feComposite in2="hardAlpha" operator="out"/>
<feColorMatrix type="matrix" values="0 0 0 0 0 0 0 0 0 0 0 0 0 0 0 0 0 0 0.22 0"/>
<feBlend mode="normal" in2="BackgroundImageFix" result="effect1_dropShadow_2022_17794"/>
<feBlend mode="normal" in="SourceGraphic" in2="effect1_dropShadow_2022_17794" result="shape"/>
</filter>
<linearGradient id="paint0_linear_2022_17794" x1="3.95395" y1="6.49877" x2="10.308" y2="17.5028" gradientUnits="userSpaceOnUse">
<stop stop-color="white" stop-opacity="0.5"/>
<stop offset="1" stop-opacity="0.7"/>
</linearGradient>
</defs>
</svg>
