<svg width="24" height="24" viewBox="0 0 24 24" fill="none" xmlns="http://www.w3.org/2000/svg">
<path opacity="0.4" fill-rule="evenodd" clip-rule="evenodd" d="M11.998 17.9232C10.6644 17.9232 9.58115 16.843 9.58115 15.5034C9.58115 14.1718 10.6644 13.0926 11.998 13.0926C13.3326 13.0926 14.4148 14.1718 14.4148 15.5034C14.4148 16.843 13.3326 17.9232 11.998 17.9232ZM19.0436 12.0242C19.0296 11.9542 18.9672 11.905 18.8958 11.905C18.6586 11.905 18.4205 11.899 18.1844 11.8939C17.9077 11.8868 17.6068 11.8787 17.2815 11.8787C14.6833 11.8787 13.902 10.0932 13.5271 9.2359C13.2261 8.54988 13.1795 8.44348 11.998 8.44348C10.8175 8.44348 10.7719 8.54887 10.4729 9.2349C10.097 10.0921 9.31769 11.8787 6.71849 11.8787C6.39726 11.8787 6.10036 11.8868 5.82676 11.8929C5.62779 11.8979 5.4278 11.9019 5.22825 11.9027C5.08636 11.9033 4.96228 11.9999 4.92927 12.1379L4.85192 12.4613L4.10003 16.3414C3.93892 17.5564 4.26824 18.7025 5.02622 19.5689C5.85006 20.5102 7.12483 21.0494 8.52425 21.0494H15.4645C16.9359 21.0494 18.309 20.4495 19.1379 19.4452C19.8534 18.5768 20.1248 17.4642 19.9019 16.31L19.0436 12.0242Z" fill="#202939"/>
<path fill-rule="evenodd" clip-rule="evenodd" d="M11.9979 2.95129C2.19487 2.95129 2.92346 6.46756 2.87988 6.86276C2.87988 10.3689 3.95199 9.85209 6.71838 9.85209C9.58613 9.85209 7.49156 6.41689 11.9979 6.41689C16.5052 6.41689 14.4127 9.85209 17.2814 9.85209C20.0478 9.85209 21.1199 10.379 21.1199 6.86276C21.0763 6.46756 21.8008 2.95129 11.9979 2.95129Z" fill="#202939"/>
</svg>
