<svg width="24" height="24" viewBox="0 0 24 24" fill="none" xmlns="http://www.w3.org/2000/svg">
<g clip-path="url(#clip0_2027_25275)">
<path d="M12 24C18.6274 24 24 18.6274 24 12C24 5.37258 18.6274 0 12 0C5.37258 0 0 5.37258 0 12C0 18.6274 5.37258 24 12 24Z" fill="#D80027"/>
<path d="M14.5087 9.80505L15.4933 11.1619L17.0879 10.6448L16.1017 12.0004L17.0862 13.3572L15.4922 12.8382L14.5061 14.1938L14.5071 12.5175L12.9131 11.9985L14.5077 11.4815L14.5087 9.80505Z" fill="#F0F0F0"/>
<path d="M11.8217 15.3906C9.9488 15.3906 8.43043 13.8722 8.43043 11.9993C8.43043 10.1263 9.9488 8.60794 11.8217 8.60794C12.4057 8.60794 12.9552 8.75565 13.4349 9.01557C12.6823 8.27954 11.6531 7.82532 10.5174 7.82532C8.21218 7.82532 6.34351 9.69404 6.34351 11.9992C6.34351 14.3044 8.21222 16.1731 10.5174 16.1731C11.6532 16.1731 12.6824 15.7188 13.4349 14.9828C12.9552 15.2429 12.4057 15.3906 11.8217 15.3906Z" fill="#F0F0F0"/>
</g>
<defs>
<clipPath id="clip0_2027_25275">
<rect width="24" height="24" fill="white"/>
</clipPath>
</defs>
</svg>
