<svg width="24" height="24" viewBox="0 0 24 24" fill="none" xmlns="http://www.w3.org/2000/svg">
<g opacity="0.4">
<path fill-rule="evenodd" clip-rule="evenodd" d="M20.8422 20.5705C20.6598 20.8009 20.391 20.9257 20.0934 20.9257H3.85019C3.56219 20.9257 3.28379 20.8009 3.10139 20.5705C2.90939 20.3401 2.84219 20.0425 2.90939 19.7545L3.27419 18.0649C3.37979 17.6233 3.77339 17.2969 4.22459 17.2969H19.719C20.1702 17.2969 20.5638 17.6233 20.6694 18.0649L21.0342 19.7545C21.1014 20.0425 21.0342 20.3401 20.8422 20.5705Z" fill="#202939"/>
<path fill-rule="evenodd" clip-rule="evenodd" d="M21.0246 8.94475V9.50154C21.0246 10.1544 20.4965 10.6824 19.8437 10.6824H4.09975C3.44695 10.6824 2.91895 10.1544 2.91895 9.50154V8.94475C2.91895 8.54155 3.12055 8.17675 3.46615 7.95595L11.3285 2.87755C11.7221 2.62795 12.2213 2.62795 12.6149 2.88715L20.4869 7.95595C20.8229 8.16715 21.0246 8.54155 21.0246 8.94475Z" fill="#202939"/>
</g>
<path fill-rule="evenodd" clip-rule="evenodd" d="M17.7511 17.2963H19.1911V10.6819H17.7511V17.2963ZM13.4215 17.2963H14.8615V10.6819H13.4215V17.2963ZM9.08229 17.2963H10.5223V10.6819H9.08229V17.2963ZM4.75269 17.2963H6.19269V10.6819H4.75269V17.2963Z" fill="#202939"/>
<path fill-rule="evenodd" clip-rule="evenodd" d="M12.0049 7.9885C11.6075 7.9885 11.2849 7.66594 11.2849 7.2685C11.2849 6.87106 11.6075 6.5437 12.0049 6.5437C12.4024 6.5437 12.7249 6.86146 12.7249 7.2589V7.2685C12.7249 7.66594 12.4024 7.9885 12.0049 7.9885Z" fill="#202939"/>
</svg>
