<svg width="24" height="24" viewBox="0 0 24 24" fill="none" xmlns="http://www.w3.org/2000/svg">
<path opacity="0.4" fill-rule="evenodd" clip-rule="evenodd" d="M17.1579 3H6.8421C4 3 2 5.19512 2 8.26829V15.7317C2 18.8049 4 21 6.8421 21H17.1579C20 21 22 18.8049 22 15.7317V8.26829C22 5.19512 20 3 17.1579 3Z" fill="#202939"/>
<path d="M14.2003 10.8641H17.8919C18.3698 10.8641 18.7571 10.4767 18.7571 9.99885C18.7571 9.51994 18.3698 9.13257 17.8919 9.13257H14.2003C13.7224 9.13257 13.334 9.51994 13.334 9.99885C13.334 10.4767 13.7224 10.8641 14.2003 10.8641Z" fill="#202939"/>
<path d="M15.5945 14.7683H17.8924C18.3703 14.7683 18.7577 14.381 18.7577 13.9031C18.7577 13.4241 18.3703 13.0367 17.8924 13.0367H15.5945C15.1166 13.0367 14.7292 13.4241 14.7292 13.9031C14.7292 14.381 15.1166 14.7683 15.5945 14.7683Z" fill="#202939"/>
<path d="M5.60496 16.2873L12.3407 16.2778C12.5576 16.2778 12.7323 16.1031 12.7323 15.8873C12.7323 14.4683 11.5691 13.0367 8.97233 13.0367C6.37549 13.0367 5.21338 14.4725 5.21338 15.8967C5.21338 15.9999 5.25444 16.0999 5.32707 16.1736C5.40075 16.2462 5.50076 16.2873 5.60496 16.2873Z" fill="#202939"/>
<path d="M11.4113 9.38829C11.4113 8.04302 10.3176 6.94934 8.97239 6.94934C7.62713 6.94934 6.53345 8.04302 6.53345 9.38829C6.53345 10.7335 7.62713 11.8283 8.97239 11.8283C10.3176 11.8283 11.4113 10.7335 11.4113 9.38829Z" fill="#202939"/>
</svg>
