<svg width="24" height="24" viewBox="0 0 24 24" fill="none" xmlns="http://www.w3.org/2000/svg">
<path fill-rule="evenodd" clip-rule="evenodd" d="M17.2992 13.217C17.0438 13.217 16.799 13.1153 16.6195 12.9348L15.217 11.5284C14.8426 11.153 14.8435 10.5444 15.2189 10.171C15.5942 9.79557 16.201 9.79749 16.5763 10.1729L17.3002 10.8986L19.5168 8.68485C19.8912 8.31045 20.4989 8.30949 20.8742 8.68581C21.2486 9.06021 21.2486 9.66789 20.8742 10.0432L17.9779 12.9367C17.7984 13.1162 17.5536 13.217 17.2992 13.217Z" fill="#1C1C1C"/>
<path fill-rule="evenodd" clip-rule="evenodd" d="M8.98538 12.4957C11.4891 12.4957 13.5262 10.4605 13.5262 7.95971C13.5262 5.45891 11.4891 3.42371 8.98538 3.42371C6.4817 3.42371 4.44458 5.45891 4.44458 7.95971C4.44458 10.4605 6.4817 12.4957 8.98538 12.4957Z" fill="#1C1C1C"/>
<path opacity="0.4" fill-rule="evenodd" clip-rule="evenodd" d="M8.98527 14.3962C6.06207 14.3962 2.17407 14.7159 2.17407 17.4769C2.17407 20.5758 7.30047 20.5758 8.98527 20.5758C11.9084 20.5758 15.7964 20.2561 15.7964 17.4951C15.7964 14.3962 10.67 14.3962 8.98527 14.3962Z" fill="#1C1C1C"/>
</svg>
