<svg width="24" height="24" viewBox="0 0 24 24" fill="none" xmlns="http://www.w3.org/2000/svg">
<path d="M7.28613 7.74143C7.28613 10.1577 9.25317 12.1229 11.6733 12.1229C14.0877 12.1229 16.0519 10.1577 16.0519 7.74143C16.0519 5.32607 14.0877 3.35999 11.6733 3.35999C9.25317 3.35999 7.28613 5.32607 7.28613 7.74143Z" fill="#1C1C1C"/>
<path opacity="0.4" d="M6.78747 20.6396H16.5411C18.1798 20.6396 19.3366 19.5471 19.4211 17.8988C19.4316 16.1784 18.3718 14.7298 16.6534 14.1173C15.8374 13.8312 14.9359 14.054 13.9836 14.292C13.2454 14.4764 12.4879 14.654 11.6604 14.6588C10.8271 14.6568 10.0879 14.4744 9.35067 14.2892C8.39547 14.0482 7.49211 13.8216 6.67323 14.1154C4.96731 14.7221 3.90747 16.1717 3.90747 17.917C3.97947 19.5461 5.13627 20.6396 6.78747 20.6396Z" fill="#1C1C1C"/>
</svg>
