<svg width="24" height="24" viewBox="0 0 24 24" fill="none" xmlns="http://www.w3.org/2000/svg">
<path fill-rule="evenodd" clip-rule="evenodd" d="M17.413 13.6238C17.174 13.6238 16.934 13.5345 16.7487 13.3569L15.3087 11.9764C14.9257 11.6097 14.9132 11.002 15.2799 10.619C15.6476 10.2359 16.2553 10.2235 16.6374 10.5902L17.413 11.3342L19.7151 9.13C20.0972 8.76424 20.7049 8.7748 21.0735 9.15976C21.4393 9.54184 21.4268 10.1495 21.0428 10.5163L18.0764 13.3569C17.8911 13.5345 17.6521 13.6238 17.413 13.6238Z" fill="#1C1C1C"/>
<path fill-rule="evenodd" clip-rule="evenodd" d="M9.38996 12.9609C11.9704 12.9609 14.0699 10.8605 14.0699 8.27998C14.0699 5.6995 11.9704 3.59998 9.38996 3.59998C6.80948 3.59998 4.70996 5.6995 4.70996 8.27998C4.70996 10.8605 6.80948 12.9609 9.38996 12.9609Z" fill="#1C1C1C"/>
<path opacity="0.4" fill-rule="evenodd" clip-rule="evenodd" d="M9.39012 14.4149C4.61028 14.4149 2.46948 17.0588 2.46948 19.6796C2.46948 19.8706 2.54532 20.054 2.68068 20.1893C2.81508 20.3237 2.99844 20.3996 3.18948 20.3996L15.5908 20.3823C15.9882 20.3813 16.3098 20.0588 16.3098 19.6623C16.3098 17.0501 14.17 14.4149 9.39012 14.4149Z" fill="#1C1C1C"/>
</svg>
