<svg width="24" height="24" viewBox="0 0 24 24" fill="none" xmlns="http://www.w3.org/2000/svg">
<path fill-rule="evenodd" clip-rule="evenodd" d="M19.1456 16.6905L18.9497 16.4947C18.7539 16.2988 18.7539 16.2009 18.7539 15.9072V15.5155C18.7539 15.0249 18.3622 14.6332 17.8726 14.6332H17.48C17.2841 14.6332 17.0883 14.5353 16.8924 14.4374L16.6966 14.2416C16.4028 13.9478 15.8153 13.9478 15.5216 14.2416L15.3248 14.4374C15.1289 14.6332 15.031 14.6332 14.7372 14.6332H14.3456C13.856 14.6332 13.4643 15.0249 13.4643 15.5155V15.9072C13.4643 16.103 13.3664 16.2988 13.2684 16.4947L13.0726 16.6905C12.7779 16.9843 12.7779 17.5718 13.0726 17.8656L13.2684 18.0624C13.4643 18.2582 13.4643 18.3561 13.4643 18.6499V19.0416C13.4643 19.5312 13.856 19.9228 14.3456 19.9228H14.7372C14.9331 19.9228 15.1289 20.0208 15.3248 20.1187L15.5216 20.3145C15.8153 20.6092 16.4028 20.6092 16.6966 20.3145L16.8924 20.1187C17.0883 19.9228 17.1862 19.9228 17.48 19.9228H17.8726C18.3622 19.9228 18.7539 19.5312 18.7539 19.0416V18.6499C18.7539 18.454 18.8518 18.2582 18.9497 18.0624L19.1456 17.8656C19.4393 17.5718 19.4393 17.0822 19.1456 16.6905ZM17.48 17.0822L16.0112 18.454C15.9132 18.552 15.8153 18.6499 15.6195 18.6499C15.4236 18.6499 15.3248 18.552 15.2268 18.454L14.5414 17.7676C14.3456 17.5718 14.3456 17.1801 14.5414 16.9843C14.7372 16.7884 15.1289 16.7884 15.3248 16.9843L15.6195 17.278L16.5987 16.2988C16.7945 16.103 17.1862 16.103 17.382 16.2988C17.5779 16.4947 17.6758 16.7884 17.48 17.0822Z" fill="#1C1C1C"/>
<path fill-rule="evenodd" clip-rule="evenodd" d="M15.3255 7.9712C15.4234 5.42432 13.3661 3.46497 10.8193 3.46497C8.27235 3.46497 6.31299 5.52224 6.31299 7.9712C6.31299 10.5181 8.37027 12.4775 10.8193 12.4775C13.3661 12.4775 15.3255 10.4202 15.3255 7.9712Z" fill="#1C1C1C"/>
<path opacity="0.4" fill-rule="evenodd" clip-rule="evenodd" d="M9.83998 14.4375C8.46817 14.4375 7.19521 14.6333 6.21601 14.9271C5.62753 15.1229 5.04001 15.4167 4.64833 15.8093C4.25665 16.201 3.96289 16.7885 3.96289 17.474C3.96289 18.1594 4.15873 18.65 4.64833 19.1396C5.04001 19.5313 5.62753 19.825 6.21601 20.0209C7.19521 20.3146 8.46817 20.5105 9.83998 20.5105C10.4275 20.5105 10.8192 20.1188 10.8192 19.5313V15.4167C10.8192 14.8292 10.4275 14.4375 9.83998 14.4375Z" fill="#1C1C1C"/>
</svg>
