<svg width="24" height="24" viewBox="0 0 24 24" fill="none" xmlns="http://www.w3.org/2000/svg">
<path d="M5.71862 14.8848C7.22096 14.8848 8.43821 16.103 8.43821 17.6044C8.43821 19.1057 7.22096 20.3239 5.71862 20.3239C4.21725 20.3239 3 19.1057 3 17.6044C3 16.103 4.21725 14.8848 5.71862 14.8848Z" stroke="#1C1C1C" stroke-width="1.5" stroke-linecap="round" stroke-linejoin="round"/>
<path d="M4.28756 15.2472C4.24767 12.153 6.8612 10.099 9.87075 10.6361C12.7733 11.1547 17.2959 14.6819 15.7312 17.9328C15.1377 19.1675 13.8426 19.8603 12.4561 19.9566C10.7406 20.0228 9.06509 19.9051 7.40025 19.7416" stroke="#1C1C1C" stroke-width="1.5" stroke-linecap="round" stroke-linejoin="round"/>
<path d="M17.875 19.8535H21.0003" stroke="#1C1C1C" stroke-width="1.5" stroke-linecap="round" stroke-linejoin="round"/>
<path d="M11.0449 13.8976C11.0644 13.8607 12.447 14.3014 13.0425 15.6403" stroke="#1C1C1C" stroke-width="1.5" stroke-linecap="round" stroke-linejoin="round"/>
<path d="M13.1561 12.1236C13.8265 11.2079 14.1116 10.0131 13.8557 8.89995C13.6075 7.81698 12.6559 7.19133 12.3368 6.16577C11.9884 5.04874 12.7805 3.8636 13.9209 3.69527C15.1624 3.51234 16.188 4.6537 16.8545 5.57904C19.796 9.64529 19.1888 13.7903 19.1722 18.5815V19.8571" stroke="#1C1C1C" stroke-width="1.5" stroke-linecap="round" stroke-linejoin="round"/>
</svg>
