<svg width="24" height="24" viewBox="0 0 24 24" fill="none" xmlns="http://www.w3.org/2000/svg">
<g opacity="0.4">
<path fill-rule="evenodd" clip-rule="evenodd" d="M8.2576 2.88C6.72789 2.88 5.44788 3.42481 4.55263 4.385C3.66085 5.34145 3.18604 6.67173 3.18604 8.18507V8.87251H21.4251V8.18507C21.4251 6.67239 20.953 5.34205 20.0624 4.38528C19.1682 3.42462 17.8881 2.88 16.3545 2.88H8.2576Z" fill="#1C1C1C"/>
<path fill-rule="evenodd" clip-rule="evenodd" d="M3.18604 15.814V10.3125H21.4251V15.814C21.4251 17.3266 20.953 18.657 20.0623 19.6138C19.1679 20.5745 17.8876 21.1191 16.3535 21.1191H8.2576C6.724 21.1191 5.44373 20.5744 4.54926 19.6138C3.65839 18.6571 3.18604 17.3267 3.18604 15.814Z" fill="#1C1C1C"/>
</g>
<path fill-rule="evenodd" clip-rule="evenodd" d="M6.82352 6.04871C6.42587 6.04871 6.10352 6.37106 6.10352 6.76871C6.10352 7.16635 6.42587 7.48871 6.82352 7.48871H6.87676C7.2744 7.48871 7.59676 7.16635 7.59676 6.76871C7.59676 6.37106 7.2744 6.04871 6.87676 6.04871H6.82352ZM9.20961 6.04871C8.81196 6.04871 8.48961 6.37106 8.48961 6.76871C8.48961 7.16635 8.81196 7.48871 9.20961 7.48871H9.26285C9.6605 7.48871 9.98287 7.16635 9.98287 6.76871C9.98287 6.37106 9.6605 6.04871 9.26285 6.04871H9.20961ZM11.5966 6.04871C11.199 6.04871 10.8766 6.37106 10.8766 6.76871C10.8766 7.16635 11.199 7.48871 11.5966 7.48871H11.6498C12.0475 7.48871 12.3698 7.16635 12.3698 6.76871C12.3698 6.37106 12.0475 6.04871 11.6498 6.04871H11.5966Z" fill="#1C1C1C"/>
<path fill-rule="evenodd" clip-rule="evenodd" d="M8.09817 12.7104C7.70052 12.7104 7.37817 13.0328 7.37817 13.4304C7.37817 13.8282 7.70052 14.1504 8.09817 14.1504H11.67C12.0676 14.1504 12.39 13.8282 12.39 13.4304C12.39 13.0328 12.0676 12.7104 11.67 12.7104H8.09817ZM8.09817 16.018C7.70052 16.018 7.37817 16.3403 7.37817 16.738C7.37817 17.1357 7.70052 17.458 8.09817 17.458H14.6469C15.0445 17.458 15.3669 17.1357 15.3669 16.738C15.3669 16.3403 15.0445 16.018 14.6469 16.018H8.09817Z" fill="#1C1C1C"/>
</svg>
