<svg width="24" height="24" viewBox="0 0 24 24" fill="none" xmlns="http://www.w3.org/2000/svg">
<g filter="url(#filter0_d_2022_17824)">
<g style="mix-blend-mode:multiply" opacity="0.2">
<g style="mix-blend-mode:multiply" opacity="0.2">
<g style="mix-blend-mode:multiply">
<path d="M20.3877 3.34766H7.40375C6.95639 3.34766 6.59375 3.71032 6.59375 4.15768V19.8477C6.59375 20.295 6.95639 20.6577 7.40375 20.6577H20.3877C20.8351 20.6577 21.1978 20.295 21.1978 19.8477V4.15768C21.1978 3.71032 20.8351 3.34766 20.3877 3.34766Z" fill="white"/>
</g>
</g>
</g>
<g style="mix-blend-mode:multiply" opacity="0.12">
<g style="mix-blend-mode:multiply" opacity="0.12">
<g style="mix-blend-mode:multiply">
<path d="M20.3877 3.34766H7.40375C6.95639 3.34766 6.59375 3.7103 6.59375 4.15766V19.8477C6.59375 20.295 6.95639 20.6577 7.40375 20.6577H20.3877C20.8351 20.6577 21.1978 20.295 21.1978 19.8477V4.15766C21.1978 3.7103 20.8351 3.34766 20.3877 3.34766Z" fill="white"/>
</g>
</g>
</g>
<path d="M7.40363 20.6514H20.3996C20.5063 20.6522 20.6119 20.6318 20.7106 20.5914C20.8092 20.551 20.8988 20.4914 20.9742 20.416C21.0496 20.3406 21.1092 20.251 21.1496 20.1524C21.19 20.0537 21.2104 19.948 21.2096 19.8414V16.3254H6.59963V19.8414C6.59885 19.9475 6.61907 20.0527 6.65909 20.151C6.69917 20.2492 6.75827 20.3385 6.83297 20.4138C6.90773 20.4891 6.99665 20.5489 7.09457 20.5896C7.19249 20.6304 7.29755 20.6514 7.40363 20.6514Z" fill="#103F91"/>
<path d="M20.3996 3.34741H7.40363C7.29755 3.34741 7.19249 3.3684 7.09457 3.40918C6.99665 3.44996 6.90773 3.50972 6.83297 3.58501C6.75827 3.66032 6.69917 3.74966 6.65909 3.84788C6.61907 3.94616 6.59885 4.05134 6.59963 4.15742V7.67342H21.1916V4.15742C21.1933 3.9452 21.1109 3.74096 20.9626 3.58923C20.8142 3.4375 20.6119 3.35057 20.3996 3.34741Z" fill="#41A5EE"/>
<path d="M21.1978 11.999H6.59375V16.325H21.1978V11.999Z" fill="#185ABD"/>
<path d="M21.1978 7.67383H6.59375V11.9998H21.1978V7.67383Z" fill="#2B7CD3"/>
</g>
<g style="mix-blend-mode:multiply" opacity="0.48">
<g style="mix-blend-mode:multiply" opacity="0.48">
<g style="mix-blend-mode:multiply">
<path d="M11.1897 7.13477H3.07172C2.62437 7.13477 2.26172 7.49741 2.26172 7.94477V16.0628C2.26172 16.5101 2.62437 16.8728 3.07172 16.8728H11.1897C11.6371 16.8728 11.9997 16.5101 11.9997 16.0628V7.94477C11.9997 7.49741 11.6371 7.13477 11.1897 7.13477Z" fill="white"/>
</g>
</g>
</g>
<g style="mix-blend-mode:multiply" opacity="0.24">
<g style="mix-blend-mode:multiply" opacity="0.24">
<g style="mix-blend-mode:multiply">
<path d="M11.1897 7.13477H3.07172C2.62437 7.13477 2.26172 7.49741 2.26172 7.94477V16.0628C2.26172 16.5101 2.62437 16.8728 3.07172 16.8728H11.1897C11.6371 16.8728 11.9997 16.5101 11.9997 16.0628V7.94477C11.9997 7.49741 11.6371 7.13477 11.1897 7.13477Z" fill="white"/>
</g>
</g>
</g>
<g filter="url(#filter1_d_2022_17824)">
<path d="M11.1897 7.13477H3.07172C2.62437 7.13477 2.26172 7.49741 2.26172 7.94477V16.0628C2.26172 16.5101 2.62437 16.8728 3.07172 16.8728H11.1897C11.6371 16.8728 11.9997 16.5101 11.9997 16.0628V7.94477C11.9997 7.49741 11.6371 7.13477 11.1897 7.13477Z" fill="#185ABD"/>
<g style="mix-blend-mode:soft-light" opacity="0.5">
<path style="mix-blend-mode:soft-light" opacity="0.5" d="M11.1897 7.13477H3.07172C2.62437 7.13477 2.26172 7.49741 2.26172 7.94477V16.0628C2.26172 16.5101 2.62437 16.8728 3.07172 16.8728H11.1897C11.6371 16.8728 11.9997 16.5101 11.9997 16.0628V7.94477C11.9997 7.49741 11.6371 7.13477 11.1897 7.13477Z" fill="url(#paint0_linear_2022_17824)"/>
</g>
<path d="M5.59172 13.3565C5.6093 13.4637 5.61932 13.5719 5.62172 13.6805C5.62916 13.5737 5.64314 13.4675 5.66372 13.3625C5.67692 13.2554 5.69696 13.1491 5.72372 13.0445L6.59972 9.36653H7.70372L8.58572 12.9665C8.63504 13.1922 8.6711 13.4206 8.69372 13.6505C8.70956 13.4288 8.73962 13.2084 8.78372 12.9905L9.49172 9.34253H10.4937L9.25772 14.6105H8.10572L7.25972 11.1425C7.25972 11.0405 7.20572 10.9145 7.17572 10.7525C7.14572 10.5905 7.12772 10.4705 7.12172 10.3985C7.12172 10.4825 7.12172 10.6085 7.06772 10.7825C7.01372 10.9565 7.01372 11.0765 7.00172 11.1545L6.20972 14.6345H5.00972L3.76172 9.36653H4.79972L5.56772 13.0505C5.58236 13.1519 5.59034 13.2541 5.59172 13.3565Z" fill="white"/>
</g>
<defs>
<filter id="filter0_d_2022_17824" x="5.39375" y="3.34741" width="17.0157" height="19.7103" filterUnits="userSpaceOnUse" color-interpolation-filters="sRGB">
<feFlood flood-opacity="0" result="BackgroundImageFix"/>
<feColorMatrix in="SourceAlpha" type="matrix" values="0 0 0 0 0 0 0 0 0 0 0 0 0 0 0 0 0 0 127 0" result="hardAlpha"/>
<feOffset dy="1.2"/>
<feGaussianBlur stdDeviation="0.6"/>
<feComposite in2="hardAlpha" operator="out"/>
<feColorMatrix type="matrix" values="0 0 0 0 0 0 0 0 0 0 0 0 0 0 0 0 0 0 0.12 0"/>
<feBlend mode="normal" in2="BackgroundImageFix" result="effect1_dropShadow_2022_17824"/>
<feBlend mode="normal" in="SourceGraphic" in2="effect1_dropShadow_2022_17824" result="shape"/>
</filter>
<filter id="filter1_d_2022_17824" x="2.26172" y="7.13477" width="12.1378" height="12.138" filterUnits="userSpaceOnUse" color-interpolation-filters="sRGB">
<feFlood flood-opacity="0" result="BackgroundImageFix"/>
<feColorMatrix in="SourceAlpha" type="matrix" values="0 0 0 0 0 0 0 0 0 0 0 0 0 0 0 0 0 0 127 0" result="hardAlpha"/>
<feOffset dx="1.2" dy="1.2"/>
<feGaussianBlur stdDeviation="0.6"/>
<feComposite in2="hardAlpha" operator="out"/>
<feColorMatrix type="matrix" values="0 0 0 0 0 0 0 0 0 0 0 0 0 0 0 0 0 0 0.22 0"/>
<feBlend mode="normal" in2="BackgroundImageFix" result="effect1_dropShadow_2022_17824"/>
<feBlend mode="normal" in="SourceGraphic" in2="effect1_dropShadow_2022_17824" result="shape"/>
</filter>
<linearGradient id="paint0_linear_2022_17824" x1="3.95372" y1="6.49877" x2="10.3077" y2="17.5028" gradientUnits="userSpaceOnUse">
<stop stop-color="white" stop-opacity="0.5"/>
<stop offset="1" stop-opacity="0.7"/>
</linearGradient>
</defs>
</svg>
