<svg width="24" height="24" viewBox="0 0 24 24" fill="none" xmlns="http://www.w3.org/2000/svg">
<path fill-rule="evenodd" clip-rule="evenodd" d="M15.2371 15.2436C15.3621 14.2056 15.4381 13.1246 15.4381 11.9926C15.4381 10.8656 15.3621 9.78663 15.2381 8.75463C13.1451 8.50463 10.8411 8.50563 8.75906 8.75363C8.63606 9.78563 8.56006 10.8626 8.56006 11.9926C8.56006 13.1316 8.63606 14.2126 8.76006 15.2436C10.8421 15.4916 13.1671 15.4906 15.2371 15.2436Z" fill="#1C1C1C"/>
<path fill-rule="evenodd" clip-rule="evenodd" d="M21.3708 10.5058C21.3428 10.4928 21.3128 10.4908 21.2858 10.4748C20.2248 9.82284 18.6418 9.29784 16.7678 8.96484C16.8698 9.93884 16.9388 10.9438 16.9388 11.9928C16.9388 13.0458 16.8698 14.0538 16.7668 15.0318C18.6528 14.6968 20.2318 14.1658 21.2788 13.5058C21.3088 13.4868 21.3428 13.4838 21.3748 13.4698C21.4498 12.9888 21.4998 12.5008 21.4998 11.9998C21.4998 11.4898 21.4488 10.9938 21.3708 10.5058Z" fill="#1C1C1C"/>
<path fill-rule="evenodd" clip-rule="evenodd" d="M7.06024 11.9926C7.06024 10.9416 7.12824 9.93858 7.23024 8.96558C5.35324 9.29958 3.77324 9.82758 2.71324 10.4846C2.68624 10.5016 2.65624 10.5096 2.62724 10.5226C2.55124 11.0056 2.50024 11.4966 2.50024 11.9996C2.50024 12.5016 2.55124 12.9896 2.62624 13.4706C2.65624 13.4846 2.68824 13.4866 2.71724 13.5046C3.77124 14.1666 5.35324 14.6976 7.23024 15.0326C7.12824 14.0586 7.06024 13.0506 7.06024 11.9926Z" fill="#1C1C1C"/>
<g opacity="0.4">
<path fill-rule="evenodd" clip-rule="evenodd" d="M16.5765 7.41465C18.2045 7.67265 19.6715 8.06965 20.8515 8.57465C19.8855 6.08665 17.9045 4.10865 15.4155 3.14465C15.9195 4.31565 16.3175 5.77965 16.5765 7.41465Z" fill="#1C1C1C"/>
<path fill-rule="evenodd" clip-rule="evenodd" d="M7.42073 7.41458C7.68073 5.78358 8.08073 4.31858 8.59073 3.14258C6.09773 4.10558 4.11273 6.08758 3.14673 8.58058C4.32473 8.07258 5.79073 7.67358 7.42073 7.41458Z" fill="#1C1C1C"/>
<path fill-rule="evenodd" clip-rule="evenodd" d="M13.509 21.2838C14.163 20.2408 14.691 18.6598 15.026 16.7738C14.054 16.8758 13.049 16.9438 11.998 16.9438C10.949 16.9438 9.94492 16.8758 8.97192 16.7738C9.30792 18.6538 9.83892 20.2328 10.498 21.2838C10.516 21.3128 10.519 21.3448 10.532 21.3748C11.012 21.4488 11.5 21.4998 12 21.4998C12.503 21.4998 12.993 21.4488 13.475 21.3728C13.489 21.3438 13.491 21.3118 13.509 21.2838Z" fill="#1C1C1C"/>
<path fill-rule="evenodd" clip-rule="evenodd" d="M10.4979 2.71C9.83795 3.763 9.30695 5.345 8.97095 7.224C10.9359 7.02 13.0529 7.019 15.0259 7.225C14.6909 5.334 14.1629 3.753 13.5089 2.71C13.4919 2.684 13.4899 2.654 13.4769 2.626C12.9949 2.55 12.5039 2.5 11.9999 2.5C11.4989 2.5 11.0099 2.55 10.5299 2.625C10.5169 2.653 10.5149 2.683 10.4979 2.71Z" fill="#1C1C1C"/>
<path fill-rule="evenodd" clip-rule="evenodd" d="M16.5761 16.5828C16.3171 18.2178 15.9191 19.6838 15.4131 20.8548C17.9061 19.8908 19.8901 17.9078 20.8551 15.4148C19.6841 15.9268 18.2331 16.3208 16.5761 16.5828Z" fill="#1C1C1C"/>
<path fill-rule="evenodd" clip-rule="evenodd" d="M7.42104 16.5828C5.78904 16.3238 4.32104 15.9228 3.14404 15.4108C4.10904 17.9078 6.09604 19.8928 8.59304 20.8578C8.08304 19.6828 7.68204 18.2168 7.42104 16.5828Z" fill="#1C1C1C"/>
</g>
</svg>
